{"glyphs":{"0":{"ha":1038,"x_min":49,"x_max":988,"o":"m 518 -25 q 271 40 378 -25 q 106 224 164 106 q 49 497 49 342 q 106 771 49 653 q 271 954 164 889 q 518 1019 378 1019 q 766 954 660 1019 q 930 771 872 889 q 988 497 988 653 q 930 224 988 342 q 766 40 872 106 q 518 -25 660 -25 m 518 221 q 649 297 600 221 q 697 497 697 372 q 649 698 697 622 q 518 774 600 774 q 389 698 438 774 q 340 497 340 622 q 389 297 340 372 q 518 221 438 221 z "},"1":{"ha":783,"x_min":29,"x_max":769,"o":"m 29 225 l 275 225 l 275 689 l 274 689 q 125 567 232 614 l 32 807 q 293 994 210 860 l 567 994 l 567 225 l 769 225 l 769 0 l 29 0 l 29 225 z "},"2":{"ha":897,"x_min":39,"x_max":856,"o":"m 39 128 q 101 364 39 278 q 307 501 164 450 l 417 542 q 522 603 490 568 q 554 690 554 638 q 530 760 554 736 q 467 783 506 783 q 386 739 418 783 q 353 615 354 694 l 67 664 q 131 851 76 771 q 275 976 185 932 q 479 1019 365 1019 q 677 978 592 1019 q 809 862 763 938 q 856 686 856 786 q 794 506 856 576 q 593 385 733 435 l 461 336 q 368 278 396 308 q 340 203 340 247 l 842 203 l 842 0 l 39 0 l 39 128 z "},"3":{"ha":901,"x_min":15,"x_max":857,"o":"m 442 -25 q 232 17 324 -25 q 85 135 140 60 q 15 308 29 211 l 296 374 q 339 255 303 299 q 432 211 375 211 q 514 242 483 211 q 544 324 544 272 q 513 408 544 375 q 433 443 482 440 l 372 446 l 372 585 l 415 588 q 497 622 468 590 q 526 708 526 654 q 503 776 526 751 q 444 801 481 801 q 366 759 396 801 q 333 643 336 717 l 47 693 q 106 858 54 783 q 245 974 158 932 q 440 1017 332 1017 q 627 983 546 1017 q 753 888 708 950 q 799 744 799 826 q 765 619 799 675 q 674 538 732 564 l 674 535 q 808 437 760 503 q 857 286 857 371 q 803 125 857 196 q 656 15 750 54 q 442 -25 561 -25 z "},"4":{"ha":938,"x_min":18,"x_max":896,"o":"m 503 199 l 18 199 l 18 354 l 438 994 l 783 994 l 783 394 l 896 394 l 896 199 l 783 199 l 783 0 l 503 0 l 503 199 m 503 394 l 503 743 l 501 743 l 274 394 l 503 394 z "},"5":{"ha":940,"x_min":18,"x_max":910,"o":"m 469 -25 q 253 14 351 -25 q 92 122 154 53 q 18 282 31 192 l 318 340 q 369 247 328 282 q 469 211 410 211 q 571 248 533 211 q 608 346 608 285 q 572 444 608 407 q 476 481 536 481 q 409 464 440 481 q 363 419 378 447 l 103 457 l 136 994 l 819 994 l 819 779 l 390 779 l 379 610 q 463 649 413 635 q 571 663 514 663 q 747 622 669 663 q 867 506 824 581 q 910 338 910 432 q 854 147 910 229 q 699 19 799 64 q 469 -25 599 -25 z "},"6":{"ha":936,"x_min":49,"x_max":897,"o":"m 478 1019 q 747 942 647 1019 q 871 718 846 865 l 610 688 q 489 804 582 804 q 383 751 422 804 q 340 599 344 697 q 558 667 431 667 q 729 625 651 667 q 852 509 807 583 q 897 340 897 435 q 846 150 897 232 q 699 23 794 68 q 475 -22 603 -22 q 164 92 279 -22 q 49 439 49 206 q 147 864 49 708 q 478 1019 246 1019 m 472 483 q 384 447 418 483 q 350 351 350 411 q 385 251 350 289 q 475 213 419 213 q 563 251 529 214 q 596 351 596 289 q 562 448 596 413 q 472 483 528 483 z "},"7":{"ha":763,"x_min":28,"x_max":744,"o":"m 129 0 q 231 395 149 197 q 449 760 314 593 l 28 760 l 28 994 l 744 994 l 744 794 q 544 415 611 611 q 460 0 478 219 l 129 0 z "},"8":{"ha":928,"x_min":42,"x_max":886,"o":"m 464 -19 q 241 19 336 -19 q 94 127 146 57 q 42 289 42 197 q 93 438 42 374 q 231 528 144 501 q 126 618 165 560 q 88 742 88 676 q 134 890 88 826 q 266 990 181 954 q 464 1025 351 1025 q 663 990 576 1025 q 795 892 749 956 q 842 743 842 828 q 802 618 842 676 q 697 528 763 560 q 835 438 783 501 q 886 289 886 374 q 835 126 886 196 q 688 19 783 57 q 464 -19 592 -19 m 464 600 q 541 630 511 600 q 571 704 571 660 q 541 776 571 747 q 464 804 511 804 q 388 776 418 804 q 358 704 358 747 q 388 630 358 660 q 464 600 418 600 m 464 201 q 551 233 517 201 q 586 311 586 264 q 551 388 586 357 q 464 419 517 419 q 377 388 411 419 q 343 311 343 357 q 377 232 343 263 q 464 201 411 201 z "},"9":{"ha":965,"x_min":32,"x_max":915,"o":"m 458 -24 q 164 54 272 -24 q 32 279 56 132 l 292 310 q 457 182 322 182 q 579 238 536 182 q 625 399 622 294 q 406 331 535 331 q 235 372 313 331 q 113 488 158 414 q 68 657 68 563 q 119 847 68 765 q 267 974 171 929 q 489 1019 363 1019 q 801 906 686 1019 q 915 556 915 792 q 809 133 915 289 q 458 -24 703 -24 m 493 514 q 581 550 547 514 q 614 646 614 586 q 580 747 614 708 q 490 785 546 785 q 403 743 438 783 q 368 646 368 703 q 403 549 368 585 q 493 514 438 514 z "},"\u0000":{"ha":1060,"x_min":113,"x_max":947,"o":"m 113 994 l 947 994 l 947 0 l 113 0 l 113 994 m 714 200 l 714 796 l 346 796 l 346 200 l 714 200 z "},"\r":{"ha":72,"x_min":0,"x_max":0,"o":""}," ":{"ha":274,"x_min":0,"x_max":0,"o":""},"A":{"ha":1069,"x_min":4,"x_max":1065,"o":"m 350 994 l 719 994 l 1065 0 l 750 0 l 700 174 l 368 174 l 317 0 l 4 0 l 350 994 m 651 378 l 536 767 l 533 767 l 417 378 l 651 378 z "},"B":{"ha":1021,"x_min":74,"x_max":989,"o":"m 74 994 l 606 994 q 876 924 782 994 q 971 721 971 853 q 927 584 971 639 q 800 508 883 529 l 800 506 q 940 429 890 489 q 989 276 989 369 q 894 72 989 143 q 624 0 800 0 l 74 0 l 74 994 m 557 593 q 642 618 613 593 q 671 689 671 643 q 642 756 671 733 q 557 779 613 779 l 375 779 l 375 593 l 557 593 m 567 215 q 657 240 626 215 q 688 310 688 264 q 657 387 688 360 q 567 414 626 414 l 375 414 l 375 215 l 567 215 z "},"C":{"ha":1136,"x_min":39,"x_max":1113,"o":"m 583 -35 q 295 31 418 -35 q 106 216 172 96 q 39 497 39 336 q 102 778 39 658 q 283 964 165 899 q 558 1029 401 1029 q 790 983 688 1029 q 956 853 892 938 q 1035 654 1019 768 l 761 585 q 693 724 744 674 q 560 774 642 774 q 399 699 458 774 q 340 497 340 625 q 407 296 340 371 q 588 221 474 221 q 751 282 683 221 q 833 444 818 343 l 1113 410 q 1031 174 1100 275 q 846 19 961 74 q 583 -35 731 -35 z "},"D":{"ha":1092,"x_min":74,"x_max":1053,"o":"m 74 994 l 508 994 q 912 866 771 994 q 1053 497 1053 738 q 912 128 1053 257 q 508 0 771 0 l 74 0 l 74 994 m 508 236 q 690 303 626 236 q 753 497 753 371 q 690 692 753 624 q 508 760 626 760 l 364 760 l 364 236 l 508 236 z "},"E":{"ha":826,"x_min":74,"x_max":796,"o":"m 74 994 l 782 994 l 782 760 l 363 760 l 363 608 l 726 608 l 726 404 l 363 404 l 363 236 l 796 236 l 796 0 l 74 0 l 74 994 z "},"F":{"ha":803,"x_min":74,"x_max":781,"o":"m 74 994 l 781 994 l 781 739 l 375 739 l 375 563 l 697 563 l 697 339 l 375 339 l 375 0 l 74 0 l 74 994 z "},"G":{"ha":1182,"x_min":39,"x_max":1126,"o":"m 515 -29 q 267 37 375 -29 q 99 222 158 103 q 39 497 39 342 q 106 775 39 654 q 292 963 172 896 q 571 1029 413 1029 q 779 987 683 1029 q 940 868 875 944 q 1028 692 1006 792 l 751 640 q 681 737 732 700 q 567 774 631 774 q 449 739 500 774 q 369 642 397 704 q 340 497 340 579 q 374 348 340 413 q 467 247 407 283 q 606 211 528 211 q 765 264 700 211 q 836 399 831 317 l 475 399 l 475 574 l 1126 574 l 1126 0 l 914 0 l 883 179 l 882 179 q 742 26 840 82 q 515 -29 644 -29 z "},"H":{"ha":1081,"x_min":74,"x_max":1007,"o":"m 74 994 l 375 994 l 375 631 l 706 631 l 706 994 l 1007 994 l 1007 0 l 706 0 l 706 396 l 375 396 l 375 0 l 74 0 l 74 994 z "},"I":{"ha":447,"x_min":74,"x_max":375,"o":"m 74 994 l 375 994 l 375 0 l 74 0 l 74 994 z "},"J":{"ha":885,"x_min":18,"x_max":825,"o":"m 426 -33 q 144 47 250 -33 q 18 272 38 126 l 275 356 q 325 243 288 283 q 419 203 363 203 q 497 235 469 203 q 524 325 524 267 l 525 994 l 825 994 l 825 308 q 718 57 825 147 q 426 -33 611 -33 z "},"K":{"ha":1017,"x_min":74,"x_max":1014,"o":"m 74 994 l 375 994 l 375 657 l 376 656 l 643 994 l 1006 994 l 671 618 l 1014 0 l 653 0 l 467 393 l 375 293 l 375 0 l 74 0 l 74 994 z "},"L":{"ha":763,"x_min":74,"x_max":738,"o":"m 74 994 l 375 994 l 375 256 l 738 256 l 738 0 l 74 0 l 74 994 z "},"M":{"ha":1419,"x_min":74,"x_max":1346,"o":"m 74 994 l 457 994 l 710 338 l 713 338 l 967 994 l 1346 994 l 1346 0 l 1075 0 l 1075 629 l 1072 629 l 825 0 l 594 0 l 347 629 l 344 629 l 344 0 l 74 0 l 74 994 z "},"N":{"ha":1122,"x_min":74,"x_max":1049,"o":"m 74 994 l 415 994 l 765 357 l 768 357 l 768 994 l 1049 994 l 1049 0 l 706 0 l 357 636 l 354 636 l 354 0 l 74 0 l 74 994 z "},"O":{"ha":1194,"x_min":39,"x_max":1157,"o":"m 597 -35 q 304 31 431 -35 q 108 217 178 97 q 39 497 39 338 q 108 777 39 657 q 304 963 178 897 q 597 1029 431 1029 q 892 963 765 1029 q 1088 777 1018 897 q 1157 497 1157 657 q 1088 217 1157 338 q 892 31 1018 97 q 597 -35 765 -35 m 597 221 q 785 297 715 221 q 856 497 856 372 q 785 698 856 622 q 597 774 715 774 q 410 698 481 774 q 340 497 340 622 q 410 297 340 372 q 597 221 481 221 z "},"P":{"ha":999,"x_min":74,"x_max":971,"o":"m 74 994 l 571 994 q 781 952 690 994 q 922 831 872 910 q 971 650 971 753 q 921 468 971 546 q 779 347 871 390 q 568 304 688 304 l 374 304 l 372 0 l 74 0 l 74 994 m 517 519 q 628 554 588 519 q 669 650 669 589 q 628 744 669 710 q 517 779 588 779 l 372 779 l 374 519 l 517 519 z "},"Q":{"ha":1194,"x_min":39,"x_max":1157,"o":"m 1157 497 q 1103 247 1157 357 q 950 66 1050 136 q 715 -25 850 -4 l 715 -60 q 738 -109 715 -92 q 800 -126 760 -126 q 883 -114 843 -126 q 954 -78 924 -101 l 1010 -246 q 896 -299 964 -279 q 756 -319 828 -319 q 556 -258 626 -319 q 486 -87 486 -197 l 486 -26 q 249 65 350 -6 q 94 246 149 135 q 39 497 39 357 q 108 777 39 657 q 304 963 178 897 q 597 1029 431 1029 q 892 963 765 1029 q 1088 777 1018 897 q 1157 497 1157 657 m 340 497 q 410 297 340 372 q 597 221 481 221 q 785 297 715 221 q 856 497 856 372 q 785 698 856 622 q 597 774 715 774 q 410 698 481 774 q 340 497 340 622 z "},"R":{"ha":1060,"x_min":74,"x_max":1050,"o":"m 826 -22 q 688 22 746 -22 q 606 146 629 67 l 571 261 q 534 328 558 303 q 474 353 510 353 l 375 353 l 375 0 l 74 0 l 74 994 l 590 994 q 884 910 779 994 q 989 675 989 826 q 931 506 989 578 q 768 404 874 435 l 768 403 q 826 364 806 390 q 860 296 847 338 l 885 210 q 906 174 892 188 q 939 160 919 160 q 971 168 954 160 q 1000 189 988 176 l 1050 53 q 951 -2 1010 18 q 826 -22 892 -22 m 546 547 q 650 578 611 547 q 689 663 689 610 q 650 748 689 717 q 546 779 611 779 l 375 779 l 375 547 l 546 547 z "},"S":{"ha":979,"x_min":32,"x_max":961,"o":"m 496 -35 q 174 49 299 -35 q 32 293 49 133 l 303 344 q 369 225 313 269 q 510 181 426 181 q 627 208 583 181 q 671 281 671 236 q 637 338 671 317 q 526 374 603 360 l 400 396 q 138 499 219 426 q 56 699 56 571 q 110 874 56 799 q 263 989 165 949 q 482 1029 360 1029 q 682 994 592 1029 q 829 892 772 958 q 897 740 886 826 l 631 682 q 581 778 624 743 q 476 814 539 814 q 384 789 418 814 q 350 722 350 764 q 381 665 350 686 q 482 633 413 644 l 611 614 q 877 514 793 588 q 961 310 961 440 q 902 124 961 201 q 738 6 843 46 q 496 -35 632 -35 z "},"T":{"ha":908,"x_min":24,"x_max":885,"o":"m 304 739 l 24 739 l 24 994 l 885 994 l 885 739 l 604 739 l 604 0 l 304 0 l 304 739 z "},"U":{"ha":1068,"x_min":64,"x_max":1004,"o":"m 535 -35 q 282 16 388 -35 q 120 163 176 67 q 64 390 64 258 l 64 994 l 365 994 l 365 400 q 411 270 365 319 q 535 221 457 221 q 658 269 613 221 q 703 401 703 318 l 703 994 l 1004 994 l 1004 390 q 948 163 1004 258 q 786 16 892 67 q 535 -35 681 -35 z "},"V":{"ha":1060,"x_min":4,"x_max":1056,"o":"m 4 994 l 315 994 l 529 254 l 532 254 l 743 994 l 1056 994 l 703 0 l 356 0 l 4 994 z "},"W":{"ha":1664,"x_min":4,"x_max":1660,"o":"m 4 994 l 307 994 l 475 279 l 478 279 l 651 994 l 1013 994 l 1190 279 l 1193 279 l 1357 994 l 1660 994 l 1379 0 l 1000 0 l 835 704 l 832 704 l 664 0 l 285 0 l 4 994 z "},"X":{"ha":1093,"x_min":4,"x_max":1089,"o":"m 331 524 l 8 994 l 354 994 l 543 694 l 733 994 l 1085 994 l 754 524 l 1089 0 l 738 0 l 543 322 l 350 0 l 4 0 l 331 524 z "},"Y":{"ha":990,"x_min":4,"x_max":986,"o":"m 349 339 l 4 994 l 318 994 l 499 597 l 501 597 l 668 994 l 986 994 l 650 339 l 650 0 l 349 0 l 349 339 z "},"Z":{"ha":907,"x_min":44,"x_max":863,"o":"m 44 260 l 514 761 l 58 761 l 58 994 l 849 994 l 849 729 l 379 233 l 863 233 l 863 0 l 44 0 l 44 260 z "},"a":{"ha":908,"x_min":18,"x_max":908,"o":"m 264 -18 q 87 38 156 -18 q 18 183 18 93 q 101 342 18 279 q 333 419 183 404 l 453 431 q 493 448 478 433 q 508 483 508 463 q 484 536 508 515 q 419 557 460 557 q 342 526 372 557 q 306 446 313 494 l 43 478 q 95 617 49 557 q 223 711 142 678 q 410 744 304 744 q 674 664 578 744 q 771 443 771 583 l 771 207 q 780 169 771 183 q 806 156 789 156 q 833 163 818 156 q 860 182 849 171 l 908 46 q 816 -1 871 15 q 706 -18 761 -18 q 581 18 635 -18 q 518 104 528 54 l 514 121 l 513 121 q 413 20 479 58 q 264 -18 347 -18 m 378 157 q 469 193 433 157 q 504 283 504 229 l 504 301 l 407 292 q 315 267 344 286 q 286 219 286 249 q 312 174 286 192 q 378 157 338 157 z "},"b":{"ha":874,"x_min":49,"x_max":847,"o":"m 549 -18 q 409 22 468 -18 q 315 140 350 61 l 314 140 l 271 0 l 49 0 l 49 1036 l 317 1036 l 317 575 l 318 575 q 411 694 353 654 q 549 735 469 735 q 704 688 636 735 q 810 556 772 642 q 847 358 847 471 q 810 160 847 246 q 704 28 772 75 q 549 -18 636 -18 m 442 206 q 540 249 501 206 q 579 358 579 292 q 540 468 579 425 q 442 511 501 511 q 344 467 382 511 q 306 358 306 424 q 344 249 306 293 q 442 206 383 206 z "},"c":{"ha":824,"x_min":26,"x_max":801,"o":"m 417 -28 q 213 21 301 -28 q 75 157 124 69 q 26 358 26 244 q 74 560 26 472 q 208 696 122 647 q 408 744 294 744 q 580 710 503 744 q 707 613 657 676 q 769 468 757 550 l 529 404 q 492 499 524 467 q 417 532 461 532 q 328 484 363 532 q 293 358 293 436 q 332 233 294 282 q 428 185 369 185 q 515 224 479 185 q 556 328 550 264 l 801 296 q 743 126 794 200 q 607 13 692 53 q 417 -28 522 -28 z "},"d":{"ha":874,"x_min":26,"x_max":824,"o":"m 325 -18 q 169 28 238 -18 q 64 160 101 75 q 26 358 26 246 q 64 556 26 471 q 169 688 101 642 q 325 735 236 735 q 463 694 403 735 q 556 575 522 654 l 557 575 l 557 1036 l 824 1036 l 824 0 l 603 0 l 558 140 l 557 140 q 465 22 524 63 q 325 -18 406 -18 m 431 206 q 529 249 490 206 q 568 358 568 293 q 529 468 568 425 q 431 511 490 511 q 332 467 371 511 q 293 358 293 424 q 332 249 293 293 q 431 206 371 206 z "},"e":{"ha":842,"x_min":26,"x_max":818,"o":"m 471 -28 q 239 22 340 -28 q 82 160 138 71 q 26 364 26 249 q 76 563 26 476 q 216 697 126 649 q 424 744 306 744 q 624 700 538 744 q 758 575 711 656 q 806 389 806 494 q 792 286 806 332 l 301 286 q 359 194 310 228 q 483 160 408 160 q 594 181 540 160 q 681 239 649 203 l 818 117 q 678 12 772 51 q 471 -28 583 -28 m 536 426 q 503 526 533 490 q 424 563 472 563 q 340 525 374 563 q 299 426 306 488 l 536 426 z "},"f":{"ha":682,"x_min":10,"x_max":682,"o":"m 132 518 l 10 518 l 10 717 l 132 717 l 132 771 q 213 985 132 907 q 432 1064 293 1064 q 569 1038 503 1064 q 682 969 635 1013 l 624 792 q 563 836 597 819 q 494 853 528 853 q 426 826 451 853 q 400 754 400 800 l 400 717 l 633 717 l 633 518 l 400 518 l 400 0 l 133 0 l 132 518 z "},"g":{"ha":868,"x_min":6,"x_max":819,"o":"m 364 -319 q 165 -291 261 -319 q 6 -215 68 -262 l 78 -11 q 198 -76 126 -51 q 338 -101 269 -101 q 493 -51 435 -101 q 551 86 551 0 l 551 129 l 550 129 q 454 42 517 75 q 319 10 392 10 q 164 54 231 10 q 61 180 97 99 q 25 371 25 261 q 60 563 25 481 q 160 689 96 644 q 310 733 224 733 q 455 690 389 733 q 551 575 521 647 l 553 575 l 597 717 l 819 717 l 819 76 q 763 -133 819 -43 q 604 -271 707 -222 q 364 -319 501 -319 m 428 222 q 526 263 489 222 q 564 371 564 304 q 526 480 564 438 q 428 522 489 522 q 330 481 367 522 q 293 371 293 440 q 330 263 293 303 q 428 222 367 222 z "},"h":{"ha":829,"x_min":49,"x_max":782,"o":"m 49 1036 l 317 1036 l 317 578 l 318 578 q 417 694 356 653 q 560 735 479 735 q 723 674 664 735 q 782 507 782 614 l 782 0 l 514 0 l 514 417 q 491 487 514 461 q 428 513 468 513 q 347 479 378 513 q 317 390 317 446 l 317 0 l 49 0 l 49 1036 z "},"i":{"ha":372,"x_min":35,"x_max":338,"o":"m 186 793 q 76 833 118 793 q 35 939 35 874 q 76 1044 35 1004 q 186 1083 118 1083 q 296 1044 254 1083 q 338 939 338 1004 q 296 833 338 874 q 186 793 254 793 m 51 717 l 319 717 l 319 0 l 51 0 l 51 717 z "},"j":{"ha":374,"x_min":-153,"x_max":338,"o":"m 188 793 q 78 833 119 793 q 36 939 36 874 q 78 1044 36 1004 q 188 1083 119 1083 q 297 1044 256 1083 q 338 939 338 1004 q 297 833 338 874 q 188 793 256 793 m 42 -319 q -153 -293 -76 -319 l -126 -111 q -43 -124 -85 -124 q 28 -94 3 -124 q 53 -12 53 -65 l 53 717 l 321 717 l 321 -56 q 247 -249 321 -179 q 42 -319 174 -319 z "},"k":{"ha":833,"x_min":49,"x_max":833,"o":"m 49 1036 l 317 1036 l 317 490 l 318 490 l 522 717 l 825 717 l 558 444 l 833 0 l 543 0 l 385 288 l 317 217 l 317 0 l 49 0 l 49 1036 z "},"l":{"ha":365,"x_min":49,"x_max":317,"o":"m 49 1036 l 317 1036 l 317 0 l 49 0 l 49 1036 z "},"m":{"ha":1274,"x_min":49,"x_max":1226,"o":"m 49 717 l 261 717 l 304 576 l 306 576 q 399 692 333 650 q 546 735 464 735 q 758 575 713 735 l 760 575 q 863 694 797 653 q 1011 735 928 735 q 1169 667 1113 735 q 1226 482 1226 600 l 1226 0 l 958 0 l 958 415 q 935 485 958 460 q 872 511 913 511 q 798 478 825 511 q 771 389 771 444 l 771 0 l 504 0 l 504 415 q 481 485 504 460 q 417 511 458 511 q 343 478 369 511 q 317 389 317 444 l 317 0 l 49 0 l 49 717 z "},"n":{"ha":829,"x_min":49,"x_max":782,"o":"m 560 735 q 723 674 664 735 q 782 507 782 614 l 782 0 l 514 0 l 514 417 q 491 487 514 461 q 428 513 468 513 q 347 479 378 513 q 317 390 317 446 l 317 0 l 49 0 l 49 717 l 272 717 l 315 578 l 317 578 q 417 694 354 653 q 560 735 479 735 z "},"o":{"ha":865,"x_min":26,"x_max":839,"o":"m 433 -28 q 219 20 311 -28 q 77 156 128 68 q 26 358 26 243 q 77 561 26 474 q 219 697 128 649 q 433 744 311 744 q 647 697 554 744 q 789 561 739 649 q 839 358 839 474 q 789 156 839 243 q 647 20 739 68 q 433 -28 554 -28 m 433 190 q 538 235 500 190 q 576 358 576 281 q 538 481 576 436 q 433 526 500 526 q 328 481 367 526 q 289 358 289 436 q 328 235 289 281 q 433 190 367 190 z "},"p":{"ha":874,"x_min":49,"x_max":847,"o":"m 49 717 l 271 717 l 314 578 l 315 578 q 409 695 350 656 q 549 735 468 735 q 704 688 636 735 q 810 556 772 642 q 847 358 847 471 q 810 160 847 246 q 704 28 772 75 q 549 -18 636 -18 q 411 22 469 -18 q 318 142 353 63 l 317 142 l 317 -292 l 49 -292 l 49 717 m 442 206 q 540 249 501 206 q 579 358 579 293 q 540 468 579 425 q 442 511 501 511 q 344 467 382 511 q 306 358 306 424 q 344 249 306 293 q 442 206 383 206 z "},"q":{"ha":874,"x_min":26,"x_max":824,"o":"m 557 142 l 556 142 q 463 22 522 63 q 325 -18 403 -18 q 169 28 236 -18 q 64 160 101 75 q 26 358 26 246 q 64 556 26 471 q 169 688 101 642 q 325 735 238 735 q 465 695 406 735 q 557 578 524 656 l 558 578 l 603 717 l 824 717 l 824 -292 l 557 -292 l 557 142 m 431 206 q 529 249 490 206 q 568 358 568 293 q 529 468 568 425 q 431 511 490 511 q 332 467 371 511 q 293 358 293 424 q 332 249 293 293 q 431 206 371 206 z "},"r":{"ha":750,"x_min":49,"x_max":733,"o":"m 503 735 q 660 665 599 735 q 733 472 721 596 l 508 414 q 481 508 506 474 q 417 542 457 542 q 343 501 369 542 q 317 385 317 460 l 317 0 l 49 0 l 49 717 l 260 717 l 303 599 l 304 599 q 385 699 333 663 q 503 735 438 735 z "},"s":{"ha":776,"x_min":22,"x_max":754,"o":"m 383 -22 q 128 42 226 -22 q 22 228 29 107 l 251 247 q 299 172 257 200 q 401 144 340 144 q 484 162 450 144 q 518 206 518 179 q 488 248 518 232 q 389 274 457 264 l 285 288 q 107 353 163 304 q 51 494 51 401 q 142 676 53 611 q 382 740 232 740 q 544 713 471 740 q 661 635 617 685 q 711 521 706 585 l 490 493 q 455 556 488 533 q 372 579 422 579 q 304 563 332 579 q 275 522 276 547 q 301 488 275 501 q 386 464 328 475 l 488 449 q 691 373 628 426 q 754 225 754 319 q 653 44 754 111 q 383 -22 551 -22 z "},"t":{"ha":725,"x_min":11,"x_max":704,"o":"m 439 -28 q 215 49 297 -28 q 133 258 133 126 l 133 518 l 11 518 l 11 717 l 133 717 l 133 906 l 401 964 l 400 717 l 669 717 l 669 518 l 400 518 l 401 304 q 431 216 401 249 q 506 183 461 183 q 581 200 549 183 q 647 253 614 217 l 704 72 q 585 -1 657 26 q 439 -28 513 -28 z "},"u":{"ha":829,"x_min":47,"x_max":781,"o":"m 269 -18 q 106 42 165 -18 q 47 210 47 103 l 47 717 l 315 717 l 315 300 q 338 230 315 256 q 401 204 361 204 q 482 238 451 204 q 513 326 513 271 l 513 717 l 781 717 l 781 0 l 557 0 l 514 139 l 513 139 q 413 23 475 64 q 269 -18 350 -18 z "},"v":{"ha":867,"x_min":4,"x_max":863,"o":"m 4 717 l 278 717 l 432 217 l 435 217 l 589 717 l 863 717 l 593 0 l 269 0 l 4 717 z "},"w":{"ha":1308,"x_min":4,"x_max":1304,"o":"m 4 717 l 271 717 l 381 239 l 382 239 l 538 717 l 771 717 l 926 232 l 928 232 l 1038 717 l 1304 717 l 1093 0 l 797 0 l 656 446 l 653 446 l 513 0 l 215 0 l 4 717 z "},"x":{"ha":892,"x_min":4,"x_max":888,"o":"m 257 372 l 14 717 l 321 717 l 446 507 l 571 717 l 878 717 l 635 372 l 888 0 l 574 0 l 446 211 l 317 0 l 4 0 l 257 372 z "},"y":{"ha":832,"x_min":-15,"x_max":783,"o":"m 335 -319 q 138 -291 232 -319 q -15 -215 43 -262 l 58 -14 q 175 -78 107 -54 q 310 -101 243 -101 q 460 -53 404 -101 q 517 75 517 -6 l 517 133 l 515 133 q 425 24 483 64 q 294 -15 367 -15 q 115 56 181 -15 q 50 250 50 128 l 50 717 l 318 717 l 318 307 q 342 228 318 257 q 408 199 367 199 q 485 231 456 199 q 515 315 515 263 l 515 717 l 783 717 l 783 65 q 728 -138 783 -51 q 571 -272 672 -225 q 335 -319 469 -319 z "},"z":{"ha":744,"x_min":33,"x_max":711,"o":"m 33 219 l 386 525 l 47 525 l 47 717 l 697 717 l 697 499 l 344 193 l 711 193 l 711 0 l 33 0 l 33 219 z "},"À":{"ha":1069,"x_min":4,"x_max":1065,"o":"m 350 994 l 719 994 l 1065 0 l 750 0 l 700 174 l 368 174 l 317 0 l 4 0 l 350 994 m 651 378 l 536 767 l 533 767 l 417 378 l 651 378 m 401 1256 l 444 1290 l 576 1117 l 533 1082 l 401 1256 z "},"à":{"ha":908,"x_min":18,"x_max":908,"o":"m 264 -18 q 87 38 156 -18 q 18 183 18 93 q 101 342 18 279 q 333 419 183 404 l 453 431 q 493 448 478 433 q 508 483 508 463 q 484 536 508 515 q 419 557 460 557 q 342 526 372 557 q 306 446 313 494 l 43 478 q 95 617 49 557 q 223 711 142 678 q 410 744 304 744 q 674 664 578 744 q 771 443 771 583 l 771 207 q 780 169 771 183 q 806 156 789 156 q 833 163 818 156 q 860 182 849 171 l 908 46 q 816 -1 871 15 q 706 -18 761 -18 q 581 18 635 -18 q 518 104 528 54 l 514 121 l 513 121 q 413 20 479 58 q 264 -18 347 -18 m 378 157 q 469 193 433 157 q 504 283 504 229 l 504 301 l 407 292 q 315 267 344 286 q 286 219 286 249 q 312 174 286 192 q 378 157 338 157 m 253 1035 l 297 1069 l 457 868 l 414 833 l 253 1035 z "},"Á":{"ha":1069,"x_min":4,"x_max":1065,"o":"m 350 994 l 719 994 l 1065 0 l 750 0 l 700 174 l 368 174 l 317 0 l 4 0 l 350 994 m 651 378 l 536 767 l 533 767 l 417 378 l 651 378 m 508 1117 l 640 1290 l 683 1256 l 550 1082 l 508 1117 z "},"á":{"ha":908,"x_min":18,"x_max":908,"o":"m 264 -18 q 87 38 156 -18 q 18 183 18 93 q 101 342 18 279 q 333 419 183 404 l 453 431 q 493 448 478 433 q 508 483 508 463 q 484 536 508 515 q 419 557 460 557 q 342 526 372 557 q 306 446 313 494 l 43 478 q 95 617 49 557 q 223 711 142 678 q 410 744 304 744 q 674 664 578 744 q 771 443 771 583 l 771 207 q 780 169 771 183 q 806 156 789 156 q 833 163 818 156 q 860 182 849 171 l 908 46 q 816 -1 871 15 q 706 -18 761 -18 q 581 18 635 -18 q 518 104 528 54 l 514 121 l 513 121 q 413 20 479 58 q 264 -18 347 -18 m 378 157 q 469 193 433 157 q 504 283 504 229 l 504 301 l 407 292 q 315 267 344 286 q 286 219 286 249 q 312 174 286 192 q 378 157 338 157 m 386 868 l 546 1069 l 589 1035 l 429 833 l 386 868 z "},"Ã":{"ha":1069,"x_min":4,"x_max":1065,"o":"m 350 994 l 719 994 l 1065 0 l 750 0 l 700 174 l 368 174 l 317 0 l 4 0 l 350 994 m 651 378 l 536 767 l 533 767 l 417 378 l 651 378 m 642 1083 q 576 1103 603 1083 q 513 1164 549 1124 q 466 1212 483 1197 q 425 1226 449 1226 q 369 1190 390 1226 q 347 1097 347 1154 l 292 1097 q 329 1230 292 1178 q 426 1282 367 1282 q 478 1270 456 1282 q 515 1244 501 1258 q 558 1197 529 1231 q 600 1153 582 1168 q 640 1139 618 1139 q 698 1176 675 1139 q 721 1269 721 1213 l 778 1269 q 740 1136 778 1189 q 642 1083 701 1083 z "},"ã":{"ha":908,"x_min":18,"x_max":908,"o":"m 264 -18 q 87 38 156 -18 q 18 183 18 93 q 101 342 18 279 q 333 419 183 404 l 453 431 q 493 448 478 433 q 508 483 508 463 q 484 536 508 515 q 419 557 460 557 q 342 526 372 557 q 306 446 313 494 l 43 478 q 95 617 49 557 q 223 711 142 678 q 410 744 304 744 q 674 664 578 744 q 771 443 771 583 l 771 207 q 780 169 771 183 q 806 156 789 156 q 833 163 818 156 q 860 182 849 171 l 908 46 q 816 -1 871 15 q 706 -18 761 -18 q 581 18 635 -18 q 518 104 528 54 l 514 121 l 513 121 q 413 20 479 58 q 264 -18 347 -18 m 378 157 q 469 193 433 157 q 504 283 504 229 l 504 301 l 407 292 q 315 267 344 286 q 286 219 286 249 q 312 174 286 192 q 378 157 338 157 m 518 819 q 454 839 482 819 q 396 893 426 858 q 346 946 365 929 q 301 963 326 963 q 245 926 267 963 q 224 833 224 890 l 168 833 q 206 966 168 914 q 303 1018 243 1018 q 367 999 340 1018 q 424 946 394 981 q 448 919 429 940 q 484 886 467 897 q 518 875 501 875 q 576 912 553 875 q 599 1006 599 949 l 654 1006 q 616 872 654 925 q 518 819 578 819 z "},"Ä":{"ha":1069,"x_min":4,"x_max":1065,"o":"m 350 994 l 719 994 l 1065 0 l 750 0 l 700 174 l 368 174 l 317 0 l 4 0 l 350 994 m 651 378 l 536 767 l 533 767 l 417 378 l 651 378 m 349 1081 q 255 1117 292 1081 q 218 1211 218 1154 q 255 1303 218 1267 q 349 1340 292 1340 q 442 1303 406 1340 q 479 1211 479 1267 q 442 1117 479 1154 q 349 1081 406 1081 m 719 1081 q 626 1117 663 1081 q 590 1211 590 1154 q 627 1304 590 1268 q 719 1340 664 1340 q 813 1304 776 1340 q 850 1211 850 1268 q 813 1117 850 1154 q 719 1081 776 1081 z "},"ä":{"ha":908,"x_min":18,"x_max":908,"o":"m 264 -18 q 87 38 156 -18 q 18 183 18 93 q 101 342 18 279 q 333 419 183 404 l 453 431 q 493 448 478 433 q 508 483 508 463 q 484 536 508 515 q 419 557 460 557 q 342 526 372 557 q 306 446 313 494 l 43 478 q 95 617 49 557 q 223 711 142 678 q 410 744 304 744 q 674 664 578 744 q 771 443 771 583 l 771 207 q 780 169 771 183 q 806 156 789 156 q 833 163 818 156 q 860 182 849 171 l 908 46 q 816 -1 871 15 q 706 -18 761 -18 q 581 18 635 -18 q 518 104 528 54 l 514 121 l 513 121 q 413 20 479 58 q 264 -18 347 -18 m 378 157 q 469 193 433 157 q 504 283 504 229 l 504 301 l 407 292 q 315 267 344 286 q 286 219 286 249 q 312 174 286 192 q 378 157 338 157 m 229 814 q 135 849 172 814 q 99 939 99 885 q 135 1028 99 993 q 229 1064 172 1064 q 323 1028 286 1064 q 360 939 360 993 q 323 849 360 885 q 229 814 286 814 m 601 814 q 508 849 544 814 q 471 939 471 885 q 508 1028 471 993 q 601 1064 544 1064 q 695 1028 658 1064 q 732 939 732 993 q 695 849 732 885 q 601 814 658 814 z "},"Å":{"ha":1069,"x_min":4,"x_max":1065,"o":"m 350 994 l 719 994 l 1065 0 l 750 0 l 700 174 l 368 174 l 317 0 l 4 0 l 350 994 m 651 378 l 536 767 l 533 767 l 417 378 l 651 378 m 533 1083 q 439 1121 476 1083 q 401 1215 401 1158 q 439 1310 401 1272 q 533 1347 476 1347 q 628 1310 590 1347 q 665 1215 665 1272 q 628 1121 665 1158 q 533 1083 590 1083 m 532 1139 q 587 1160 565 1139 q 608 1215 608 1182 q 587 1270 608 1249 q 532 1292 565 1292 q 477 1270 499 1292 q 456 1215 456 1249 q 477 1160 456 1182 q 532 1139 499 1139 z "},"å":{"ha":908,"x_min":18,"x_max":908,"o":"m 264 -18 q 87 38 156 -18 q 18 183 18 93 q 101 342 18 279 q 333 419 183 404 l 453 431 q 493 448 478 433 q 508 483 508 463 q 484 536 508 515 q 419 557 460 557 q 342 526 372 557 q 306 446 313 494 l 43 478 q 95 617 49 557 q 223 711 142 678 q 410 744 304 744 q 674 664 578 744 q 771 443 771 583 l 771 207 q 780 169 771 183 q 806 156 789 156 q 833 163 818 156 q 860 182 849 171 l 908 46 q 816 -1 871 15 q 706 -18 761 -18 q 581 18 635 -18 q 518 104 528 54 l 514 121 l 513 121 q 413 20 479 58 q 264 -18 347 -18 m 378 157 q 469 193 433 157 q 504 283 504 229 l 504 301 l 407 292 q 315 267 344 286 q 286 219 286 249 q 312 174 286 192 q 378 157 338 157 m 415 819 q 321 857 358 819 q 283 951 283 894 q 321 1046 283 1008 q 415 1083 358 1083 q 510 1046 472 1083 q 547 951 547 1008 q 510 857 547 894 q 415 819 474 819 m 414 875 q 469 897 449 875 q 490 951 490 918 q 469 1006 490 985 q 414 1028 449 1028 q 360 1006 382 1028 q 338 951 338 985 q 360 897 338 918 q 414 875 382 875 z "},"Ā":{"ha":1069,"x_min":4,"x_max":1065,"o":"m 350 994 l 719 994 l 1065 0 l 750 0 l 700 174 l 368 174 l 317 0 l 4 0 l 350 994 m 651 378 l 536 767 l 533 767 l 417 378 l 651 378 m 308 1157 l 760 1157 l 760 1101 l 308 1101 l 308 1157 z "},"ā":{"ha":908,"x_min":18,"x_max":908,"o":"m 264 -18 q 87 38 156 -18 q 18 183 18 93 q 101 342 18 279 q 333 419 183 404 l 453 431 q 493 448 478 433 q 508 483 508 463 q 484 536 508 515 q 419 557 460 557 q 342 526 372 557 q 306 446 313 494 l 43 478 q 95 617 49 557 q 223 711 142 678 q 410 744 304 744 q 674 664 578 744 q 771 443 771 583 l 771 207 q 780 169 771 183 q 806 156 789 156 q 833 163 818 156 q 860 182 849 171 l 908 46 q 816 -1 871 15 q 706 -18 761 -18 q 581 18 635 -18 q 518 104 528 54 l 514 121 l 513 121 q 413 20 479 58 q 264 -18 347 -18 m 378 157 q 469 193 433 157 q 504 283 504 229 l 504 301 l 407 292 q 315 267 344 286 q 286 219 286 249 q 312 174 286 192 q 378 157 338 157 m 189 879 l 640 879 l 640 824 l 189 824 l 189 879 z "},"Ă":{"ha":1069,"x_min":4,"x_max":1065,"o":"m 350 994 l 719 994 l 1065 0 l 750 0 l 700 174 l 368 174 l 317 0 l 4 0 l 350 994 m 651 378 l 536 767 l 533 767 l 417 378 l 651 378 m 533 1097 q 394 1148 449 1097 q 339 1278 339 1199 l 396 1278 q 435 1188 396 1224 q 533 1153 474 1153 q 634 1188 594 1153 q 674 1278 674 1224 l 728 1278 q 673 1149 728 1200 q 533 1097 618 1097 z "},"ă":{"ha":908,"x_min":18,"x_max":908,"o":"m 264 -18 q 87 38 156 -18 q 18 183 18 93 q 101 342 18 279 q 333 419 183 404 l 453 431 q 493 448 478 433 q 508 483 508 463 q 484 536 508 515 q 419 557 460 557 q 342 526 372 557 q 306 446 313 494 l 43 478 q 95 617 49 557 q 223 711 142 678 q 410 744 304 744 q 674 664 578 744 q 771 443 771 583 l 771 207 q 780 169 771 183 q 806 156 789 156 q 833 163 818 156 q 860 182 849 171 l 908 46 q 816 -1 871 15 q 706 -18 761 -18 q 581 18 635 -18 q 518 104 528 54 l 514 121 l 513 121 q 413 20 479 58 q 264 -18 347 -18 m 378 157 q 469 193 433 157 q 504 283 504 229 l 504 301 l 407 292 q 315 267 344 286 q 286 219 286 249 q 312 174 286 192 q 378 157 338 157 m 415 819 q 294 848 347 819 q 210 927 240 876 q 179 1042 179 978 l 236 1042 q 286 922 236 969 q 414 875 336 875 q 545 922 493 875 q 597 1042 597 969 l 651 1042 q 621 927 651 978 q 537 848 590 876 q 415 819 483 819 z "},"Ą":{"ha":1069,"x_min":4,"x_max":1065,"o":"m 1008 0 q 833 -77 886 -43 q 779 -165 779 -111 q 798 -212 779 -194 q 847 -229 817 -229 q 895 -215 869 -229 q 943 -179 921 -201 l 982 -215 q 917 -266 956 -247 q 844 -285 879 -285 q 756 -253 789 -285 q 722 -171 722 -222 q 760 -75 722 -115 q 871 0 797 -35 l 750 0 l 700 174 l 368 174 l 317 0 l 4 0 l 350 994 l 719 994 l 1065 0 l 1008 0 m 651 378 l 536 767 l 533 767 l 417 378 l 651 378 z "},"ą":{"ha":908,"x_min":18,"x_max":908,"o":"m 654 -229 q 702 -215 676 -229 q 750 -179 728 -201 l 789 -215 q 724 -266 763 -247 q 651 -285 686 -285 q 563 -253 596 -285 q 529 -171 529 -222 q 560 -83 529 -121 q 651 -12 592 -44 q 562 32 599 0 q 518 104 525 64 l 514 121 l 513 121 q 413 20 479 58 q 264 -18 347 -18 q 87 38 156 -18 q 18 183 18 93 q 101 342 18 279 q 333 419 183 404 l 453 431 q 493 448 478 433 q 508 483 508 463 q 484 536 508 515 q 419 557 460 557 q 342 526 372 557 q 306 446 313 494 l 43 478 q 95 617 49 557 q 223 711 142 678 q 410 744 304 744 q 674 664 578 744 q 771 443 771 583 l 771 207 q 780 169 771 183 q 806 156 789 156 q 833 163 818 156 q 860 182 849 171 l 908 46 q 793 -8 868 11 q 635 -80 685 -46 q 586 -165 586 -114 q 605 -212 586 -194 q 654 -229 624 -229 m 504 301 l 407 292 q 315 267 344 286 q 286 219 286 249 q 312 174 286 192 q 378 157 338 157 q 469 193 433 157 q 504 283 504 229 l 504 301 z "},"Â":{"ha":1069,"x_min":4,"x_max":1065,"o":"m 350 994 l 719 994 l 1065 0 l 750 0 l 700 174 l 368 174 l 317 0 l 4 0 l 350 994 m 651 378 l 536 767 l 533 767 l 417 378 l 651 378 m 322 1125 l 499 1278 l 574 1278 l 750 1125 l 714 1083 l 535 1236 l 360 1083 l 322 1125 z "},"â":{"ha":908,"x_min":18,"x_max":908,"o":"m 264 -18 q 87 38 156 -18 q 18 183 18 93 q 101 342 18 279 q 333 419 183 404 l 453 431 q 493 448 478 433 q 508 483 508 463 q 484 536 508 515 q 419 557 460 557 q 342 526 372 557 q 306 446 313 494 l 43 478 q 95 617 49 557 q 223 711 142 678 q 410 744 304 744 q 674 664 578 744 q 771 443 771 583 l 771 207 q 780 169 771 183 q 806 156 789 156 q 833 163 818 156 q 860 182 849 171 l 908 46 q 816 -1 871 15 q 706 -18 761 -18 q 581 18 635 -18 q 518 104 528 54 l 514 121 l 513 121 q 413 20 479 58 q 264 -18 347 -18 m 378 157 q 469 193 433 157 q 504 283 504 229 l 504 301 l 407 292 q 315 267 344 286 q 286 219 286 249 q 312 174 286 192 q 378 157 338 157 m 172 861 l 379 1042 l 454 1042 l 661 861 l 625 819 l 417 1000 l 210 819 l 172 861 z "},"Æ":{"ha":1408,"x_min":0,"x_max":1378,"o":"m 488 994 l 1364 994 l 1364 758 l 1000 758 l 1000 606 l 1308 606 l 1308 403 l 1000 403 l 1000 236 l 1378 236 l 1378 0 l 708 0 l 708 143 l 401 143 l 333 0 l 0 0 l 488 994 m 710 346 l 710 804 l 708 804 l 488 346 l 710 346 z "},"æ":{"ha":1269,"x_min":18,"x_max":1246,"o":"m 328 -28 q 101 31 185 -28 q 18 190 18 90 q 101 340 18 279 q 329 414 183 400 l 454 428 q 507 479 507 432 q 483 536 507 515 q 421 557 460 557 q 345 526 375 557 q 308 446 315 496 l 47 478 q 145 672 56 599 q 376 744 235 744 q 525 715 457 744 q 632 632 593 685 q 737 715 669 685 q 883 744 804 744 q 1140 649 1046 744 q 1233 389 1233 553 q 1219 286 1233 332 l 747 286 q 804 194 757 228 q 922 160 851 160 q 1026 181 978 160 q 1107 239 1075 203 l 1246 117 q 1113 10 1197 49 q 922 -28 1028 -28 q 746 11 825 -28 q 629 117 667 50 q 508 11 589 50 q 328 -28 428 -28 m 964 426 q 934 525 963 488 q 860 563 906 563 q 783 525 814 563 q 746 426 753 488 l 964 426 m 378 157 q 469 193 433 157 q 504 283 504 229 l 504 300 l 400 289 q 315 265 344 283 q 286 218 286 246 q 313 174 286 192 q 378 157 339 157 z "},"Ǽ":{"ha":1408,"x_min":0,"x_max":1378,"o":"m 488 994 l 1364 994 l 1364 758 l 1000 758 l 1000 606 l 1308 606 l 1308 403 l 1000 403 l 1000 236 l 1378 236 l 1378 0 l 708 0 l 708 143 l 401 143 l 333 0 l 0 0 l 488 994 m 710 346 l 710 804 l 708 804 l 488 346 l 710 346 m 686 1117 l 818 1290 l 861 1256 l 728 1082 l 686 1117 z "},"ǽ":{"ha":1269,"x_min":18,"x_max":1246,"o":"m 328 -28 q 101 31 185 -28 q 18 190 18 90 q 101 340 18 279 q 329 414 183 400 l 454 428 q 507 479 507 432 q 483 536 507 515 q 421 557 460 557 q 345 526 375 557 q 308 446 315 496 l 47 478 q 145 672 56 599 q 376 744 235 744 q 525 715 457 744 q 632 632 593 685 q 737 715 669 685 q 883 744 804 744 q 1140 649 1046 744 q 1233 389 1233 553 q 1219 286 1233 332 l 747 286 q 804 194 757 228 q 922 160 851 160 q 1026 181 978 160 q 1107 239 1075 203 l 1246 117 q 1113 10 1197 49 q 922 -28 1028 -28 q 746 11 825 -28 q 629 117 667 50 q 508 11 589 50 q 328 -28 428 -28 m 964 426 q 934 525 963 488 q 860 563 906 563 q 783 525 814 563 q 746 426 753 488 l 964 426 m 378 157 q 469 193 433 157 q 504 283 504 229 l 504 300 l 400 289 q 315 265 344 283 q 286 218 286 246 q 313 174 286 192 q 378 157 339 157 m 606 868 l 765 1069 l 808 1035 l 649 833 l 606 868 z "},"Ć":{"ha":1136,"x_min":39,"x_max":1113,"o":"m 583 -35 q 295 31 418 -35 q 106 216 172 96 q 39 497 39 336 q 102 778 39 658 q 283 964 165 899 q 558 1029 401 1029 q 790 983 688 1029 q 956 853 892 938 q 1035 654 1019 768 l 761 585 q 693 724 744 674 q 560 774 642 774 q 399 699 458 774 q 340 497 340 625 q 407 296 340 371 q 588 221 474 221 q 751 282 683 221 q 833 444 818 343 l 1113 410 q 1031 174 1100 275 q 846 19 961 74 q 583 -35 731 -35 m 532 1117 l 664 1290 l 707 1256 l 574 1082 l 532 1117 z "},"ć":{"ha":824,"x_min":26,"x_max":801,"o":"m 417 -28 q 213 21 301 -28 q 75 157 124 69 q 26 358 26 244 q 74 560 26 472 q 208 696 122 647 q 408 744 294 744 q 580 710 503 744 q 707 613 657 676 q 769 468 757 550 l 529 404 q 492 499 524 467 q 417 532 461 532 q 328 484 363 532 q 293 358 293 436 q 332 233 294 282 q 428 185 369 185 q 515 224 479 185 q 556 328 550 264 l 801 296 q 743 126 794 200 q 607 13 692 53 q 417 -28 522 -28 m 379 868 l 539 1069 l 582 1035 l 422 833 l 379 868 z "},"Ċ":{"ha":1136,"x_min":39,"x_max":1113,"o":"m 583 -35 q 295 31 418 -35 q 106 216 172 96 q 39 497 39 336 q 102 778 39 658 q 283 964 165 899 q 558 1029 401 1029 q 790 983 688 1029 q 956 853 892 938 q 1035 654 1019 768 l 761 585 q 693 724 744 674 q 560 774 642 774 q 399 699 458 774 q 340 497 340 625 q 407 296 340 371 q 588 221 474 221 q 751 282 683 221 q 833 444 818 343 l 1113 410 q 1031 174 1100 275 q 846 19 961 74 q 583 -35 731 -35 m 557 1081 q 456 1119 496 1081 q 417 1215 417 1157 q 456 1313 417 1275 q 557 1351 496 1351 q 658 1313 618 1351 q 697 1215 697 1275 q 658 1119 697 1157 q 557 1081 618 1081 z "},"ċ":{"ha":824,"x_min":26,"x_max":801,"o":"m 417 -28 q 213 21 301 -28 q 75 157 124 69 q 26 358 26 244 q 74 560 26 472 q 208 696 122 647 q 408 744 294 744 q 580 710 503 744 q 707 613 657 676 q 769 468 757 550 l 529 404 q 492 499 524 467 q 417 532 461 532 q 328 484 363 532 q 293 358 293 436 q 332 233 294 282 q 428 185 369 185 q 515 224 479 185 q 556 328 550 264 l 801 296 q 743 126 794 200 q 607 13 692 53 q 417 -28 522 -28 m 408 814 q 308 851 347 814 q 268 949 268 889 q 308 1046 268 1008 q 408 1083 347 1083 q 509 1046 469 1083 q 549 949 549 1008 q 509 851 549 889 q 408 814 469 814 z "},"Č":{"ha":1136,"x_min":39,"x_max":1113,"o":"m 583 -35 q 295 31 418 -35 q 106 216 172 96 q 39 497 39 336 q 102 778 39 658 q 283 964 165 899 q 558 1029 401 1029 q 790 983 688 1029 q 956 853 892 938 q 1035 654 1019 768 l 761 585 q 693 724 744 674 q 560 774 642 774 q 399 699 458 774 q 340 497 340 625 q 407 296 340 371 q 588 221 474 221 q 751 282 683 221 q 833 444 818 343 l 1113 410 q 1031 174 1100 275 q 846 19 961 74 q 583 -35 731 -35 m 346 1250 l 383 1292 l 558 1139 l 738 1292 l 774 1250 l 597 1097 l 522 1097 l 346 1250 z "},"č":{"ha":824,"x_min":26,"x_max":801,"o":"m 417 -28 q 213 21 301 -28 q 75 157 124 69 q 26 358 26 244 q 74 560 26 472 q 208 696 122 647 q 408 744 294 744 q 580 710 503 744 q 707 613 657 676 q 769 468 757 550 l 529 404 q 492 499 524 467 q 417 532 461 532 q 328 484 363 532 q 293 358 293 436 q 332 233 294 282 q 428 185 369 185 q 515 224 479 185 q 556 328 550 264 l 801 296 q 743 126 794 200 q 607 13 692 53 q 417 -28 522 -28 m 164 1014 l 201 1056 l 408 875 l 617 1056 l 653 1014 l 446 833 l 371 833 l 164 1014 z "},"Ç":{"ha":1136,"x_min":39,"x_max":1113,"o":"m 1113 410 q 1034 179 1100 278 q 858 25 968 81 q 608 -35 749 -31 l 604 -67 q 701 -99 665 -71 q 738 -175 738 -126 q 703 -255 738 -225 q 611 -285 668 -285 q 535 -264 571 -285 q 481 -211 499 -243 l 524 -176 q 560 -215 535 -200 q 611 -229 585 -229 q 663 -215 643 -229 q 682 -178 682 -201 q 657 -135 682 -151 q 592 -118 632 -118 l 543 -118 l 553 -35 q 280 38 396 -29 q 101 223 164 106 q 39 497 39 340 q 102 778 39 658 q 283 964 165 899 q 558 1029 401 1029 q 790 983 688 1029 q 956 853 892 938 q 1035 654 1019 768 l 761 585 q 693 724 744 674 q 560 774 642 774 q 399 699 458 774 q 340 497 340 625 q 407 296 340 371 q 588 221 474 221 q 751 282 683 221 q 833 444 818 343 l 1113 410 z "},"ç":{"ha":824,"x_min":26,"x_max":801,"o":"m 801 296 q 748 134 794 206 q 623 21 701 63 q 446 -26 544 -21 l 442 -67 q 539 -99 503 -71 q 575 -175 575 -126 q 540 -255 575 -225 q 449 -285 506 -285 q 372 -264 408 -285 q 318 -211 336 -243 l 361 -176 q 397 -215 372 -200 q 449 -229 422 -229 q 500 -215 481 -229 q 519 -178 519 -201 q 494 -135 519 -151 q 429 -118 469 -118 l 381 -118 l 392 -28 q 200 28 283 -22 q 72 163 117 78 q 26 358 26 249 q 74 560 26 472 q 208 696 122 647 q 408 744 294 744 q 580 710 503 744 q 707 613 657 676 q 769 468 757 550 l 529 404 q 492 499 524 467 q 417 532 461 532 q 328 484 363 532 q 293 358 293 436 q 332 233 294 282 q 428 185 369 185 q 515 224 479 185 q 556 328 550 264 l 801 296 z "},"Ĉ":{"ha":1136,"x_min":39,"x_max":1113,"o":"m 583 -35 q 295 31 418 -35 q 106 216 172 96 q 39 497 39 336 q 102 778 39 658 q 283 964 165 899 q 558 1029 401 1029 q 790 983 688 1029 q 956 853 892 938 q 1035 654 1019 768 l 761 585 q 693 724 744 674 q 560 774 642 774 q 399 699 458 774 q 340 497 340 625 q 407 296 340 371 q 588 221 474 221 q 751 282 683 221 q 833 444 818 343 l 1113 410 q 1031 174 1100 275 q 846 19 961 74 q 583 -35 731 -35 m 346 1125 l 522 1278 l 597 1278 l 774 1125 l 738 1083 l 558 1236 l 383 1083 l 346 1125 z "},"ĉ":{"ha":824,"x_min":26,"x_max":801,"o":"m 417 -28 q 213 21 301 -28 q 75 157 124 69 q 26 358 26 244 q 74 560 26 472 q 208 696 122 647 q 408 744 294 744 q 580 710 503 744 q 707 613 657 676 q 769 468 757 550 l 529 404 q 492 499 524 467 q 417 532 461 532 q 328 484 363 532 q 293 358 293 436 q 332 233 294 282 q 428 185 369 185 q 515 224 479 185 q 556 328 550 264 l 801 296 q 743 126 794 200 q 607 13 692 53 q 417 -28 522 -28 m 165 861 l 372 1042 l 447 1042 l 654 861 l 618 819 l 410 1000 l 203 819 l 165 861 z "},"Ď":{"ha":1092,"x_min":74,"x_max":1053,"o":"m 74 994 l 508 994 q 912 866 771 994 q 1053 497 1053 738 q 912 128 1053 257 q 508 0 771 0 l 74 0 l 74 994 m 508 236 q 690 303 626 236 q 753 497 753 371 q 690 692 753 624 q 508 760 626 760 l 364 760 l 364 236 l 508 236 m 301 1250 l 339 1292 l 514 1139 l 693 1292 l 729 1250 l 553 1097 l 478 1097 l 301 1250 z "},"ď":{"ha":874,"x_min":26,"x_max":1147,"o":"m 325 -18 q 169 28 238 -18 q 64 160 101 75 q 26 358 26 246 q 64 556 26 471 q 169 688 101 642 q 325 735 236 735 q 463 694 403 735 q 556 575 522 654 l 557 575 l 557 1036 l 824 1036 l 824 0 l 603 0 l 558 140 l 557 140 q 465 22 524 63 q 325 -18 406 -18 m 431 206 q 529 249 490 206 q 568 358 568 293 q 529 468 568 425 q 431 511 490 511 q 332 467 371 511 q 293 358 293 424 q 332 249 293 293 q 431 206 371 206 z "},"Đ":{"ha":1139,"x_min":0,"x_max":1101,"o":"m 556 994 q 960 865 818 994 q 1101 497 1101 736 q 960 129 1101 258 q 556 0 818 0 l 121 0 l 121 529 l 0 529 l 0 585 l 121 585 l 121 994 l 556 994 m 556 236 q 737 303 674 236 q 800 497 800 371 q 737 692 800 624 q 556 760 674 760 l 413 760 l 413 585 l 586 585 l 586 529 l 413 529 l 413 236 l 556 236 z "},"đ":{"ha":874,"x_min":26,"x_max":919,"o":"m 919 835 l 824 835 l 824 0 l 603 0 l 558 140 l 557 140 q 465 22 524 63 q 325 -18 406 -18 q 169 28 238 -18 q 64 160 101 75 q 26 358 26 246 q 64 556 26 471 q 169 688 101 642 q 325 735 236 735 q 463 694 403 735 q 556 575 522 654 l 557 575 l 557 835 l 360 835 l 360 890 l 557 890 l 557 1036 l 824 1036 l 824 890 l 919 890 l 919 835 m 431 206 q 529 249 490 206 q 568 358 568 293 q 529 468 568 425 q 431 511 490 511 q 332 467 371 511 q 293 358 293 424 q 332 249 293 293 q 431 206 371 206 z "},"È":{"ha":826,"x_min":74,"x_max":796,"o":"m 74 994 l 782 994 l 782 760 l 363 760 l 363 608 l 726 608 l 726 404 l 363 404 l 363 236 l 796 236 l 796 0 l 74 0 l 74 994 m 300 1256 l 343 1290 l 475 1117 l 432 1082 l 300 1256 z "},"è":{"ha":842,"x_min":26,"x_max":818,"o":"m 471 -28 q 239 22 340 -28 q 82 160 138 71 q 26 364 26 249 q 76 563 26 476 q 216 697 126 649 q 424 744 306 744 q 624 700 538 744 q 758 575 711 656 q 806 389 806 494 q 792 286 806 332 l 301 286 q 359 194 310 228 q 483 160 408 160 q 594 181 540 160 q 681 239 649 203 l 818 117 q 678 12 772 51 q 471 -28 583 -28 m 536 426 q 503 526 533 490 q 424 563 472 563 q 340 525 374 563 q 299 426 306 488 l 536 426 m 265 1035 l 310 1069 l 469 868 l 426 833 l 265 1035 z "},"É":{"ha":826,"x_min":74,"x_max":796,"o":"m 74 994 l 782 994 l 782 760 l 363 760 l 363 608 l 726 608 l 726 404 l 363 404 l 363 236 l 796 236 l 796 0 l 74 0 l 74 994 m 407 1117 l 539 1290 l 582 1256 l 449 1082 l 407 1117 z "},"é":{"ha":842,"x_min":26,"x_max":818,"o":"m 471 -28 q 239 22 340 -28 q 82 160 138 71 q 26 364 26 249 q 76 563 26 476 q 216 697 126 649 q 424 744 306 744 q 624 700 538 744 q 758 575 711 656 q 806 389 806 494 q 792 286 806 332 l 301 286 q 359 194 310 228 q 483 160 408 160 q 594 181 540 160 q 681 239 649 203 l 818 117 q 678 12 772 51 q 471 -28 583 -28 m 536 426 q 503 526 533 490 q 424 563 472 563 q 340 525 374 563 q 299 426 306 488 l 536 426 m 399 868 l 558 1069 l 601 1035 l 442 833 l 399 868 z "},"Ě":{"ha":826,"x_min":74,"x_max":796,"o":"m 74 994 l 782 994 l 782 760 l 363 760 l 363 608 l 726 608 l 726 404 l 363 404 l 363 236 l 796 236 l 796 0 l 74 0 l 74 994 m 221 1250 l 258 1292 l 433 1139 l 613 1292 l 649 1250 l 472 1097 l 397 1097 l 221 1250 z "},"ě":{"ha":842,"x_min":26,"x_max":818,"o":"m 471 -28 q 239 22 340 -28 q 82 160 138 71 q 26 364 26 249 q 76 563 26 476 q 216 697 126 649 q 424 744 306 744 q 624 700 538 744 q 758 575 711 656 q 806 389 806 494 q 792 286 806 332 l 301 286 q 359 194 310 228 q 483 160 408 160 q 594 181 540 160 q 681 239 649 203 l 818 117 q 678 12 772 51 q 471 -28 583 -28 m 536 426 q 503 526 533 490 q 424 563 472 563 q 340 525 374 563 q 299 426 306 488 l 536 426 m 183 1014 l 221 1056 l 428 875 l 636 1056 l 672 1014 l 465 833 l 390 833 l 183 1014 z "},"Ê":{"ha":826,"x_min":74,"x_max":796,"o":"m 74 994 l 782 994 l 782 760 l 363 760 l 363 608 l 726 608 l 726 404 l 363 404 l 363 236 l 796 236 l 796 0 l 74 0 l 74 994 m 221 1125 l 397 1278 l 472 1278 l 649 1125 l 613 1083 l 433 1236 l 258 1083 l 221 1125 z "},"ê":{"ha":842,"x_min":26,"x_max":818,"o":"m 471 -28 q 239 22 340 -28 q 82 160 138 71 q 26 364 26 249 q 76 563 26 476 q 216 697 126 649 q 424 744 306 744 q 624 700 538 744 q 758 575 711 656 q 806 389 806 494 q 792 286 806 332 l 301 286 q 359 194 310 228 q 483 160 408 160 q 594 181 540 160 q 681 239 649 203 l 818 117 q 678 12 772 51 q 471 -28 583 -28 m 536 426 q 503 526 533 490 q 424 563 472 563 q 340 525 374 563 q 299 426 306 488 l 536 426 m 185 861 l 392 1042 l 467 1042 l 674 861 l 638 819 l 429 1000 l 222 819 l 185 861 z "},"Ë":{"ha":826,"x_min":74,"x_max":796,"o":"m 74 994 l 782 994 l 782 760 l 363 760 l 363 608 l 726 608 l 726 404 l 363 404 l 363 236 l 796 236 l 796 0 l 74 0 l 74 994 m 247 1081 q 153 1117 190 1081 q 117 1211 117 1154 q 153 1303 117 1267 q 247 1340 190 1340 q 341 1303 304 1340 q 378 1211 378 1267 q 341 1117 378 1154 q 247 1081 304 1081 m 618 1081 q 525 1117 561 1081 q 489 1211 489 1154 q 526 1304 489 1268 q 618 1340 563 1340 q 712 1304 675 1340 q 749 1211 749 1268 q 712 1117 749 1154 q 618 1081 675 1081 z "},"ë":{"ha":842,"x_min":26,"x_max":818,"o":"m 471 -28 q 239 22 340 -28 q 82 160 138 71 q 26 364 26 249 q 76 563 26 476 q 216 697 126 649 q 424 744 306 744 q 624 700 538 744 q 758 575 711 656 q 806 389 806 494 q 792 286 806 332 l 301 286 q 359 194 310 228 q 483 160 408 160 q 594 181 540 160 q 681 239 649 203 l 818 117 q 678 12 772 51 q 471 -28 583 -28 m 536 426 q 503 526 533 490 q 424 563 472 563 q 340 525 374 563 q 299 426 306 488 l 536 426 m 242 814 q 148 849 185 814 q 111 939 111 885 q 148 1028 111 993 q 242 1064 185 1064 q 335 1028 299 1064 q 372 939 372 993 q 335 849 372 885 q 242 814 299 814 m 614 814 q 520 849 557 814 q 483 939 483 885 q 520 1028 483 993 q 614 1064 557 1064 q 708 1028 671 1064 q 744 939 744 993 q 708 849 744 885 q 614 814 671 814 z "},"Ē":{"ha":826,"x_min":74,"x_max":796,"o":"m 74 994 l 782 994 l 782 760 l 363 760 l 363 608 l 726 608 l 726 404 l 363 404 l 363 236 l 796 236 l 796 0 l 74 0 l 74 994 m 207 1157 l 658 1157 l 658 1101 l 207 1101 l 207 1157 z "},"ē":{"ha":842,"x_min":26,"x_max":818,"o":"m 471 -28 q 239 22 340 -28 q 82 160 138 71 q 26 364 26 249 q 76 563 26 476 q 216 697 126 649 q 424 744 306 744 q 624 700 538 744 q 758 575 711 656 q 806 389 806 494 q 792 286 806 332 l 301 286 q 359 194 310 228 q 483 160 408 160 q 594 181 540 160 q 681 239 649 203 l 818 117 q 678 12 772 51 q 471 -28 583 -28 m 536 426 q 503 526 533 490 q 424 563 472 563 q 340 525 374 563 q 299 426 306 488 l 536 426 m 203 879 l 654 879 l 654 824 l 203 824 l 203 879 z "},"Ĕ":{"ha":826,"x_min":74,"x_max":796,"o":"m 74 994 l 782 994 l 782 760 l 363 760 l 363 608 l 726 608 l 726 404 l 363 404 l 363 236 l 796 236 l 796 0 l 74 0 l 74 994 m 432 1097 q 292 1148 347 1097 q 238 1278 238 1199 l 294 1278 q 333 1188 294 1224 q 432 1153 372 1153 q 533 1188 493 1153 q 572 1278 572 1224 l 626 1278 q 572 1149 626 1200 q 432 1097 517 1097 z "},"ĕ":{"ha":842,"x_min":26,"x_max":818,"o":"m 471 -28 q 239 22 340 -28 q 82 160 138 71 q 26 364 26 249 q 76 563 26 476 q 216 697 126 649 q 424 744 306 744 q 624 700 538 744 q 758 575 711 656 q 806 389 806 494 q 792 286 806 332 l 301 286 q 359 194 310 228 q 483 160 408 160 q 594 181 540 160 q 681 239 649 203 l 818 117 q 678 12 772 51 q 471 -28 583 -28 m 536 426 q 503 526 533 490 q 424 563 472 563 q 340 525 374 563 q 299 426 306 488 l 536 426 m 428 819 q 306 848 360 819 q 222 927 253 876 q 192 1042 192 978 l 249 1042 q 299 922 249 969 q 426 875 349 875 q 558 922 506 875 q 610 1042 610 969 l 664 1042 q 633 927 664 978 q 549 848 603 876 q 428 819 496 819 z "},"Ė":{"ha":826,"x_min":74,"x_max":796,"o":"m 74 994 l 782 994 l 782 760 l 363 760 l 363 608 l 726 608 l 726 404 l 363 404 l 363 236 l 796 236 l 796 0 l 74 0 l 74 994 m 433 1081 q 333 1119 372 1081 q 293 1215 293 1157 q 333 1313 293 1275 q 433 1351 372 1351 q 534 1313 494 1351 q 574 1215 574 1275 q 534 1119 574 1157 q 433 1081 494 1081 z "},"ė":{"ha":842,"x_min":26,"x_max":818,"o":"m 471 -28 q 239 22 340 -28 q 82 160 138 71 q 26 364 26 249 q 76 563 26 476 q 216 697 126 649 q 424 744 306 744 q 624 700 538 744 q 758 575 711 656 q 806 389 806 494 q 792 286 806 332 l 301 286 q 359 194 310 228 q 483 160 408 160 q 594 181 540 160 q 681 239 649 203 l 818 117 q 678 12 772 51 q 471 -28 583 -28 m 536 426 q 503 526 533 490 q 424 563 472 563 q 340 525 374 563 q 299 426 306 488 l 536 426 m 428 814 q 327 851 367 814 q 288 949 288 889 q 327 1046 288 1008 q 428 1083 367 1083 q 528 1046 489 1083 q 568 949 568 1008 q 528 851 568 889 q 428 814 489 814 z "},"Ę":{"ha":826,"x_min":74,"x_max":796,"o":"m 796 0 q 620 -77 674 -43 q 567 -165 567 -111 q 585 -212 567 -194 q 635 -229 604 -229 q 683 -215 657 -229 q 731 -179 708 -201 l 769 -215 q 705 -266 743 -247 q 632 -285 667 -285 q 543 -253 576 -285 q 510 -171 510 -222 q 547 -75 510 -115 q 658 0 585 -35 l 74 0 l 74 994 l 782 994 l 782 760 l 363 760 l 363 608 l 726 608 l 726 404 l 363 404 l 363 236 l 796 236 l 796 0 z "},"ę":{"ha":842,"x_min":26,"x_max":818,"o":"m 818 117 q 647 0 761 38 q 472 -77 525 -43 q 418 -165 418 -111 q 437 -212 418 -194 q 486 -229 456 -229 q 534 -215 508 -229 q 582 -179 560 -201 l 621 -215 q 556 -266 594 -247 q 483 -285 518 -285 q 394 -253 428 -285 q 361 -169 361 -221 q 456 -28 361 -85 q 231 25 329 -25 q 80 163 133 75 q 26 364 26 251 q 76 563 26 476 q 216 697 126 649 q 424 744 306 744 q 624 700 538 744 q 758 575 711 656 q 806 389 806 494 q 792 286 806 332 l 301 286 q 359 194 310 228 q 483 160 408 160 q 594 181 540 160 q 681 239 649 203 l 818 117 m 424 563 q 340 525 374 563 q 299 426 306 488 l 536 426 q 503 526 533 490 q 424 563 472 563 z "},"Ĝ":{"ha":1182,"x_min":39,"x_max":1126,"o":"m 515 -29 q 267 37 375 -29 q 99 222 158 103 q 39 497 39 342 q 106 775 39 654 q 292 963 172 896 q 571 1029 413 1029 q 779 987 683 1029 q 940 868 875 944 q 1028 692 1006 792 l 751 640 q 681 737 732 700 q 567 774 631 774 q 449 739 500 774 q 369 642 397 704 q 340 497 340 579 q 374 348 340 413 q 467 247 407 283 q 606 211 528 211 q 765 264 700 211 q 836 399 831 317 l 475 399 l 475 574 l 1126 574 l 1126 0 l 914 0 l 883 179 l 882 179 q 742 26 840 82 q 515 -29 644 -29 m 356 1125 l 532 1278 l 607 1278 l 783 1125 l 747 1083 l 568 1236 l 393 1083 l 356 1125 z "},"ĝ":{"ha":868,"x_min":6,"x_max":819,"o":"m 364 -319 q 165 -291 261 -319 q 6 -215 68 -262 l 78 -11 q 198 -76 126 -51 q 338 -101 269 -101 q 493 -51 435 -101 q 551 86 551 0 l 551 129 l 550 129 q 454 42 517 75 q 319 10 392 10 q 164 54 231 10 q 61 180 97 99 q 25 371 25 261 q 60 563 25 481 q 160 689 96 644 q 310 733 224 733 q 455 690 389 733 q 551 575 521 647 l 553 575 l 597 717 l 819 717 l 819 76 q 763 -133 819 -43 q 604 -271 707 -222 q 364 -319 501 -319 m 428 222 q 526 263 489 222 q 564 371 564 304 q 526 480 564 438 q 428 522 489 522 q 330 481 367 522 q 293 371 293 440 q 330 263 293 303 q 428 222 367 222 m 179 861 l 386 1042 l 461 1042 l 668 861 l 632 819 l 424 1000 l 217 819 l 179 861 z "},"Ğ":{"ha":1182,"x_min":39,"x_max":1126,"o":"m 515 -29 q 267 37 375 -29 q 99 222 158 103 q 39 497 39 342 q 106 775 39 654 q 292 963 172 896 q 571 1029 413 1029 q 779 987 683 1029 q 940 868 875 944 q 1028 692 1006 792 l 751 640 q 681 737 732 700 q 567 774 631 774 q 449 739 500 774 q 369 642 397 704 q 340 497 340 579 q 374 348 340 413 q 467 247 407 283 q 606 211 528 211 q 765 264 700 211 q 836 399 831 317 l 475 399 l 475 574 l 1126 574 l 1126 0 l 914 0 l 883 179 l 882 179 q 742 26 840 82 q 515 -29 644 -29 m 568 1097 q 428 1148 483 1097 q 374 1278 374 1199 l 431 1278 q 469 1188 431 1224 q 568 1153 508 1153 q 669 1188 629 1153 q 708 1278 708 1224 l 763 1278 q 708 1149 763 1200 q 568 1097 653 1097 z "},"ğ":{"ha":868,"x_min":6,"x_max":819,"o":"m 364 -319 q 165 -291 261 -319 q 6 -215 68 -262 l 78 -11 q 198 -76 126 -51 q 338 -101 269 -101 q 493 -51 435 -101 q 551 86 551 0 l 551 129 l 550 129 q 454 42 517 75 q 319 10 392 10 q 164 54 231 10 q 61 180 97 99 q 25 371 25 261 q 60 563 25 481 q 160 689 96 644 q 310 733 224 733 q 455 690 389 733 q 551 575 521 647 l 553 575 l 597 717 l 819 717 l 819 76 q 763 -133 819 -43 q 604 -271 707 -222 q 364 -319 501 -319 m 428 222 q 526 263 489 222 q 564 371 564 304 q 526 480 564 438 q 428 522 489 522 q 330 481 367 522 q 293 371 293 440 q 330 263 293 303 q 428 222 367 222 m 422 819 q 301 848 354 819 q 217 927 247 876 q 186 1042 186 978 l 243 1042 q 293 922 243 969 q 421 875 343 875 q 552 922 500 875 q 604 1042 604 969 l 658 1042 q 628 927 658 978 q 544 848 597 876 q 422 819 490 819 z "},"Ġ":{"ha":1182,"x_min":39,"x_max":1126,"o":"m 515 -29 q 267 37 375 -29 q 99 222 158 103 q 39 497 39 342 q 106 775 39 654 q 292 963 172 896 q 571 1029 413 1029 q 779 987 683 1029 q 940 868 875 944 q 1028 692 1006 792 l 751 640 q 681 737 732 700 q 567 774 631 774 q 449 739 500 774 q 369 642 397 704 q 340 497 340 579 q 374 348 340 413 q 467 247 407 283 q 606 211 528 211 q 765 264 700 211 q 836 399 831 317 l 475 399 l 475 574 l 1126 574 l 1126 0 l 914 0 l 883 179 l 882 179 q 742 26 840 82 q 515 -29 644 -29 m 568 1081 q 467 1119 507 1081 q 428 1215 428 1157 q 467 1313 428 1275 q 568 1351 507 1351 q 669 1313 629 1351 q 708 1215 708 1275 q 669 1119 708 1157 q 568 1081 629 1081 z "},"ġ":{"ha":868,"x_min":6,"x_max":819,"o":"m 364 -319 q 165 -291 261 -319 q 6 -215 68 -262 l 78 -11 q 198 -76 126 -51 q 338 -101 269 -101 q 493 -51 435 -101 q 551 86 551 0 l 551 129 l 550 129 q 454 42 517 75 q 319 10 392 10 q 164 54 231 10 q 61 180 97 99 q 25 371 25 261 q 60 563 25 481 q 160 689 96 644 q 310 733 224 733 q 455 690 389 733 q 551 575 521 647 l 553 575 l 597 717 l 819 717 l 819 76 q 763 -133 819 -43 q 604 -271 707 -222 q 364 -319 501 -319 m 428 222 q 526 263 489 222 q 564 371 564 304 q 526 480 564 438 q 428 522 489 522 q 330 481 367 522 q 293 371 293 440 q 330 263 293 303 q 428 222 367 222 m 422 814 q 322 851 361 814 q 282 949 282 889 q 322 1046 282 1008 q 422 1083 361 1083 q 523 1046 483 1083 q 563 949 563 1008 q 523 851 563 889 q 422 814 483 814 z "},"Ģ":{"ha":1182,"x_min":39,"x_max":1126,"o":"m 515 -29 q 267 37 375 -29 q 99 222 158 103 q 39 497 39 342 q 106 775 39 654 q 292 963 172 896 q 571 1029 413 1029 q 779 987 683 1029 q 940 868 875 944 q 1028 692 1006 792 l 751 640 q 681 737 732 700 q 567 774 631 774 q 449 739 500 774 q 369 642 397 704 q 340 497 340 579 q 374 348 340 413 q 467 247 407 283 q 606 211 528 211 q 765 264 700 211 q 836 399 831 317 l 475 399 l 475 574 l 1126 574 l 1126 0 l 914 0 l 883 179 l 882 179 q 742 26 840 82 q 515 -29 644 -29 m 482 -344 q 533 -350 513 -350 q 610 -331 578 -350 q 654 -267 643 -311 q 578 -286 619 -286 q 499 -259 532 -286 q 467 -187 467 -232 q 499 -116 467 -144 q 579 -87 531 -87 q 676 -130 639 -87 q 713 -239 713 -172 q 665 -359 714 -315 q 536 -403 617 -403 q 471 -396 510 -403 l 482 -344 z "},"ģ":{"ha":868,"x_min":6,"x_max":819,"o":"m 524 1061 q 472 1067 493 1067 q 395 1047 428 1067 q 351 983 363 1028 q 428 1003 386 1003 q 506 976 474 1003 q 539 904 539 949 q 507 833 539 861 q 426 804 475 804 q 330 847 367 804 q 293 958 293 890 q 341 1076 293 1033 q 469 1119 389 1119 q 535 1113 496 1119 l 524 1061 m 364 -319 q 165 -291 261 -319 q 6 -215 68 -262 l 78 -11 q 198 -76 126 -51 q 338 -101 269 -101 q 493 -51 435 -101 q 551 86 551 0 l 551 129 l 550 129 q 454 42 517 75 q 319 10 392 10 q 164 54 231 10 q 61 180 97 99 q 25 371 25 261 q 60 563 25 481 q 160 689 96 644 q 310 733 224 733 q 455 690 389 733 q 551 575 521 647 l 553 575 l 597 717 l 819 717 l 819 76 q 763 -133 819 -43 q 604 -271 707 -222 q 364 -319 501 -319 m 428 222 q 526 263 489 222 q 564 371 564 304 q 526 480 564 438 q 428 522 489 522 q 330 481 367 522 q 293 371 293 440 q 330 263 293 303 q 428 222 367 222 z "},"Ì":{"ha":447,"x_min":47,"x_max":375,"o":"m 47 1249 l 82 1292 l 297 1126 l 263 1083 l 47 1249 m 74 994 l 375 994 l 375 0 l 74 0 l 74 994 z "},"ì":{"ha":365,"x_min":6,"x_max":317,"o":"m 6 986 l 40 1029 l 294 836 l 260 793 l 6 986 m 49 717 l 317 717 l 317 0 l 49 0 l 49 717 z "},"Í":{"ha":447,"x_min":74,"x_max":400,"o":"m 150 1126 l 365 1292 l 400 1249 l 185 1083 l 150 1126 m 74 994 l 375 994 l 375 0 l 74 0 l 74 994 z "},"í":{"ha":365,"x_min":49,"x_max":360,"o":"m 72 836 l 325 1029 l 360 986 l 106 793 l 72 836 m 49 717 l 317 717 l 317 0 l 49 0 l 49 717 z "},"Î":{"ha":447,"x_min":25,"x_max":425,"o":"m 25 1122 l 188 1278 l 263 1278 l 425 1122 l 386 1083 l 224 1236 l 64 1083 l 25 1122 m 74 994 l 375 994 l 375 0 l 74 0 l 74 994 z "},"î":{"ha":365,"x_min":0,"x_max":365,"o":"m 0 853 l 144 1042 l 219 1042 l 365 853 l 321 819 l 182 999 l 44 819 l 0 853 m 49 717 l 317 717 l 317 0 l 49 0 l 49 717 z "},"Ï":{"ha":447,"x_min":-62,"x_max":510,"o":"m 68 1081 q -26 1117 11 1081 q -62 1211 -62 1154 q -26 1303 -62 1267 q 68 1340 11 1340 q 162 1303 125 1340 q 199 1211 199 1267 q 162 1117 199 1154 q 68 1081 125 1081 m 379 1081 q 286 1117 322 1081 q 250 1211 250 1154 q 287 1304 250 1268 q 379 1340 324 1340 q 473 1304 436 1340 q 510 1211 510 1268 q 473 1117 510 1154 q 379 1081 436 1081 m 74 994 l 375 994 l 375 0 l 74 0 l 74 994 z "},"ï":{"ha":365,"x_min":-99,"x_max":464,"o":"m 32 814 q -62 849 -25 814 q -99 939 -99 883 q -62 1028 -99 993 q 32 1064 -25 1064 q 126 1028 89 1064 q 163 939 163 993 q 126 849 163 883 q 32 814 89 814 m 333 814 q 240 849 276 814 q 203 939 203 883 q 240 1028 203 993 q 333 1064 276 1064 q 427 1028 390 1064 q 464 939 464 993 q 427 849 464 883 q 333 814 390 814 m 49 717 l 317 717 l 317 0 l 49 0 l 49 717 z "},"Ĩ":{"ha":447,"x_min":-6,"x_max":451,"o":"m 322 1083 q 259 1103 285 1083 q 203 1163 233 1124 q 158 1212 174 1197 q 121 1226 142 1226 q 70 1190 90 1226 q 50 1097 50 1154 l -6 1097 q 29 1230 -6 1178 q 121 1282 64 1282 q 187 1260 161 1282 q 249 1193 213 1238 q 287 1151 272 1164 q 321 1139 301 1139 q 374 1176 353 1139 q 394 1269 394 1213 l 451 1269 q 415 1135 451 1188 q 322 1083 379 1083 m 74 994 l 375 994 l 375 0 l 74 0 l 74 994 z "},"ĩ":{"ha":365,"x_min":-6,"x_max":371,"o":"m 264 799 q 210 819 232 799 q 164 876 188 839 q 147 902 160 882 q 122 932 133 922 q 101 942 111 942 q 65 905 79 942 q 50 813 50 868 l -6 813 q 24 946 -6 894 q 101 997 53 997 q 157 976 133 997 q 203 917 181 954 q 235 868 224 882 q 261 854 246 854 q 300 891 285 854 q 315 985 315 928 l 371 985 q 342 850 371 901 q 264 799 313 799 m 49 717 l 317 717 l 317 0 l 49 0 l 49 717 z "},"Ī":{"ha":447,"x_min":26,"x_max":422,"o":"m 26 1157 l 422 1157 l 422 1101 l 26 1101 l 26 1157 m 74 994 l 375 994 l 375 0 l 74 0 l 74 994 z "},"ī":{"ha":365,"x_min":7,"x_max":358,"o":"m 7 879 l 358 879 l 358 824 l 7 824 l 7 879 m 49 717 l 317 717 l 317 0 l 49 0 l 49 717 z "},"Į":{"ha":447,"x_min":67,"x_max":375,"o":"m 375 994 l 375 0 l 353 0 q 177 -77 231 -43 q 124 -165 124 -111 q 142 -212 124 -194 q 192 -229 161 -229 q 240 -215 214 -229 q 288 -179 265 -201 l 326 -215 q 262 -266 300 -247 q 189 -285 224 -285 q 100 -253 133 -285 q 67 -171 67 -222 q 104 -75 67 -115 q 215 0 142 -35 l 74 0 l 74 994 l 375 994 z "},"į":{"ha":365,"x_min":18,"x_max":338,"o":"m 186 793 q 76 833 118 793 q 35 939 35 874 q 76 1044 35 1004 q 186 1083 118 1083 q 296 1044 254 1083 q 338 939 338 1004 q 296 833 338 874 q 186 793 254 793 m 51 717 l 319 717 l 319 0 l 304 0 q 128 -77 182 -43 q 75 -165 75 -111 q 94 -212 75 -194 q 143 -229 113 -229 q 191 -215 165 -229 q 239 -179 217 -201 l 278 -215 q 213 -266 251 -247 q 140 -285 175 -285 q 51 -253 85 -285 q 18 -171 18 -222 q 56 -75 18 -115 q 167 0 93 -35 l 51 0 l 51 717 z "},"İ":{"ha":447,"x_min":74,"x_max":375,"o":"m 74 994 l 375 994 l 375 0 l 74 0 l 74 994 m 222 1081 q 122 1119 161 1081 q 82 1215 82 1157 q 122 1313 82 1275 q 222 1351 161 1351 q 323 1313 283 1351 q 363 1215 363 1275 q 323 1119 363 1157 q 222 1081 283 1081 z "},"ı":{"ha":365,"x_min":49,"x_max":317,"o":"m 49 717 l 317 717 l 317 0 l 49 0 l 49 717 z "},"Ĳ":{"ha":1332,"x_min":74,"x_max":1272,"o":"m 74 994 l 375 994 l 375 0 l 74 0 l 74 994 m 874 -33 q 591 47 697 -33 q 465 272 485 126 l 722 356 q 772 243 735 283 q 867 203 810 203 q 944 235 917 203 q 971 325 971 267 l 972 994 l 1272 994 l 1272 308 q 1165 57 1272 147 q 874 -33 1058 -33 z "},"ĳ":{"ha":746,"x_min":35,"x_max":710,"o":"m 186 793 q 76 833 118 793 q 35 939 35 874 q 76 1044 35 1004 q 186 1083 118 1083 q 296 1044 254 1083 q 338 939 338 1004 q 296 833 338 874 q 186 793 254 793 m 51 717 l 319 717 l 319 0 l 51 0 l 51 717 m 560 793 q 450 833 492 793 q 408 939 408 874 q 450 1044 408 1004 q 560 1083 492 1083 q 669 1044 628 1083 q 710 939 710 1004 q 669 833 710 874 q 560 793 628 793 m 414 -319 q 219 -293 296 -319 l 246 -111 q 329 -124 288 -124 q 400 -94 375 -124 q 425 -12 425 -65 l 425 717 l 693 717 l 693 -56 q 619 -249 693 -179 q 414 -319 546 -319 z "},"ȷ":{"ha":374,"x_min":-153,"x_max":321,"o":"m 42 -319 q -153 -293 -76 -319 l -126 -111 q -43 -124 -85 -124 q 28 -94 3 -124 q 53 -12 53 -65 l 53 717 l 321 717 l 321 -56 q 247 -249 321 -179 q 42 -319 174 -319 z "},"Ķ":{"ha":1017,"x_min":74,"x_max":1014,"o":"m 74 994 l 375 994 l 375 657 l 376 656 l 643 994 l 1006 994 l 671 618 l 1014 0 l 653 0 l 467 393 l 375 293 l 375 0 l 74 0 l 74 994 m 408 -344 q 460 -350 439 -350 q 537 -331 504 -350 q 581 -267 569 -311 q 504 -286 546 -286 q 426 -259 458 -286 q 393 -187 393 -232 q 425 -116 393 -144 q 506 -87 457 -87 q 602 -130 565 -87 q 639 -239 639 -172 q 592 -359 640 -315 q 463 -403 543 -403 q 397 -396 436 -403 l 408 -344 z "},"ķ":{"ha":833,"x_min":49,"x_max":833,"o":"m 49 1036 l 317 1036 l 317 490 l 318 490 l 522 717 l 825 717 l 558 444 l 833 0 l 543 0 l 385 288 l 317 217 l 317 0 l 49 0 l 49 1036 m 314 -344 q 365 -350 344 -350 q 442 -331 410 -350 q 486 -267 475 -311 q 410 -286 451 -286 q 331 -259 364 -286 q 299 -187 299 -232 q 331 -116 299 -144 q 411 -87 363 -87 q 508 -130 471 -87 q 544 -239 544 -172 q 497 -359 546 -315 q 368 -403 449 -403 q 303 -396 342 -403 l 314 -344 z "},"Ĺ":{"ha":763,"x_min":74,"x_max":738,"o":"m 74 994 l 375 994 l 375 256 l 738 256 l 738 0 l 74 0 l 74 994 m 197 1117 l 329 1290 l 372 1256 l 239 1082 l 197 1117 z "},"ĺ":{"ha":365,"x_min":49,"x_max":331,"o":"m 49 1036 l 317 1036 l 317 0 l 49 0 l 49 1036 m 156 1117 l 288 1290 l 331 1256 l 197 1082 l 156 1117 z "},"Ľ":{"ha":763,"x_min":74,"x_max":738,"o":"m 74 994 l 375 994 l 375 256 l 738 256 l 738 0 l 74 0 l 74 994 z "},"ľ":{"ha":365,"x_min":49,"x_max":640,"o":"m 49 1036 l 317 1036 l 317 0 l 49 0 l 49 1036 z "},"Ļ":{"ha":763,"x_min":74,"x_max":738,"o":"m 74 994 l 375 994 l 375 256 l 738 256 l 738 0 l 74 0 l 74 994 m 310 -344 q 361 -350 340 -350 q 438 -331 406 -350 q 482 -267 471 -311 q 406 -286 447 -286 q 327 -259 360 -286 q 294 -187 294 -232 q 326 -116 294 -144 q 407 -87 358 -87 q 503 -130 467 -87 q 540 -239 540 -172 q 493 -359 542 -315 q 364 -403 444 -403 q 299 -396 338 -403 l 310 -344 z "},"ļ":{"ha":365,"x_min":49,"x_max":317,"o":"m 49 1036 l 317 1036 l 317 0 l 49 0 l 49 1036 m 82 -344 q 133 -350 113 -350 q 210 -331 178 -350 q 254 -267 243 -311 q 178 -286 219 -286 q 99 -259 132 -286 q 67 -187 67 -232 q 99 -116 67 -144 q 179 -87 131 -87 q 276 -130 239 -87 q 313 -239 313 -172 q 265 -359 314 -315 q 136 -403 217 -403 q 71 -396 110 -403 l 82 -344 z "},"Ł":{"ha":871,"x_min":0,"x_max":846,"o":"m 846 256 l 846 0 l 182 0 l 182 424 l 28 335 l 0 383 l 182 489 l 182 994 l 483 994 l 483 664 l 671 772 l 699 724 l 483 599 l 483 256 l 846 256 z "},"ł":{"ha":643,"x_min":0,"x_max":643,"o":"m 456 596 l 456 0 l 188 0 l 188 438 l 28 343 l 0 392 l 188 503 l 188 1036 l 456 1036 l 456 661 l 615 756 l 643 707 l 456 596 z "},"Ń":{"ha":1122,"x_min":74,"x_max":1049,"o":"m 74 994 l 415 994 l 765 357 l 768 357 l 768 994 l 1049 994 l 1049 0 l 706 0 l 357 636 l 354 636 l 354 0 l 74 0 l 74 994 m 546 1117 l 678 1290 l 721 1256 l 588 1082 l 546 1117 z "},"ń":{"ha":829,"x_min":49,"x_max":782,"o":"m 560 735 q 723 674 664 735 q 782 507 782 614 l 782 0 l 514 0 l 514 417 q 491 487 514 461 q 428 513 468 513 q 347 479 378 513 q 317 390 317 446 l 317 0 l 49 0 l 49 717 l 272 717 l 315 578 l 317 578 q 417 694 354 653 q 560 735 479 735 m 385 868 l 544 1069 l 588 1035 l 428 833 l 385 868 z "},"Ň":{"ha":1122,"x_min":74,"x_max":1049,"o":"m 74 994 l 415 994 l 765 357 l 768 357 l 768 994 l 1049 994 l 1049 0 l 706 0 l 357 636 l 354 636 l 354 0 l 74 0 l 74 994 m 358 1250 l 396 1292 l 571 1139 l 750 1292 l 786 1250 l 610 1097 l 535 1097 l 358 1250 z "},"ň":{"ha":829,"x_min":49,"x_max":782,"o":"m 560 735 q 723 674 664 735 q 782 507 782 614 l 782 0 l 514 0 l 514 417 q 491 487 514 461 q 428 513 468 513 q 347 479 378 513 q 317 390 317 446 l 317 0 l 49 0 l 49 717 l 272 717 l 315 578 l 317 578 q 417 694 354 653 q 560 735 479 735 m 169 1014 l 207 1056 l 414 875 l 622 1056 l 658 1014 l 451 833 l 376 833 l 169 1014 z "},"Ñ":{"ha":1122,"x_min":74,"x_max":1049,"o":"m 74 994 l 415 994 l 765 357 l 768 357 l 768 994 l 1049 994 l 1049 0 l 706 0 l 357 636 l 354 636 l 354 0 l 74 0 l 74 994 m 678 1083 q 612 1103 639 1083 q 549 1164 585 1124 q 502 1212 519 1197 q 461 1226 485 1226 q 405 1190 426 1226 q 383 1097 383 1154 l 328 1097 q 365 1230 328 1178 q 463 1282 403 1282 q 515 1270 492 1282 q 551 1244 538 1258 q 594 1197 565 1231 q 636 1153 618 1168 q 676 1139 654 1139 q 734 1176 711 1139 q 757 1269 757 1213 l 814 1269 q 776 1136 814 1189 q 678 1083 738 1083 z "},"ñ":{"ha":829,"x_min":49,"x_max":782,"o":"m 560 735 q 723 674 664 735 q 782 507 782 614 l 782 0 l 514 0 l 514 417 q 491 487 514 461 q 428 513 468 513 q 347 479 378 513 q 317 390 317 446 l 317 0 l 49 0 l 49 717 l 272 717 l 315 578 l 317 578 q 417 694 354 653 q 560 735 479 735 m 518 819 q 454 839 482 819 q 396 893 426 858 q 346 946 365 929 q 301 963 326 963 q 245 926 267 963 q 224 833 224 890 l 168 833 q 206 966 168 914 q 303 1018 243 1018 q 367 999 340 1018 q 424 946 394 981 q 448 919 429 940 q 484 886 467 897 q 518 875 501 875 q 576 912 553 875 q 599 1006 599 949 l 654 1006 q 616 872 654 925 q 518 819 578 819 z "},"Ņ":{"ha":1122,"x_min":74,"x_max":1049,"o":"m 74 994 l 415 994 l 765 357 l 768 357 l 768 994 l 1049 994 l 1049 0 l 706 0 l 357 636 l 354 636 l 354 0 l 74 0 l 74 994 m 463 -344 q 514 -350 493 -350 q 591 -331 558 -350 q 635 -267 624 -311 q 558 -286 600 -286 q 480 -259 513 -286 q 447 -187 447 -232 q 479 -116 447 -144 q 560 -87 511 -87 q 656 -130 619 -87 q 693 -239 693 -172 q 646 -359 694 -315 q 517 -403 597 -403 q 451 -396 490 -403 l 463 -344 z "},"ņ":{"ha":829,"x_min":49,"x_max":782,"o":"m 560 735 q 723 674 664 735 q 782 507 782 614 l 782 0 l 514 0 l 514 417 q 491 487 514 461 q 428 513 468 513 q 347 479 378 513 q 317 390 317 446 l 317 0 l 49 0 l 49 717 l 272 717 l 315 578 l 317 578 q 417 694 354 653 q 560 735 479 735 m 315 -344 q 367 -350 346 -350 q 444 -331 411 -350 q 488 -267 476 -311 q 411 -286 453 -286 q 333 -259 365 -286 q 300 -187 300 -232 q 332 -116 300 -144 q 413 -87 364 -87 q 509 -130 472 -87 q 546 -239 546 -172 q 499 -359 547 -315 q 369 -403 450 -403 q 304 -396 343 -403 l 315 -344 z "},"Ò":{"ha":1194,"x_min":39,"x_max":1157,"o":"m 597 -35 q 304 31 431 -35 q 108 217 178 97 q 39 497 39 338 q 108 777 39 657 q 304 963 178 897 q 597 1029 431 1029 q 892 963 765 1029 q 1088 777 1018 897 q 1157 497 1157 657 q 1088 217 1157 338 q 892 31 1018 97 q 597 -35 765 -35 m 597 221 q 785 297 715 221 q 856 497 856 372 q 785 698 856 622 q 597 774 715 774 q 410 698 481 774 q 340 497 340 622 q 410 297 340 372 q 597 221 481 221 m 465 1256 l 508 1290 l 640 1117 l 597 1082 l 465 1256 z "},"ò":{"ha":865,"x_min":26,"x_max":839,"o":"m 433 -28 q 219 20 311 -28 q 77 156 128 68 q 26 358 26 243 q 77 561 26 474 q 219 697 128 649 q 433 744 311 744 q 647 697 554 744 q 789 561 739 649 q 839 358 839 474 q 789 156 839 243 q 647 20 739 68 q 433 -28 554 -28 m 433 190 q 538 235 500 190 q 576 358 576 281 q 538 481 576 436 q 433 526 500 526 q 328 481 367 526 q 289 358 289 436 q 328 235 289 281 q 433 190 367 190 m 271 1035 l 315 1069 l 475 868 l 432 833 l 271 1035 z "},"Ó":{"ha":1194,"x_min":39,"x_max":1157,"o":"m 597 -35 q 304 31 431 -35 q 108 217 178 97 q 39 497 39 338 q 108 777 39 657 q 304 963 178 897 q 597 1029 431 1029 q 892 963 765 1029 q 1088 777 1018 897 q 1157 497 1157 657 q 1088 217 1157 338 q 892 31 1018 97 q 597 -35 765 -35 m 597 221 q 785 297 715 221 q 856 497 856 372 q 785 698 856 622 q 597 774 715 774 q 410 698 481 774 q 340 497 340 622 q 410 297 340 372 q 597 221 481 221 m 572 1117 l 704 1290 l 747 1256 l 614 1082 l 572 1117 z "},"ó":{"ha":865,"x_min":26,"x_max":839,"o":"m 433 -28 q 219 20 311 -28 q 77 156 128 68 q 26 358 26 243 q 77 561 26 474 q 219 697 128 649 q 433 744 311 744 q 647 697 554 744 q 789 561 739 649 q 839 358 839 474 q 789 156 839 243 q 647 20 739 68 q 433 -28 554 -28 m 433 190 q 538 235 500 190 q 576 358 576 281 q 538 481 576 436 q 433 526 500 526 q 328 481 367 526 q 289 358 289 436 q 328 235 289 281 q 433 190 367 190 m 403 868 l 563 1069 l 606 1035 l 446 833 l 403 868 z "},"Õ":{"ha":1194,"x_min":39,"x_max":1157,"o":"m 597 -35 q 304 31 431 -35 q 108 217 178 97 q 39 497 39 338 q 108 777 39 657 q 304 963 178 897 q 597 1029 431 1029 q 892 963 765 1029 q 1088 777 1018 897 q 1157 497 1157 657 q 1088 217 1157 338 q 892 31 1018 97 q 597 -35 765 -35 m 597 221 q 785 297 715 221 q 856 497 856 372 q 785 698 856 622 q 597 774 715 774 q 410 698 481 774 q 340 497 340 622 q 410 297 340 372 q 597 221 481 221 m 704 1083 q 638 1103 665 1083 q 575 1164 611 1124 q 528 1212 546 1197 q 488 1226 511 1226 q 431 1190 453 1226 q 410 1097 410 1154 l 354 1097 q 392 1230 354 1178 q 489 1282 429 1282 q 541 1270 518 1282 q 578 1244 564 1258 q 621 1197 592 1231 q 663 1153 644 1168 q 703 1139 681 1139 q 760 1176 738 1139 q 783 1269 783 1213 l 840 1269 q 802 1136 840 1189 q 704 1083 764 1083 z "},"õ":{"ha":865,"x_min":26,"x_max":839,"o":"m 433 -28 q 219 20 311 -28 q 77 156 128 68 q 26 358 26 243 q 77 561 26 474 q 219 697 128 649 q 433 744 311 744 q 647 697 554 744 q 789 561 739 649 q 839 358 839 474 q 789 156 839 243 q 647 20 739 68 q 433 -28 554 -28 m 433 190 q 538 235 500 190 q 576 358 576 281 q 538 481 576 436 q 433 526 500 526 q 328 481 367 526 q 289 358 289 436 q 328 235 289 281 q 433 190 367 190 m 536 819 q 472 839 500 819 q 414 893 444 858 q 364 946 383 929 q 319 963 344 963 q 263 926 285 963 q 242 833 242 890 l 186 833 q 224 966 186 914 q 321 1018 261 1018 q 385 999 358 1018 q 442 946 413 981 q 466 919 447 940 q 502 886 485 897 q 536 875 519 875 q 594 912 571 875 q 617 1006 617 949 l 672 1006 q 634 872 672 925 q 536 819 596 819 z "},"Ö":{"ha":1194,"x_min":39,"x_max":1157,"o":"m 597 -35 q 304 31 431 -35 q 108 217 178 97 q 39 497 39 338 q 108 777 39 657 q 304 963 178 897 q 597 1029 431 1029 q 892 963 765 1029 q 1088 777 1018 897 q 1157 497 1157 657 q 1088 217 1157 338 q 892 31 1018 97 q 597 -35 765 -35 m 597 221 q 785 297 715 221 q 856 497 856 372 q 785 698 856 622 q 597 774 715 774 q 410 698 481 774 q 340 497 340 622 q 410 297 340 372 q 597 221 481 221 m 413 1081 q 319 1117 356 1081 q 282 1211 282 1154 q 319 1303 282 1267 q 413 1340 356 1340 q 506 1303 469 1340 q 543 1211 543 1267 q 506 1117 543 1154 q 413 1081 469 1081 m 783 1081 q 690 1117 726 1081 q 654 1211 654 1154 q 691 1304 654 1268 q 783 1340 728 1340 q 877 1304 840 1340 q 914 1211 914 1268 q 877 1117 914 1154 q 783 1081 840 1081 z "},"ö":{"ha":865,"x_min":26,"x_max":839,"o":"m 433 -28 q 219 20 311 -28 q 77 156 128 68 q 26 358 26 243 q 77 561 26 474 q 219 697 128 649 q 433 744 311 744 q 647 697 554 744 q 789 561 739 649 q 839 358 839 474 q 789 156 839 243 q 647 20 739 68 q 433 -28 554 -28 m 433 190 q 538 235 500 190 q 576 358 576 281 q 538 481 576 436 q 433 526 500 526 q 328 481 367 526 q 289 358 289 436 q 328 235 289 281 q 433 190 367 190 m 246 814 q 152 849 189 814 q 115 939 115 885 q 152 1028 115 993 q 246 1064 189 1064 q 340 1028 303 1064 q 376 939 376 993 q 340 849 376 885 q 246 814 303 814 m 618 814 q 524 849 561 814 q 488 939 488 885 q 524 1028 488 993 q 618 1064 561 1064 q 712 1028 675 1064 q 749 939 749 993 q 712 849 749 885 q 618 814 675 814 z "},"Ø":{"ha":1194,"x_min":39,"x_max":1157,"o":"m 800 1000 q 1063 817 968 949 q 1157 497 1157 685 q 1088 217 1157 338 q 892 31 1018 97 q 597 -35 765 -35 q 472 -25 540 -35 l 421 -185 l 369 -169 l 419 -12 q 140 168 242 33 q 39 497 39 303 q 108 777 39 657 q 304 963 178 897 q 597 1029 431 1029 q 746 1014 672 1029 l 792 1160 l 846 1142 l 800 1000 m 340 497 q 382 333 340 401 q 499 238 424 265 l 667 765 q 597 774 633 774 q 410 698 481 774 q 340 497 340 622 m 597 221 q 785 297 715 221 q 856 497 856 372 q 819 649 856 585 q 719 747 783 714 l 551 224 q 597 221 582 221 z "},"ø":{"ha":865,"x_min":26,"x_max":839,"o":"m 579 724 q 770 591 701 688 q 839 358 839 494 q 789 156 839 243 q 647 20 739 68 q 433 -28 554 -28 q 340 -19 385 -28 l 240 -333 l 189 -318 l 288 -7 q 96 126 165 29 q 26 358 26 222 q 77 561 26 474 q 219 697 128 649 q 433 744 311 744 q 524 738 478 744 l 611 1011 l 665 993 l 579 724 m 283 358 q 302 267 283 306 q 357 208 321 228 l 457 525 q 433 526 449 526 q 324 481 364 526 q 283 358 283 436 m 433 190 q 542 235 503 190 q 582 358 582 281 q 563 450 582 411 q 510 508 544 489 l 408 192 q 433 190 417 190 z "},"Ǿ":{"ha":1194,"x_min":39,"x_max":1157,"o":"m 800 1000 q 1063 817 968 949 q 1157 497 1157 685 q 1088 217 1157 338 q 892 31 1018 97 q 597 -35 765 -35 q 472 -25 540 -35 l 421 -185 l 369 -169 l 419 -12 q 140 168 242 33 q 39 497 39 303 q 108 777 39 657 q 304 963 178 897 q 597 1029 431 1029 q 746 1014 672 1029 l 792 1160 l 846 1142 l 800 1000 m 340 497 q 382 333 340 401 q 499 238 424 265 l 667 765 q 597 774 633 774 q 410 698 481 774 q 340 497 340 622 m 597 221 q 785 297 715 221 q 856 497 856 372 q 819 649 856 585 q 719 747 783 714 l 551 224 q 597 221 582 221 m 547 1117 l 679 1290 l 722 1256 l 589 1082 l 547 1117 z "},"ǿ":{"ha":865,"x_min":26,"x_max":839,"o":"m 579 724 q 770 591 701 688 q 839 358 839 494 q 789 156 839 243 q 647 20 739 68 q 433 -28 554 -28 q 340 -19 385 -28 l 240 -333 l 189 -318 l 288 -7 q 96 126 165 29 q 26 358 26 222 q 77 561 26 474 q 219 697 128 649 q 433 744 311 744 q 524 738 478 744 l 611 1011 l 665 993 l 579 724 m 283 358 q 302 267 283 306 q 357 208 321 228 l 457 525 q 433 526 449 526 q 324 481 364 526 q 283 358 283 436 m 433 190 q 542 235 503 190 q 582 358 582 281 q 563 450 582 411 q 510 508 544 489 l 408 192 q 433 190 417 190 m 310 868 l 469 1069 l 513 1035 l 353 833 l 310 868 z "},"Ō":{"ha":1194,"x_min":39,"x_max":1157,"o":"m 597 -35 q 304 31 431 -35 q 108 217 178 97 q 39 497 39 338 q 108 777 39 657 q 304 963 178 897 q 597 1029 431 1029 q 892 963 765 1029 q 1088 777 1018 897 q 1157 497 1157 657 q 1088 217 1157 338 q 892 31 1018 97 q 597 -35 765 -35 m 597 221 q 785 297 715 221 q 856 497 856 372 q 785 698 856 622 q 597 774 715 774 q 410 698 481 774 q 340 497 340 622 q 410 297 340 372 q 597 221 481 221 m 372 1157 l 824 1157 l 824 1101 l 372 1101 l 372 1157 z "},"ō":{"ha":865,"x_min":26,"x_max":839,"o":"m 433 -28 q 219 20 311 -28 q 77 156 128 68 q 26 358 26 243 q 77 561 26 474 q 219 697 128 649 q 433 744 311 744 q 647 697 554 744 q 789 561 739 649 q 839 358 839 474 q 789 156 839 243 q 647 20 739 68 q 433 -28 554 -28 m 433 190 q 538 235 500 190 q 576 358 576 281 q 538 481 576 436 q 433 526 500 526 q 328 481 367 526 q 289 358 289 436 q 328 235 289 281 q 433 190 367 190 m 207 879 l 658 879 l 658 824 l 207 824 l 207 879 z "},"Ŏ":{"ha":1194,"x_min":39,"x_max":1157,"o":"m 597 -35 q 304 31 431 -35 q 108 217 178 97 q 39 497 39 338 q 108 777 39 657 q 304 963 178 897 q 597 1029 431 1029 q 892 963 765 1029 q 1088 777 1018 897 q 1157 497 1157 657 q 1088 217 1157 338 q 892 31 1018 97 q 597 -35 765 -35 m 597 221 q 785 297 715 221 q 856 497 856 372 q 785 698 856 622 q 597 774 715 774 q 410 698 481 774 q 340 497 340 622 q 410 297 340 372 q 597 221 481 221 m 597 1097 q 458 1148 513 1097 q 403 1278 403 1199 l 460 1278 q 499 1188 460 1224 q 597 1153 538 1153 q 698 1188 658 1153 q 738 1278 738 1224 l 792 1278 q 737 1149 792 1200 q 597 1097 682 1097 z "},"ŏ":{"ha":865,"x_min":26,"x_max":839,"o":"m 433 -28 q 219 20 311 -28 q 77 156 128 68 q 26 358 26 243 q 77 561 26 474 q 219 697 128 649 q 433 744 311 744 q 647 697 554 744 q 789 561 739 649 q 839 358 839 474 q 789 156 839 243 q 647 20 739 68 q 433 -28 554 -28 m 433 190 q 538 235 500 190 q 576 358 576 281 q 538 481 576 436 q 433 526 500 526 q 328 481 367 526 q 289 358 289 436 q 328 235 289 281 q 433 190 367 190 m 432 819 q 310 848 364 819 q 226 927 257 876 q 196 1042 196 978 l 253 1042 q 303 922 253 969 q 431 875 353 875 q 562 922 510 875 q 614 1042 614 969 l 668 1042 q 638 927 668 978 q 553 848 607 876 q 432 819 500 819 z "},"Ő":{"ha":1194,"x_min":39,"x_max":1157,"o":"m 597 -35 q 304 31 431 -35 q 108 217 178 97 q 39 497 39 338 q 108 777 39 657 q 304 963 178 897 q 597 1029 431 1029 q 892 963 765 1029 q 1088 777 1018 897 q 1157 497 1157 657 q 1088 217 1157 338 q 892 31 1018 97 q 597 -35 765 -35 m 597 221 q 785 297 715 221 q 856 497 856 372 q 785 698 856 622 q 597 774 715 774 q 410 698 481 774 q 340 497 340 622 q 410 297 340 372 q 597 221 481 221 m 449 1111 l 581 1285 l 624 1250 l 490 1076 l 449 1111 m 675 1111 l 807 1285 l 850 1250 l 718 1076 l 675 1111 z "},"ő":{"ha":865,"x_min":26,"x_max":839,"o":"m 433 -28 q 219 20 311 -28 q 77 156 128 68 q 26 358 26 243 q 77 561 26 474 q 219 697 128 649 q 433 744 311 744 q 647 697 554 744 q 789 561 739 649 q 839 358 839 474 q 789 156 839 243 q 647 20 739 68 q 433 -28 554 -28 m 433 190 q 538 235 500 190 q 576 358 576 281 q 538 481 576 436 q 433 526 500 526 q 328 481 367 526 q 289 358 289 436 q 328 235 289 281 q 433 190 367 190 m 282 868 l 442 1069 l 485 1035 l 325 833 l 282 868 m 507 868 l 667 1069 l 711 1035 l 550 833 l 507 868 z "},"Ô":{"ha":1194,"x_min":39,"x_max":1157,"o":"m 597 -35 q 304 31 431 -35 q 108 217 178 97 q 39 497 39 338 q 108 777 39 657 q 304 963 178 897 q 597 1029 431 1029 q 892 963 765 1029 q 1088 777 1018 897 q 1157 497 1157 657 q 1088 217 1157 338 q 892 31 1018 97 q 597 -35 765 -35 m 597 221 q 785 297 715 221 q 856 497 856 372 q 785 698 856 622 q 597 774 715 774 q 410 698 481 774 q 340 497 340 622 q 410 297 340 372 q 597 221 481 221 m 385 1125 l 561 1278 l 636 1278 l 813 1125 l 776 1083 l 597 1236 l 422 1083 l 385 1125 z "},"ô":{"ha":865,"x_min":26,"x_max":839,"o":"m 433 -28 q 219 20 311 -28 q 77 156 128 68 q 26 358 26 243 q 77 561 26 474 q 219 697 128 649 q 433 744 311 744 q 647 697 554 744 q 789 561 739 649 q 839 358 839 474 q 789 156 839 243 q 647 20 739 68 q 433 -28 554 -28 m 433 190 q 538 235 500 190 q 576 358 576 281 q 538 481 576 436 q 433 526 500 526 q 328 481 367 526 q 289 358 289 436 q 328 235 289 281 q 433 190 367 190 m 189 861 l 396 1042 l 471 1042 l 678 861 l 642 819 l 433 1000 l 226 819 l 189 861 z "},"Œ":{"ha":1419,"x_min":39,"x_max":1389,"o":"m 553 -21 q 276 42 392 -21 q 99 222 160 106 q 39 497 39 339 q 99 772 39 656 q 275 952 160 889 q 553 1015 390 1015 q 724 994 643 1015 l 1375 994 l 1375 760 l 1010 760 l 1010 606 l 1319 606 l 1319 403 l 1010 403 l 1010 236 l 1389 236 l 1389 0 l 726 0 q 553 -21 642 -21 m 582 236 q 656 247 619 236 q 719 278 693 258 l 719 717 q 658 748 693 736 q 585 760 622 760 q 408 688 475 760 q 340 497 340 617 q 407 307 340 378 q 582 236 474 236 z "},"œ":{"ha":1393,"x_min":26,"x_max":1364,"o":"m 1364 358 q 1361 286 1364 308 l 854 286 q 913 199 863 232 q 1035 165 963 165 q 1144 186 1093 165 q 1222 239 1196 207 l 1360 117 q 1226 18 1317 54 q 1033 -18 1135 -18 q 845 13 928 -18 q 710 106 763 44 q 585 14 660 46 q 413 -18 510 -18 q 129 82 232 -18 q 26 358 26 182 q 129 635 26 535 q 413 735 232 735 q 578 706 506 735 q 701 621 651 676 q 986 735 792 735 q 1185 689 1100 735 q 1317 558 1271 643 q 1364 358 1364 474 m 1094 426 q 1058 516 1092 479 q 974 553 1024 553 q 888 518 922 553 q 847 426 853 483 l 1094 426 m 433 196 q 535 240 497 196 q 572 358 572 283 q 535 478 572 435 q 433 522 497 522 q 331 478 368 522 q 293 358 293 435 q 331 239 293 282 q 433 196 368 196 z "},"Ŕ":{"ha":1060,"x_min":74,"x_max":1050,"o":"m 826 -22 q 688 22 746 -22 q 606 146 629 67 l 571 261 q 534 328 558 303 q 474 353 510 353 l 375 353 l 375 0 l 74 0 l 74 994 l 590 994 q 884 910 779 994 q 989 675 989 826 q 931 506 989 578 q 768 404 874 435 l 768 403 q 826 364 806 390 q 860 296 847 338 l 885 210 q 906 174 892 188 q 939 160 919 160 q 971 168 954 160 q 1000 189 988 176 l 1050 53 q 951 -2 1010 18 q 826 -22 892 -22 m 546 547 q 650 578 611 547 q 689 663 689 610 q 650 748 689 717 q 546 779 611 779 l 375 779 l 375 547 l 546 547 m 460 1117 l 592 1290 l 635 1256 l 501 1082 l 460 1117 z "},"ŕ":{"ha":750,"x_min":49,"x_max":733,"o":"m 503 735 q 660 665 599 735 q 733 472 721 596 l 508 414 q 481 508 506 474 q 417 542 457 542 q 343 501 369 542 q 317 385 317 460 l 317 0 l 49 0 l 49 717 l 260 717 l 303 599 l 304 599 q 385 699 333 663 q 503 735 438 735 m 346 868 l 506 1069 l 549 1035 l 389 833 l 346 868 z "},"Ř":{"ha":1060,"x_min":74,"x_max":1050,"o":"m 826 -22 q 688 22 746 -22 q 606 146 629 67 l 571 261 q 534 328 558 303 q 474 353 510 353 l 375 353 l 375 0 l 74 0 l 74 994 l 590 994 q 884 910 779 994 q 989 675 989 826 q 931 506 989 578 q 768 404 874 435 l 768 403 q 826 364 806 390 q 860 296 847 338 l 885 210 q 906 174 892 188 q 939 160 919 160 q 971 168 954 160 q 1000 189 988 176 l 1050 53 q 951 -2 1010 18 q 826 -22 892 -22 m 546 547 q 650 578 611 547 q 689 663 689 610 q 650 748 689 717 q 546 779 611 779 l 375 779 l 375 547 l 546 547 m 274 1250 l 311 1292 l 486 1139 l 665 1292 l 701 1250 l 525 1097 l 450 1097 l 274 1250 z "},"ř":{"ha":750,"x_min":49,"x_max":733,"o":"m 503 735 q 660 665 599 735 q 733 472 721 596 l 508 414 q 481 508 506 474 q 417 542 457 542 q 343 501 369 542 q 317 385 317 460 l 317 0 l 49 0 l 49 717 l 260 717 l 303 599 l 304 599 q 385 699 333 663 q 503 735 438 735 m 131 1014 l 168 1056 l 375 875 l 583 1056 l 619 1014 l 413 833 l 338 833 l 131 1014 z "},"Ŗ":{"ha":1060,"x_min":74,"x_max":1050,"o":"m 826 -22 q 688 22 746 -22 q 606 146 629 67 l 571 261 q 534 328 558 303 q 474 353 510 353 l 375 353 l 375 0 l 74 0 l 74 994 l 590 994 q 884 910 779 994 q 989 675 989 826 q 931 506 989 578 q 768 404 874 435 l 768 403 q 826 364 806 390 q 860 296 847 338 l 885 210 q 906 174 892 188 q 939 160 919 160 q 971 168 954 160 q 1000 189 988 176 l 1050 53 q 951 -2 1010 18 q 826 -22 892 -22 m 546 547 q 650 578 611 547 q 689 663 689 610 q 650 748 689 717 q 546 779 611 779 l 375 779 l 375 547 l 546 547 m 408 -344 q 460 -350 439 -350 q 537 -331 504 -350 q 581 -267 569 -311 q 504 -286 546 -286 q 426 -259 458 -286 q 393 -187 393 -232 q 425 -116 393 -144 q 506 -87 457 -87 q 602 -130 565 -87 q 639 -239 639 -172 q 592 -359 640 -315 q 463 -403 543 -403 q 397 -396 436 -403 l 408 -344 z "},"ŗ":{"ha":750,"x_min":49,"x_max":733,"o":"m 503 735 q 660 665 599 735 q 733 472 721 596 l 508 414 q 481 508 506 474 q 417 542 457 542 q 343 501 369 542 q 317 385 317 460 l 317 0 l 49 0 l 49 717 l 260 717 l 303 599 l 304 599 q 385 699 333 663 q 503 735 438 735 m 82 -344 q 133 -350 113 -350 q 210 -331 178 -350 q 254 -267 243 -311 q 178 -286 219 -286 q 99 -259 132 -286 q 67 -187 67 -232 q 99 -116 67 -144 q 179 -87 131 -87 q 276 -130 239 -87 q 313 -239 313 -172 q 265 -359 314 -315 q 136 -403 217 -403 q 71 -396 110 -403 l 82 -344 z "},"Ś":{"ha":979,"x_min":32,"x_max":961,"o":"m 496 -35 q 174 49 299 -35 q 32 293 49 133 l 303 344 q 369 225 313 269 q 510 181 426 181 q 627 208 583 181 q 671 281 671 236 q 637 338 671 317 q 526 374 603 360 l 400 396 q 138 499 219 426 q 56 699 56 571 q 110 874 56 799 q 263 989 165 949 q 482 1029 360 1029 q 682 994 592 1029 q 829 892 772 958 q 897 740 886 826 l 631 682 q 581 778 624 743 q 476 814 539 814 q 384 789 418 814 q 350 722 350 764 q 381 665 350 686 q 482 633 413 644 l 611 614 q 877 514 793 588 q 961 310 961 440 q 902 124 961 201 q 738 6 843 46 q 496 -35 632 -35 m 447 1117 l 579 1290 l 622 1256 l 489 1082 l 447 1117 z "},"ś":{"ha":776,"x_min":22,"x_max":754,"o":"m 383 -22 q 128 42 226 -22 q 22 228 29 107 l 251 247 q 299 172 257 200 q 401 144 340 144 q 484 162 450 144 q 518 206 518 179 q 488 248 518 232 q 389 274 457 264 l 285 288 q 107 353 163 304 q 51 494 51 401 q 142 676 53 611 q 382 740 232 740 q 544 713 471 740 q 661 635 617 685 q 711 521 706 585 l 490 493 q 455 556 488 533 q 372 579 422 579 q 304 563 332 579 q 275 522 276 547 q 301 488 275 501 q 386 464 328 475 l 488 449 q 691 373 628 426 q 754 225 754 319 q 653 44 754 111 q 383 -22 551 -22 m 347 868 l 507 1069 l 550 1035 l 390 833 l 347 868 z "},"Ş":{"ha":979,"x_min":32,"x_max":961,"o":"m 961 310 q 903 126 961 203 q 742 8 846 49 q 504 -35 639 -33 l 500 -67 q 597 -99 561 -71 q 633 -175 633 -126 q 599 -255 633 -225 q 507 -285 564 -285 q 431 -264 467 -285 q 376 -211 394 -243 l 419 -176 q 456 -215 431 -200 q 507 -229 481 -229 q 558 -215 539 -229 q 578 -178 578 -201 q 553 -135 578 -151 q 488 -118 528 -118 l 439 -118 l 449 -33 q 159 60 271 -24 q 32 293 47 143 l 303 344 q 369 225 313 269 q 510 181 426 181 q 627 208 583 181 q 671 281 671 236 q 637 338 671 317 q 526 374 603 360 l 400 396 q 138 499 219 426 q 56 699 56 571 q 110 874 56 799 q 263 989 165 949 q 482 1029 360 1029 q 682 994 592 1029 q 829 892 772 958 q 897 740 886 826 l 631 682 q 581 778 624 743 q 476 814 539 814 q 384 789 418 814 q 350 722 350 764 q 381 665 350 686 q 482 633 413 644 l 611 614 q 877 514 793 588 q 961 310 961 440 z "},"ş":{"ha":776,"x_min":22,"x_max":754,"o":"m 754 225 q 661 50 754 115 q 411 -22 568 -15 l 406 -67 q 503 -99 467 -71 q 539 -175 539 -126 q 504 -255 539 -225 q 413 -285 469 -285 q 336 -264 372 -285 q 282 -211 300 -243 l 325 -176 q 361 -215 336 -200 q 413 -229 386 -229 q 464 -215 444 -229 q 483 -178 483 -201 q 458 -135 483 -151 q 393 -118 433 -118 l 344 -118 l 356 -22 q 119 49 210 -15 q 22 228 29 113 l 251 247 q 299 172 257 200 q 401 144 340 144 q 484 162 450 144 q 518 206 518 179 q 488 248 518 232 q 389 274 457 264 l 285 288 q 107 353 163 304 q 51 494 51 401 q 142 676 53 611 q 382 740 232 740 q 544 713 471 740 q 661 635 617 685 q 711 521 706 585 l 490 493 q 455 556 488 533 q 372 579 422 579 q 304 563 332 579 q 275 522 276 547 q 301 488 275 501 q 386 464 328 475 l 488 449 q 691 373 628 426 q 754 225 754 319 z "},"Š":{"ha":979,"x_min":32,"x_max":961,"o":"m 496 -35 q 174 49 299 -35 q 32 293 49 133 l 303 344 q 369 225 313 269 q 510 181 426 181 q 627 208 583 181 q 671 281 671 236 q 637 338 671 317 q 526 374 603 360 l 400 396 q 138 499 219 426 q 56 699 56 571 q 110 874 56 799 q 263 989 165 949 q 482 1029 360 1029 q 682 994 592 1029 q 829 892 772 958 q 897 740 886 826 l 631 682 q 581 778 624 743 q 476 814 539 814 q 384 789 418 814 q 350 722 350 764 q 381 665 350 686 q 482 633 413 644 l 611 614 q 877 514 793 588 q 961 310 961 440 q 902 124 961 201 q 738 6 843 46 q 496 -35 632 -35 m 261 1250 l 299 1292 l 474 1139 l 653 1292 l 689 1250 l 513 1097 l 438 1097 l 261 1250 z "},"š":{"ha":776,"x_min":22,"x_max":754,"o":"m 383 -22 q 128 42 226 -22 q 22 228 29 107 l 251 247 q 299 172 257 200 q 401 144 340 144 q 484 162 450 144 q 518 206 518 179 q 488 248 518 232 q 389 274 457 264 l 285 288 q 107 353 163 304 q 51 494 51 401 q 142 676 53 611 q 382 740 232 740 q 544 713 471 740 q 661 635 617 685 q 711 521 706 585 l 490 493 q 455 556 488 533 q 372 579 422 579 q 304 563 332 579 q 275 522 276 547 q 301 488 275 501 q 386 464 328 475 l 488 449 q 691 373 628 426 q 754 225 754 319 q 653 44 754 111 q 383 -22 551 -22 m 132 1014 l 169 1056 l 376 875 l 585 1056 l 621 1014 l 414 833 l 339 833 l 132 1014 z "},"Ș":{"ha":979,"x_min":32,"x_max":961,"o":"m 496 -35 q 174 49 299 -35 q 32 293 49 133 l 303 344 q 369 225 313 269 q 510 181 426 181 q 627 208 583 181 q 671 281 671 236 q 637 338 671 317 q 526 374 603 360 l 400 396 q 138 499 219 426 q 56 699 56 571 q 110 874 56 799 q 263 989 165 949 q 482 1029 360 1029 q 682 994 592 1029 q 829 892 772 958 q 897 740 886 826 l 631 682 q 581 778 624 743 q 476 814 539 814 q 384 789 418 814 q 350 722 350 764 q 381 665 350 686 q 482 633 413 644 l 611 614 q 877 514 793 588 q 961 310 961 440 q 902 124 961 201 q 738 6 843 46 q 496 -35 632 -35 m 378 -344 q 429 -350 408 -350 q 506 -331 474 -350 q 550 -267 539 -311 q 474 -286 515 -286 q 395 -259 428 -286 q 363 -187 363 -232 q 394 -116 363 -144 q 475 -87 426 -87 q 572 -130 535 -87 q 608 -239 608 -172 q 561 -359 610 -315 q 432 -403 513 -403 q 367 -396 406 -403 l 378 -344 z "},"ș":{"ha":776,"x_min":22,"x_max":754,"o":"m 383 -22 q 128 42 226 -22 q 22 228 29 107 l 251 247 q 299 172 257 200 q 401 144 340 144 q 484 162 450 144 q 518 206 518 179 q 488 248 518 232 q 389 274 457 264 l 285 288 q 107 353 163 304 q 51 494 51 401 q 142 676 53 611 q 382 740 232 740 q 544 713 471 740 q 661 635 617 685 q 711 521 706 585 l 490 493 q 455 556 488 533 q 372 579 422 579 q 304 563 332 579 q 275 522 276 547 q 301 488 275 501 q 386 464 328 475 l 488 449 q 691 373 628 426 q 754 225 754 319 q 653 44 754 111 q 383 -22 551 -22 m 285 -344 q 336 -350 315 -350 q 413 -331 381 -350 q 457 -267 446 -311 q 381 -286 422 -286 q 302 -259 335 -286 q 269 -187 269 -232 q 301 -116 269 -144 q 382 -87 333 -87 q 478 -130 442 -87 q 515 -239 515 -172 q 468 -359 517 -315 q 339 -403 419 -403 q 274 -396 313 -403 l 285 -344 z "},"Ŝ":{"ha":979,"x_min":32,"x_max":961,"o":"m 496 -35 q 174 49 299 -35 q 32 293 49 133 l 303 344 q 369 225 313 269 q 510 181 426 181 q 627 208 583 181 q 671 281 671 236 q 637 338 671 317 q 526 374 603 360 l 400 396 q 138 499 219 426 q 56 699 56 571 q 110 874 56 799 q 263 989 165 949 q 482 1029 360 1029 q 682 994 592 1029 q 829 892 772 958 q 897 740 886 826 l 631 682 q 581 778 624 743 q 476 814 539 814 q 384 789 418 814 q 350 722 350 764 q 381 665 350 686 q 482 633 413 644 l 611 614 q 877 514 793 588 q 961 310 961 440 q 902 124 961 201 q 738 6 843 46 q 496 -35 632 -35 m 261 1125 l 438 1278 l 513 1278 l 689 1125 l 653 1083 l 474 1236 l 299 1083 l 261 1125 z "},"ŝ":{"ha":776,"x_min":22,"x_max":754,"o":"m 383 -22 q 128 42 226 -22 q 22 228 29 107 l 251 247 q 299 172 257 200 q 401 144 340 144 q 484 162 450 144 q 518 206 518 179 q 488 248 518 232 q 389 274 457 264 l 285 288 q 107 353 163 304 q 51 494 51 401 q 142 676 53 611 q 382 740 232 740 q 544 713 471 740 q 661 635 617 685 q 711 521 706 585 l 490 493 q 455 556 488 533 q 372 579 422 579 q 304 563 332 579 q 275 522 276 547 q 301 488 275 501 q 386 464 328 475 l 488 449 q 691 373 628 426 q 754 225 754 319 q 653 44 754 111 q 383 -22 551 -22 m 133 861 l 340 1042 l 415 1042 l 622 861 l 586 819 l 378 1000 l 171 819 l 133 861 z "},"Ť":{"ha":908,"x_min":24,"x_max":885,"o":"m 304 739 l 24 739 l 24 994 l 885 994 l 885 739 l 604 739 l 604 0 l 304 0 l 304 739 m 242 1250 l 279 1292 l 454 1139 l 633 1292 l 669 1250 l 493 1097 l 418 1097 l 242 1250 z "},"ť":{"ha":725,"x_min":11,"x_max":711,"o":"m 439 -28 q 215 49 297 -28 q 133 258 133 126 l 133 518 l 11 518 l 11 717 l 133 717 l 133 906 l 401 964 l 400 717 l 669 717 l 669 518 l 400 518 l 401 304 q 431 216 401 249 q 506 183 461 183 q 581 200 549 183 q 647 253 614 217 l 704 72 q 585 -1 657 26 q 439 -28 513 -28 z "},"Ț":{"ha":908,"x_min":24,"x_max":885,"o":"m 304 739 l 24 739 l 24 994 l 885 994 l 885 739 l 604 739 l 604 0 l 304 0 l 304 739 m 354 -344 q 406 -350 385 -350 q 483 -331 450 -350 q 526 -267 515 -311 q 450 -286 492 -286 q 372 -259 404 -286 q 339 -187 339 -232 q 371 -116 339 -144 q 451 -87 403 -87 q 548 -130 511 -87 q 585 -239 585 -172 q 538 -359 586 -315 q 408 -403 489 -403 q 343 -396 382 -403 l 354 -344 z "},"ț":{"ha":725,"x_min":11,"x_max":704,"o":"m 439 -28 q 215 49 297 -28 q 133 258 133 126 l 133 518 l 11 518 l 11 717 l 133 717 l 133 906 l 401 964 l 400 717 l 669 717 l 669 518 l 400 518 l 401 304 q 431 216 401 249 q 506 183 461 183 q 581 200 549 183 q 647 253 614 217 l 704 72 q 585 -1 657 26 q 439 -28 513 -28 m 310 -344 q 361 -350 340 -350 q 438 -331 406 -350 q 482 -267 471 -311 q 406 -286 447 -286 q 327 -259 360 -286 q 294 -187 294 -232 q 326 -116 294 -144 q 407 -87 358 -87 q 503 -130 467 -87 q 540 -239 540 -172 q 493 -359 542 -315 q 364 -403 444 -403 q 299 -396 338 -403 l 310 -344 z "},"Ţ":{"ha":908,"x_min":24,"x_max":885,"o":"m 483 0 l 475 -67 q 572 -99 536 -71 q 608 -175 608 -126 q 574 -255 608 -225 q 482 -285 539 -285 q 406 -264 442 -285 q 351 -211 369 -243 l 394 -176 q 431 -215 406 -200 q 482 -229 456 -229 q 533 -215 514 -229 q 553 -178 553 -201 q 528 -135 553 -151 q 463 -118 503 -118 l 414 -118 l 428 0 l 304 0 l 304 739 l 24 739 l 24 994 l 885 994 l 885 739 l 604 739 l 604 0 l 483 0 z "},"ţ":{"ha":725,"x_min":11,"x_max":704,"o":"m 431 -67 q 528 -99 492 -71 q 564 -175 564 -126 q 529 -255 564 -225 q 438 -285 494 -285 q 361 -264 397 -285 q 307 -211 325 -243 l 350 -176 q 386 -215 361 -200 q 438 -229 411 -229 q 489 -215 469 -229 q 508 -178 508 -201 q 483 -135 508 -151 q 418 -118 458 -118 l 369 -118 l 381 -24 q 199 67 264 -8 q 133 258 133 142 l 133 518 l 11 518 l 11 717 l 133 717 l 133 906 l 401 964 l 400 717 l 669 717 l 669 518 l 400 518 l 401 304 q 431 216 401 249 q 506 183 461 183 q 581 200 549 183 q 647 253 614 217 l 704 72 q 585 -1 657 26 q 439 -28 513 -28 l 435 -28 l 431 -67 z "},"Ù":{"ha":1068,"x_min":64,"x_max":1004,"o":"m 535 -35 q 282 16 388 -35 q 120 163 176 67 q 64 390 64 258 l 64 994 l 365 994 l 365 400 q 411 270 365 319 q 535 221 457 221 q 658 269 613 221 q 703 401 703 318 l 703 994 l 1004 994 l 1004 390 q 948 163 1004 258 q 786 16 892 67 q 535 -35 681 -35 m 401 1256 l 444 1290 l 576 1117 l 533 1082 l 401 1256 z "},"ù":{"ha":829,"x_min":47,"x_max":781,"o":"m 269 -18 q 106 42 165 -18 q 47 210 47 103 l 47 717 l 315 717 l 315 300 q 338 230 315 256 q 401 204 361 204 q 482 238 451 204 q 513 326 513 271 l 513 717 l 781 717 l 781 0 l 557 0 l 514 139 l 513 139 q 413 23 475 64 q 269 -18 350 -18 m 249 1035 l 293 1069 l 453 868 l 410 833 l 249 1035 z "},"Ú":{"ha":1068,"x_min":64,"x_max":1004,"o":"m 535 -35 q 282 16 388 -35 q 120 163 176 67 q 64 390 64 258 l 64 994 l 365 994 l 365 400 q 411 270 365 319 q 535 221 457 221 q 658 269 613 221 q 703 401 703 318 l 703 994 l 1004 994 l 1004 390 q 948 163 1004 258 q 786 16 892 67 q 535 -35 681 -35 m 508 1117 l 640 1290 l 683 1256 l 550 1082 l 508 1117 z "},"ú":{"ha":829,"x_min":47,"x_max":781,"o":"m 269 -18 q 106 42 165 -18 q 47 210 47 103 l 47 717 l 315 717 l 315 300 q 338 230 315 256 q 401 204 361 204 q 482 238 451 204 q 513 326 513 271 l 513 717 l 781 717 l 781 0 l 557 0 l 514 139 l 513 139 q 413 23 475 64 q 269 -18 350 -18 m 382 868 l 542 1069 l 585 1035 l 425 833 l 382 868 z "},"Û":{"ha":1068,"x_min":64,"x_max":1004,"o":"m 535 -35 q 282 16 388 -35 q 120 163 176 67 q 64 390 64 258 l 64 994 l 365 994 l 365 400 q 411 270 365 319 q 535 221 457 221 q 658 269 613 221 q 703 401 703 318 l 703 994 l 1004 994 l 1004 390 q 948 163 1004 258 q 786 16 892 67 q 535 -35 681 -35 m 321 1125 l 497 1278 l 572 1278 l 749 1125 l 713 1083 l 533 1236 l 358 1083 l 321 1125 z "},"û":{"ha":829,"x_min":47,"x_max":781,"o":"m 269 -18 q 106 42 165 -18 q 47 210 47 103 l 47 717 l 315 717 l 315 300 q 338 230 315 256 q 401 204 361 204 q 482 238 451 204 q 513 326 513 271 l 513 717 l 781 717 l 781 0 l 557 0 l 514 139 l 513 139 q 413 23 475 64 q 269 -18 350 -18 m 168 861 l 375 1042 l 450 1042 l 657 861 l 621 819 l 413 1000 l 206 819 l 168 861 z "},"Ũ":{"ha":1068,"x_min":64,"x_max":1004,"o":"m 535 -35 q 282 16 388 -35 q 120 163 176 67 q 64 390 64 258 l 64 994 l 365 994 l 365 400 q 411 270 365 319 q 535 221 457 221 q 658 269 613 221 q 703 401 703 318 l 703 994 l 1004 994 l 1004 390 q 948 163 1004 258 q 786 16 892 67 q 535 -35 681 -35 m 640 1083 q 574 1103 601 1083 q 511 1164 547 1124 q 465 1212 482 1197 q 424 1226 447 1226 q 367 1190 389 1226 q 346 1097 346 1154 l 290 1097 q 328 1230 290 1178 q 425 1282 365 1282 q 477 1270 454 1282 q 514 1244 500 1258 q 557 1197 528 1231 q 599 1153 581 1168 q 639 1139 617 1139 q 697 1176 674 1139 q 719 1269 719 1213 l 776 1269 q 738 1136 776 1189 q 640 1083 700 1083 z "},"ũ":{"ha":829,"x_min":47,"x_max":781,"o":"m 269 -18 q 106 42 165 -18 q 47 210 47 103 l 47 717 l 315 717 l 315 300 q 338 230 315 256 q 401 204 361 204 q 482 238 451 204 q 513 326 513 271 l 513 717 l 781 717 l 781 0 l 557 0 l 514 139 l 513 139 q 413 23 475 64 q 269 -18 350 -18 m 515 819 q 451 839 479 819 q 393 893 424 858 q 343 946 363 929 q 299 963 324 963 q 242 926 264 963 q 221 833 221 890 l 165 833 q 203 966 165 914 q 300 1018 240 1018 q 365 999 338 1018 q 421 946 392 981 q 445 919 426 940 q 481 886 464 897 q 515 875 499 875 q 573 912 550 875 q 596 1006 596 949 l 651 1006 q 613 872 651 925 q 515 819 575 819 z "},"Ū":{"ha":1068,"x_min":64,"x_max":1004,"o":"m 535 -35 q 282 16 388 -35 q 120 163 176 67 q 64 390 64 258 l 64 994 l 365 994 l 365 400 q 411 270 365 319 q 535 221 457 221 q 658 269 613 221 q 703 401 703 318 l 703 994 l 1004 994 l 1004 390 q 948 163 1004 258 q 786 16 892 67 q 535 -35 681 -35 m 308 1157 l 760 1157 l 760 1101 l 308 1101 l 308 1157 z "},"ū":{"ha":829,"x_min":47,"x_max":781,"o":"m 269 -18 q 106 42 165 -18 q 47 210 47 103 l 47 717 l 315 717 l 315 300 q 338 230 315 256 q 401 204 361 204 q 482 238 451 204 q 513 326 513 271 l 513 717 l 781 717 l 781 0 l 557 0 l 514 139 l 513 139 q 413 23 475 64 q 269 -18 350 -18 m 186 879 l 638 879 l 638 824 l 186 824 l 186 879 z "},"Ŭ":{"ha":1068,"x_min":64,"x_max":1004,"o":"m 535 -35 q 282 16 388 -35 q 120 163 176 67 q 64 390 64 258 l 64 994 l 365 994 l 365 400 q 411 270 365 319 q 535 221 457 221 q 658 269 613 221 q 703 401 703 318 l 703 994 l 1004 994 l 1004 390 q 948 163 1004 258 q 786 16 892 67 q 535 -35 681 -35 m 533 1097 q 394 1148 449 1097 q 339 1278 339 1199 l 396 1278 q 435 1188 396 1224 q 533 1153 474 1153 q 634 1188 594 1153 q 674 1278 674 1224 l 728 1278 q 673 1149 728 1200 q 533 1097 618 1097 z "},"ŭ":{"ha":829,"x_min":47,"x_max":781,"o":"m 269 -18 q 106 42 165 -18 q 47 210 47 103 l 47 717 l 315 717 l 315 300 q 338 230 315 256 q 401 204 361 204 q 482 238 451 204 q 513 326 513 271 l 513 717 l 781 717 l 781 0 l 557 0 l 514 139 l 513 139 q 413 23 475 64 q 269 -18 350 -18 m 411 819 q 290 848 343 819 q 206 927 236 876 q 175 1042 175 978 l 232 1042 q 282 922 232 969 q 410 875 332 875 q 541 922 489 875 q 593 1042 593 969 l 647 1042 q 617 927 647 978 q 533 848 586 876 q 411 819 479 819 z "},"Ů":{"ha":1068,"x_min":64,"x_max":1004,"o":"m 535 -35 q 282 16 388 -35 q 120 163 176 67 q 64 390 64 258 l 64 994 l 365 994 l 365 400 q 411 270 365 319 q 535 221 457 221 q 658 269 613 221 q 703 401 703 318 l 703 994 l 1004 994 l 1004 390 q 948 163 1004 258 q 786 16 892 67 q 535 -35 681 -35 m 533 1083 q 439 1121 476 1083 q 401 1215 401 1158 q 439 1310 401 1272 q 533 1347 476 1347 q 628 1310 590 1347 q 665 1215 665 1272 q 628 1121 665 1158 q 533 1083 590 1083 m 532 1139 q 587 1160 565 1139 q 608 1215 608 1182 q 587 1270 608 1249 q 532 1292 565 1292 q 477 1270 499 1292 q 456 1215 456 1249 q 477 1160 456 1182 q 532 1139 499 1139 z "},"ů":{"ha":829,"x_min":47,"x_max":781,"o":"m 269 -18 q 106 42 165 -18 q 47 210 47 103 l 47 717 l 315 717 l 315 300 q 338 230 315 256 q 401 204 361 204 q 482 238 451 204 q 513 326 513 271 l 513 717 l 781 717 l 781 0 l 557 0 l 514 139 l 513 139 q 413 23 475 64 q 269 -18 350 -18 m 413 819 q 318 857 356 819 q 281 951 281 894 q 318 1046 281 1008 q 413 1083 356 1083 q 507 1046 469 1083 q 544 951 544 1008 q 508 857 544 894 q 413 819 471 819 m 411 875 q 467 897 446 875 q 488 951 488 918 q 467 1006 488 985 q 411 1028 446 1028 q 357 1006 379 1028 q 335 951 335 985 q 357 897 335 918 q 411 875 379 875 z "},"Ű":{"ha":1068,"x_min":64,"x_max":1004,"o":"m 535 -35 q 282 16 388 -35 q 120 163 176 67 q 64 390 64 258 l 64 994 l 365 994 l 365 400 q 411 270 365 319 q 535 221 457 221 q 658 269 613 221 q 703 401 703 318 l 703 994 l 1004 994 l 1004 390 q 948 163 1004 258 q 786 16 892 67 q 535 -35 681 -35 m 385 1111 l 517 1285 l 560 1250 l 426 1076 l 385 1111 m 611 1111 l 743 1285 l 786 1250 l 654 1076 l 611 1111 z "},"ű":{"ha":829,"x_min":47,"x_max":781,"o":"m 269 -18 q 106 42 165 -18 q 47 210 47 103 l 47 717 l 315 717 l 315 300 q 338 230 315 256 q 401 204 361 204 q 482 238 451 204 q 513 326 513 271 l 513 717 l 781 717 l 781 0 l 557 0 l 514 139 l 513 139 q 413 23 475 64 q 269 -18 350 -18 m 261 868 l 421 1069 l 464 1035 l 304 833 l 261 868 m 486 868 l 646 1069 l 690 1035 l 529 833 l 486 868 z "},"Ü":{"ha":1068,"x_min":64,"x_max":1004,"o":"m 535 -35 q 282 16 388 -35 q 120 163 176 67 q 64 390 64 258 l 64 994 l 365 994 l 365 400 q 411 270 365 319 q 535 221 457 221 q 658 269 613 221 q 703 401 703 318 l 703 994 l 1004 994 l 1004 390 q 948 163 1004 258 q 786 16 892 67 q 535 -35 681 -35 m 349 1081 q 255 1117 292 1081 q 218 1211 218 1154 q 255 1303 218 1267 q 349 1340 292 1340 q 442 1303 406 1340 q 479 1211 479 1267 q 442 1117 479 1154 q 349 1081 406 1081 m 719 1081 q 626 1117 663 1081 q 590 1211 590 1154 q 627 1304 590 1268 q 719 1340 664 1340 q 813 1304 776 1340 q 850 1211 850 1268 q 813 1117 850 1154 q 719 1081 776 1081 z "},"ü":{"ha":829,"x_min":47,"x_max":781,"o":"m 269 -18 q 106 42 165 -18 q 47 210 47 103 l 47 717 l 315 717 l 315 300 q 338 230 315 256 q 401 204 361 204 q 482 238 451 204 q 513 326 513 271 l 513 717 l 781 717 l 781 0 l 557 0 l 514 139 l 513 139 q 413 23 475 64 q 269 -18 350 -18 m 225 814 q 131 849 168 814 q 94 939 94 885 q 131 1028 94 993 q 225 1064 168 1064 q 319 1028 282 1064 q 356 939 356 993 q 319 849 356 885 q 225 814 282 814 m 597 814 q 503 849 540 814 q 467 939 467 885 q 503 1028 467 993 q 597 1064 540 1064 q 691 1028 654 1064 q 728 939 728 993 q 691 849 728 885 q 597 814 654 814 z "},"Ų":{"ha":1068,"x_min":64,"x_max":1004,"o":"m 1004 994 l 1004 390 q 926 129 1004 233 q 706 -14 849 25 q 561 -82 607 -49 q 515 -165 515 -115 q 534 -212 515 -194 q 583 -229 553 -229 q 631 -215 606 -229 q 679 -179 657 -201 l 718 -215 q 653 -266 692 -247 q 581 -285 615 -285 q 492 -253 525 -285 q 458 -169 458 -221 q 542 -35 458 -89 l 535 -35 q 282 16 388 -35 q 120 163 176 67 q 64 390 64 258 l 64 994 l 365 994 l 365 400 q 411 270 365 319 q 535 221 457 221 q 658 269 613 221 q 703 401 703 318 l 703 994 l 1004 994 z "},"ų":{"ha":829,"x_min":47,"x_max":781,"o":"m 781 717 l 781 0 l 779 0 q 603 -77 657 -43 q 550 -165 550 -111 q 569 -212 550 -194 q 618 -229 588 -229 q 666 -215 640 -229 q 714 -179 692 -201 l 753 -215 q 688 -266 726 -247 q 615 -285 650 -285 q 526 -253 560 -285 q 493 -171 493 -222 q 531 -75 493 -115 q 642 0 568 -35 l 557 0 l 514 139 l 513 139 q 413 23 475 64 q 269 -18 350 -18 q 106 42 165 -18 q 47 210 47 103 l 47 717 l 315 717 l 315 300 q 338 230 315 256 q 401 204 361 204 q 482 238 451 204 q 513 326 513 271 l 513 717 l 781 717 z "},"Ẁ":{"ha":1664,"x_min":4,"x_max":1660,"o":"m 4 994 l 307 994 l 475 279 l 478 279 l 651 994 l 1013 994 l 1190 279 l 1193 279 l 1357 994 l 1660 994 l 1379 0 l 1000 0 l 835 704 l 832 704 l 664 0 l 285 0 l 4 994 m 700 1256 l 743 1290 l 875 1117 l 832 1082 l 700 1256 z "},"ẁ":{"ha":1308,"x_min":4,"x_max":1304,"o":"m 4 717 l 271 717 l 381 239 l 382 239 l 538 717 l 771 717 l 926 232 l 928 232 l 1038 717 l 1304 717 l 1093 0 l 797 0 l 656 446 l 653 446 l 513 0 l 215 0 l 4 717 m 492 1035 l 536 1069 l 696 868 l 653 833 l 492 1035 z "},"Ẃ":{"ha":1664,"x_min":4,"x_max":1660,"o":"m 4 994 l 307 994 l 475 279 l 478 279 l 651 994 l 1013 994 l 1190 279 l 1193 279 l 1357 994 l 1660 994 l 1379 0 l 1000 0 l 835 704 l 832 704 l 664 0 l 285 0 l 4 994 m 807 1117 l 939 1290 l 982 1256 l 849 1082 l 807 1117 z "},"ẃ":{"ha":1308,"x_min":4,"x_max":1304,"o":"m 4 717 l 271 717 l 381 239 l 382 239 l 538 717 l 771 717 l 926 232 l 928 232 l 1038 717 l 1304 717 l 1093 0 l 797 0 l 656 446 l 653 446 l 513 0 l 215 0 l 4 717 m 625 868 l 785 1069 l 828 1035 l 668 833 l 625 868 z "},"Ŵ":{"ha":1664,"x_min":4,"x_max":1660,"o":"m 4 994 l 307 994 l 475 279 l 478 279 l 651 994 l 1013 994 l 1190 279 l 1193 279 l 1357 994 l 1660 994 l 1379 0 l 1000 0 l 835 704 l 832 704 l 664 0 l 285 0 l 4 994 m 619 1125 l 796 1278 l 871 1278 l 1047 1125 l 1011 1083 l 832 1236 l 657 1083 l 619 1125 z "},"ŵ":{"ha":1308,"x_min":4,"x_max":1304,"o":"m 4 717 l 271 717 l 381 239 l 382 239 l 538 717 l 771 717 l 926 232 l 928 232 l 1038 717 l 1304 717 l 1093 0 l 797 0 l 656 446 l 653 446 l 513 0 l 215 0 l 4 717 m 411 861 l 618 1042 l 693 1042 l 900 861 l 864 819 l 656 1000 l 449 819 l 411 861 z "},"Ẅ":{"ha":1664,"x_min":4,"x_max":1660,"o":"m 4 994 l 307 994 l 475 279 l 478 279 l 651 994 l 1013 994 l 1190 279 l 1193 279 l 1357 994 l 1660 994 l 1379 0 l 1000 0 l 835 704 l 832 704 l 664 0 l 285 0 l 4 994 m 647 1081 q 553 1117 590 1081 q 517 1211 517 1154 q 553 1303 517 1267 q 647 1340 590 1340 q 741 1303 704 1340 q 778 1211 778 1267 q 741 1117 778 1154 q 647 1081 704 1081 m 1018 1081 q 925 1117 961 1081 q 889 1211 889 1154 q 926 1304 889 1268 q 1018 1340 963 1340 q 1112 1304 1075 1340 q 1149 1211 1149 1268 q 1112 1117 1149 1154 q 1018 1081 1075 1081 z "},"ẅ":{"ha":1308,"x_min":4,"x_max":1304,"o":"m 4 717 l 271 717 l 381 239 l 382 239 l 538 717 l 771 717 l 926 232 l 928 232 l 1038 717 l 1304 717 l 1093 0 l 797 0 l 656 446 l 653 446 l 513 0 l 215 0 l 4 717 m 468 814 q 374 849 411 814 q 338 939 338 885 q 374 1028 338 993 q 468 1064 411 1064 q 562 1028 525 1064 q 599 939 599 993 q 562 849 599 885 q 468 814 525 814 m 840 814 q 747 849 783 814 q 710 939 710 885 q 747 1028 710 993 q 840 1064 783 1064 q 934 1028 897 1064 q 971 939 971 993 q 934 849 971 885 q 840 814 897 814 z "},"Ỳ":{"ha":990,"x_min":4,"x_max":986,"o":"m 349 339 l 4 994 l 318 994 l 499 597 l 501 597 l 668 994 l 986 994 l 650 339 l 650 0 l 349 0 l 349 339 m 365 1256 l 408 1290 l 540 1117 l 497 1082 l 365 1256 z "},"ỳ":{"ha":832,"x_min":-15,"x_max":783,"o":"m 335 -319 q 138 -291 232 -319 q -15 -215 43 -262 l 58 -14 q 175 -78 107 -54 q 310 -101 243 -101 q 460 -53 404 -101 q 517 75 517 -6 l 517 133 l 515 133 q 425 24 483 64 q 294 -15 367 -15 q 115 56 181 -15 q 50 250 50 128 l 50 717 l 318 717 l 318 307 q 342 228 318 257 q 408 199 367 199 q 485 231 456 199 q 515 315 515 263 l 515 717 l 783 717 l 783 65 q 728 -138 783 -51 q 571 -272 672 -225 q 335 -319 469 -319 m 256 1035 l 300 1069 l 460 868 l 417 833 l 256 1035 z "},"Ý":{"ha":990,"x_min":4,"x_max":986,"o":"m 349 339 l 4 994 l 318 994 l 499 597 l 501 597 l 668 994 l 986 994 l 650 339 l 650 0 l 349 0 l 349 339 m 472 1117 l 604 1290 l 647 1256 l 514 1082 l 472 1117 z "},"ý":{"ha":832,"x_min":-15,"x_max":783,"o":"m 335 -319 q 138 -291 232 -319 q -15 -215 43 -262 l 58 -14 q 175 -78 107 -54 q 310 -101 243 -101 q 460 -53 404 -101 q 517 75 517 -6 l 517 133 l 515 133 q 425 24 483 64 q 294 -15 367 -15 q 115 56 181 -15 q 50 250 50 128 l 50 717 l 318 717 l 318 307 q 342 228 318 257 q 408 199 367 199 q 485 231 456 199 q 515 315 515 263 l 515 717 l 783 717 l 783 65 q 728 -138 783 -51 q 571 -272 672 -225 q 335 -319 469 -319 m 388 868 l 547 1069 l 590 1035 l 431 833 l 388 868 z "},"Ÿ":{"ha":990,"x_min":4,"x_max":986,"o":"m 349 339 l 4 994 l 318 994 l 499 597 l 501 597 l 668 994 l 986 994 l 650 339 l 650 0 l 349 0 l 349 339 m 313 1081 q 219 1117 256 1081 q 182 1211 182 1154 q 219 1303 182 1267 q 313 1340 256 1340 q 406 1303 369 1340 q 443 1211 443 1267 q 406 1117 443 1154 q 313 1081 369 1081 m 683 1081 q 590 1117 626 1081 q 554 1211 554 1154 q 591 1304 554 1268 q 683 1340 628 1340 q 777 1304 740 1340 q 814 1211 814 1268 q 777 1117 814 1154 q 683 1081 740 1081 z "},"ÿ":{"ha":832,"x_min":-15,"x_max":783,"o":"m 335 -319 q 138 -291 232 -319 q -15 -215 43 -262 l 58 -14 q 175 -78 107 -54 q 310 -101 243 -101 q 460 -53 404 -101 q 517 75 517 -6 l 517 133 l 515 133 q 425 24 483 64 q 294 -15 367 -15 q 115 56 181 -15 q 50 250 50 128 l 50 717 l 318 717 l 318 307 q 342 228 318 257 q 408 199 367 199 q 485 231 456 199 q 515 315 515 263 l 515 717 l 783 717 l 783 65 q 728 -138 783 -51 q 571 -272 672 -225 q 335 -319 469 -319 m 232 814 q 138 849 175 814 q 101 939 101 885 q 138 1028 101 993 q 232 1064 175 1064 q 326 1028 289 1064 q 363 939 363 993 q 326 849 363 885 q 232 814 289 814 m 604 814 q 510 849 547 814 q 474 939 474 885 q 510 1028 474 993 q 604 1064 547 1064 q 698 1028 661 1064 q 735 939 735 993 q 698 849 735 885 q 604 814 661 814 z "},"Ŷ":{"ha":990,"x_min":4,"x_max":986,"o":"m 349 339 l 4 994 l 318 994 l 499 597 l 501 597 l 668 994 l 986 994 l 650 339 l 650 0 l 349 0 l 349 339 m 286 1125 l 463 1278 l 538 1278 l 714 1125 l 678 1083 l 499 1236 l 324 1083 l 286 1125 z "},"ŷ":{"ha":832,"x_min":-15,"x_max":783,"o":"m 335 -319 q 138 -291 232 -319 q -15 -215 43 -262 l 58 -14 q 175 -78 107 -54 q 310 -101 243 -101 q 460 -53 404 -101 q 517 75 517 -6 l 517 133 l 515 133 q 425 24 483 64 q 294 -15 367 -15 q 115 56 181 -15 q 50 250 50 128 l 50 717 l 318 717 l 318 307 q 342 228 318 257 q 408 199 367 199 q 485 231 456 199 q 515 315 515 263 l 515 717 l 783 717 l 783 65 q 728 -138 783 -51 q 571 -272 672 -225 q 335 -319 469 -319 m 175 861 l 382 1042 l 457 1042 l 664 861 l 628 819 l 419 1000 l 213 819 l 175 861 z "},"Ź":{"ha":907,"x_min":44,"x_max":863,"o":"m 44 260 l 514 761 l 58 761 l 58 994 l 849 994 l 849 729 l 379 233 l 863 233 l 863 0 l 44 0 l 44 260 m 440 1117 l 572 1290 l 615 1256 l 482 1082 l 440 1117 z "},"ź":{"ha":744,"x_min":33,"x_max":711,"o":"m 33 219 l 386 525 l 47 525 l 47 717 l 697 717 l 697 499 l 344 193 l 711 193 l 711 0 l 33 0 l 33 219 m 351 868 l 511 1069 l 554 1035 l 394 833 l 351 868 z "},"Ż":{"ha":907,"x_min":44,"x_max":863,"o":"m 44 260 l 514 761 l 58 761 l 58 994 l 849 994 l 849 729 l 379 233 l 863 233 l 863 0 l 44 0 l 44 260 m 465 1081 q 365 1119 404 1081 q 325 1215 325 1157 q 365 1313 325 1275 q 465 1351 404 1351 q 566 1313 526 1351 q 606 1215 606 1275 q 566 1119 606 1157 q 465 1081 526 1081 z "},"ż":{"ha":744,"x_min":33,"x_max":711,"o":"m 33 219 l 386 525 l 47 525 l 47 717 l 697 717 l 697 499 l 344 193 l 711 193 l 711 0 l 33 0 l 33 219 m 381 814 q 280 851 319 814 q 240 949 240 889 q 280 1046 240 1008 q 381 1083 319 1083 q 481 1046 442 1083 q 521 949 521 1008 q 481 851 521 889 q 381 814 442 814 z "},"Ž":{"ha":907,"x_min":44,"x_max":863,"o":"m 44 260 l 514 761 l 58 761 l 58 994 l 849 994 l 849 729 l 379 233 l 863 233 l 863 0 l 44 0 l 44 260 m 254 1250 l 292 1292 l 467 1139 l 646 1292 l 682 1250 l 506 1097 l 431 1097 l 254 1250 z "},"ž":{"ha":744,"x_min":33,"x_max":711,"o":"m 33 219 l 386 525 l 47 525 l 47 717 l 697 717 l 697 499 l 344 193 l 711 193 l 711 0 l 33 0 l 33 219 m 136 1014 l 174 1056 l 381 875 l 589 1056 l 625 1014 l 418 833 l 343 833 l 136 1014 z "},"ẞ":{"ha":1010,"x_min":64,"x_max":979,"o":"m 865 421 q 952 330 925 378 q 979 224 979 282 q 902 49 979 113 q 692 -15 825 -15 q 524 15 599 -15 q 411 99 449 46 l 490 269 q 541 215 508 236 q 613 194 574 194 q 653 208 636 194 q 671 243 671 221 q 656 280 671 263 q 608 317 640 297 l 549 353 q 460 428 488 390 q 433 515 433 467 q 482 622 433 576 q 619 697 531 668 q 625 728 625 719 q 595 785 625 765 q 518 806 565 806 q 406 767 446 806 q 365 664 365 729 l 365 0 l 64 0 l 64 657 q 117 849 64 768 q 272 974 171 931 q 508 1018 372 1018 q 813 943 701 1018 q 924 731 924 868 q 913 649 924 690 q 885 579 903 608 q 789 561 822 578 q 756 519 756 544 q 796 468 756 493 l 865 421 z "},"ß":{"ha":943,"x_min":64,"x_max":913,"o":"m 803 418 q 885 332 858 378 q 913 224 913 286 q 877 100 913 154 q 778 15 842 46 q 636 -15 715 -15 q 485 15 553 -15 q 379 99 417 46 l 458 269 q 508 216 476 236 q 575 196 539 196 q 619 208 603 196 q 635 243 635 221 q 581 313 635 281 l 513 353 q 428 428 454 389 q 401 517 401 467 q 449 641 401 588 q 583 728 497 694 q 590 765 590 743 q 560 822 590 803 q 474 842 529 842 q 372 803 410 842 q 335 700 335 765 l 335 0 l 64 0 l 64 694 q 114 883 64 801 q 257 1010 164 965 q 474 1054 350 1054 q 674 1019 586 1054 q 810 920 761 985 q 858 768 858 856 q 848 685 858 726 q 819 611 838 643 q 690 529 690 589 q 702 497 690 513 q 742 463 714 482 l 803 418 z "},"&":{"ha":1106,"x_min":26,"x_max":1106,"o":"m 1106 0 l 813 0 l 736 72 q 408 -25 585 -25 q 130 52 233 -25 q 26 269 26 129 q 73 430 26 365 q 222 540 119 494 q 157 728 157 633 q 201 878 157 813 q 322 981 244 944 q 494 1017 399 1017 q 663 985 586 1017 q 785 891 739 954 q 831 738 831 828 q 771 581 831 643 q 581 479 711 519 l 751 324 q 890 517 836 406 l 1042 385 q 894 193 981 276 l 1106 0 m 503 832 q 426 801 456 832 q 396 724 396 771 q 449 601 396 663 q 575 655 535 624 q 615 729 615 686 q 583 803 615 775 q 503 832 551 832 m 438 160 q 592 206 511 160 l 369 403 q 299 359 321 388 q 278 283 278 331 q 323 195 278 231 q 438 160 368 160 z "},"!":{"ha":421,"x_min":60,"x_max":361,"o":"m 75 722 l 75 994 l 346 994 l 346 722 l 276 333 l 144 333 l 75 722 m 210 -15 q 102 26 144 -15 q 60 131 60 67 q 102 235 60 194 q 210 276 144 276 q 319 235 276 276 q 361 131 361 194 q 319 26 361 67 q 210 -15 276 -15 z "},"¡":{"ha":421,"x_min":60,"x_max":361,"o":"m 210 746 q 318 705 275 746 q 361 600 361 664 q 318 496 361 536 q 210 456 275 456 q 102 496 144 456 q 60 600 60 536 q 102 705 60 664 q 210 746 144 746 m 346 8 l 346 -264 l 75 -264 l 75 8 l 144 397 l 276 397 l 346 8 z "},"?":{"ha":843,"x_min":14,"x_max":811,"o":"m 286 333 q 312 476 286 424 q 400 572 338 529 l 449 604 q 503 653 486 629 q 521 707 521 676 q 491 771 521 747 q 414 794 461 794 q 324 757 360 794 q 282 650 289 719 l 14 703 q 74 876 21 803 q 217 990 128 950 q 419 1029 306 1029 q 625 992 536 1029 q 763 889 714 956 q 811 733 811 822 q 768 593 811 653 q 653 494 725 533 l 601 467 q 541 413 560 443 q 522 333 522 383 l 286 333 m 404 -15 q 296 26 339 -15 q 253 131 253 67 q 296 235 253 194 q 404 275 339 275 q 513 235 469 275 q 556 131 556 194 q 513 26 556 67 q 404 -15 469 -15 z "},"¿":{"ha":843,"x_min":14,"x_max":811,"o":"m 422 746 q 530 705 488 746 q 572 600 572 664 q 530 496 572 536 q 422 456 488 456 q 313 496 356 456 q 271 600 271 536 q 313 705 271 664 q 422 746 356 746 m 540 397 q 515 254 540 307 q 425 158 489 201 l 376 126 q 323 78 340 101 q 306 24 306 54 q 335 -40 306 -17 q 411 -64 365 -64 q 502 -26 467 -64 q 543 81 538 11 l 811 28 q 751 -146 804 -72 q 608 -259 697 -219 q 406 -299 519 -299 q 200 -262 289 -299 q 63 -158 111 -225 q 14 -3 14 -92 q 57 138 14 78 q 172 236 100 197 l 224 264 q 285 317 267 288 q 303 397 303 347 l 540 397 z "},".":{"ha":372,"x_min":35,"x_max":338,"o":"m 186 -15 q 78 26 121 -15 q 35 131 35 67 q 78 235 35 194 q 186 276 121 276 q 294 235 251 276 q 338 131 338 194 q 294 26 338 67 q 186 -15 251 -15 z "},",":{"ha":381,"x_min":36,"x_max":346,"o":"m 49 -182 q 103 -189 79 -189 q 227 -135 178 -189 q 286 13 276 -81 q 190 -14 238 -14 q 85 27 128 -14 q 43 131 43 68 q 85 234 43 193 q 188 275 126 275 q 303 217 260 275 q 346 61 346 160 q 315 -101 346 -32 q 230 -207 285 -169 q 104 -244 175 -244 q 36 -236 72 -244 l 49 -182 z "},":":{"ha":372,"x_min":35,"x_max":338,"o":"m 186 471 q 78 512 121 471 q 35 617 35 553 q 78 721 35 681 q 186 761 121 761 q 294 721 251 761 q 338 617 338 681 q 294 512 338 553 q 186 471 251 471 m 186 -15 q 78 26 121 -15 q 35 131 35 67 q 78 235 35 194 q 186 276 121 276 q 294 235 251 276 q 338 131 338 194 q 294 26 338 67 q 186 -15 251 -15 z "},";":{"ha":382,"x_min":38,"x_max":347,"o":"m 50 -182 q 104 -189 81 -189 q 228 -135 179 -189 q 288 13 278 -81 q 192 -14 239 -14 q 87 27 129 -14 q 44 131 44 68 q 86 234 44 193 q 189 275 128 275 q 304 217 261 275 q 347 61 347 160 q 317 -101 347 -32 q 231 -207 286 -169 q 106 -244 176 -244 q 38 -236 74 -244 l 50 -182 m 194 471 q 86 512 129 471 q 43 617 43 553 q 86 722 43 681 q 194 763 129 763 q 303 722 260 763 q 346 617 346 681 q 303 512 346 553 q 194 471 260 471 z "},"…":{"ha":1081,"x_min":35,"x_max":1046,"o":"m 186 -15 q 78 26 121 -15 q 35 131 35 67 q 78 235 35 194 q 186 276 121 276 q 294 235 251 276 q 338 131 338 194 q 294 26 338 67 q 186 -15 251 -15 m 540 -15 q 432 26 475 -15 q 389 131 389 67 q 432 235 389 194 q 540 276 475 276 q 649 235 606 276 q 692 131 692 194 q 649 26 692 67 q 540 -15 606 -15 m 894 -15 q 786 26 829 -15 q 743 131 743 67 q 786 235 743 194 q 894 276 829 276 q 1003 235 960 276 q 1046 131 1046 194 q 1003 26 1046 67 q 894 -15 960 -15 z "},"·":{"ha":372,"x_min":35,"x_max":338,"o":"m 186 285 q 78 326 121 285 q 35 431 35 367 q 78 535 35 494 q 186 576 121 576 q 294 535 251 576 q 338 431 338 494 q 294 326 338 367 q 186 285 251 285 z "},"•":{"ha":485,"x_min":35,"x_max":449,"o":"m 242 229 q 93 286 151 229 q 35 431 35 343 q 93 575 35 518 q 242 632 151 632 q 390 575 332 632 q 449 431 449 518 q 390 286 449 343 q 242 229 332 229 z "},"-":{"ha":551,"x_min":49,"x_max":501,"o":"m 49 468 l 501 468 l 501 296 l 49 296 l 49 468 z "},"–":{"ha":858,"x_min":49,"x_max":810,"o":"m 49 403 l 810 403 l 810 347 l 49 347 l 49 403 z "},"—":{"ha":1242,"x_min":49,"x_max":1192,"o":"m 49 403 l 1192 403 l 1192 347 l 49 347 l 49 403 z "},"_":{"ha":694,"x_min":0,"x_max":694,"o":"m 0 0 l 694 0 l 694 -56 l 0 -56 l 0 0 z "},"'":{"ha":147,"x_min":46,"x_max":103,"o":"m 47 994 l 103 994 l 103 600 l 46 600 l 47 994 z "},"‚":{"ha":381,"x_min":36,"x_max":346,"o":"m 49 -182 q 103 -189 79 -189 q 227 -135 178 -189 q 286 13 276 -81 q 190 -14 238 -14 q 85 27 128 -14 q 43 131 43 68 q 85 234 43 193 q 188 275 126 275 q 303 217 260 275 q 346 61 346 160 q 315 -101 346 -32 q 230 -207 285 -169 q 104 -244 175 -244 q 36 -236 72 -244 l 49 -182 z "},"‘":{"ha":381,"x_min":35,"x_max":344,"o":"m 332 972 q 278 979 301 979 q 155 925 204 979 q 96 778 106 871 q 192 804 144 804 q 295 764 253 804 q 338 663 338 724 q 297 557 338 599 q 193 515 256 515 q 78 573 121 515 q 35 729 35 631 q 65 890 35 821 q 151 997 96 960 q 276 1035 206 1035 q 344 1026 310 1035 l 332 972 z "},"’":{"ha":381,"x_min":36,"x_max":346,"o":"m 49 578 q 103 571 79 571 q 227 625 178 571 q 286 772 276 679 q 190 746 238 746 q 85 787 128 746 q 43 890 43 828 q 85 994 43 953 q 188 1035 126 1035 q 303 977 260 1035 q 346 821 346 919 q 315 659 346 728 q 230 553 285 590 q 104 515 175 515 q 36 524 72 515 l 49 578 z "},"\"":{"ha":335,"x_min":56,"x_max":279,"o":"m 57 994 l 113 994 l 113 600 l 56 600 l 57 994 m 224 994 l 279 994 l 279 600 l 222 600 l 224 994 z "},"“":{"ha":739,"x_min":35,"x_max":703,"o":"m 332 972 q 278 979 301 979 q 155 925 204 979 q 96 778 106 871 q 192 804 144 804 q 295 764 253 804 q 338 663 338 724 q 297 557 338 599 q 193 515 256 515 q 78 573 121 515 q 35 729 35 631 q 65 890 35 821 q 151 997 96 960 q 276 1035 206 1035 q 344 1026 310 1035 l 332 972 m 690 972 q 636 979 660 979 q 513 925 563 979 q 454 778 464 871 q 550 804 503 804 q 653 764 611 804 q 696 663 696 724 q 655 557 696 599 q 551 515 614 515 q 436 573 479 515 q 393 729 393 631 q 424 890 393 821 q 509 997 454 960 q 635 1035 564 1035 q 703 1026 668 1035 l 690 972 z "},"”":{"ha":739,"x_min":36,"x_max":704,"o":"m 49 578 q 103 571 79 571 q 227 625 178 571 q 286 772 276 679 q 190 746 238 746 q 85 787 128 746 q 43 890 43 828 q 85 994 43 953 q 188 1035 126 1035 q 303 977 260 1035 q 346 821 346 919 q 315 659 346 728 q 230 553 285 590 q 104 515 175 515 q 36 524 72 515 l 49 578 m 407 578 q 461 571 438 571 q 585 625 536 571 q 644 772 635 679 q 549 746 596 746 q 444 787 486 746 q 401 890 401 828 q 443 994 401 953 q 546 1035 485 1035 q 661 976 618 1035 q 704 817 704 917 q 674 658 704 726 q 589 552 643 589 q 464 515 535 515 q 394 524 429 515 l 407 578 z "},"„":{"ha":739,"x_min":36,"x_max":704,"o":"m 49 -182 q 103 -189 79 -189 q 227 -135 178 -189 q 286 13 276 -81 q 190 -14 238 -14 q 85 27 128 -14 q 43 131 43 68 q 85 234 43 193 q 188 275 126 275 q 303 217 260 275 q 346 61 346 160 q 315 -101 346 -32 q 230 -207 285 -169 q 104 -244 175 -244 q 36 -236 72 -244 l 49 -182 m 407 -182 q 461 -189 438 -189 q 585 -135 536 -189 q 644 13 635 -81 q 549 -14 596 -14 q 444 27 486 -14 q 401 131 401 68 q 443 234 401 193 q 546 275 485 275 q 661 216 618 275 q 704 57 704 157 q 674 -102 704 -33 q 589 -208 643 -171 q 464 -244 535 -244 q 394 -236 431 -244 l 407 -182 z "},"(":{"ha":313,"x_min":39,"x_max":303,"o":"m 260 -264 q 101 31 164 -157 q 39 394 39 218 q 101 758 39 572 q 260 1050 164 943 l 303 1014 q 153 732 211 907 q 94 394 94 557 q 153 56 94 235 q 303 -228 213 -122 l 260 -264 z "},")":{"ha":313,"x_min":10,"x_max":274,"o":"m 10 -228 q 163 58 107 -114 q 218 394 218 231 q 163 729 218 560 q 10 1014 107 899 l 53 1050 q 215 756 157 935 q 274 394 274 576 q 215 32 274 214 q 53 -264 156 -150 l 10 -228 z "},"[":{"ha":318,"x_min":74,"x_max":308,"o":"m 74 1050 l 308 1050 l 308 994 l 131 994 l 131 -208 l 308 -208 l 308 -264 l 74 -264 l 74 1050 z "},"]":{"ha":318,"x_min":10,"x_max":244,"o":"m 10 -264 l 10 -208 l 188 -208 l 188 994 l 10 994 l 10 1050 l 244 1050 l 244 -264 l 10 -264 z "},"{":{"ha":414,"x_min":39,"x_max":404,"o":"m 278 -264 q 188 -226 222 -264 q 154 -125 154 -187 l 154 246 q 131 322 154 293 q 67 354 107 351 l 39 356 l 39 443 l 67 444 q 131 476 107 447 q 154 554 154 506 l 154 911 q 189 1012 154 974 q 279 1050 224 1050 l 404 1050 l 404 994 l 279 994 q 229 972 249 994 q 210 911 210 949 l 210 540 q 179 445 210 483 q 99 401 149 407 l 99 399 q 179 355 149 393 q 210 260 210 317 l 210 -125 q 229 -185 210 -162 q 279 -208 249 -208 l 404 -208 l 403 -264 l 278 -264 z "},"}":{"ha":414,"x_min":10,"x_max":375,"o":"m 11 -264 l 10 -208 l 135 -208 q 185 -185 165 -208 q 204 -125 204 -162 l 204 260 q 235 355 204 317 q 315 399 265 393 l 315 401 q 235 445 265 407 q 204 540 204 483 l 204 911 q 185 972 204 949 q 135 994 165 994 l 10 994 l 10 1050 l 135 1050 q 226 1012 192 1050 q 260 911 260 974 l 260 554 q 283 476 260 506 q 347 444 307 447 l 375 443 l 375 356 l 347 354 q 283 322 307 351 q 260 246 260 293 l 260 -125 q 226 -226 260 -187 q 136 -264 192 -264 l 11 -264 z "},"/":{"ha":497,"x_min":10,"x_max":488,"o":"m 10 -318 l 433 1011 l 488 993 l 63 -333 l 10 -318 z "},"|":{"ha":201,"x_min":74,"x_max":129,"o":"m 74 1036 l 129 1036 l 129 -319 l 74 -319 l 74 1036 z "},"\\":{"ha":497,"x_min":11,"x_max":488,"o":"m 11 993 l 65 1011 l 488 -318 l 436 -333 l 11 993 z "},"«":{"ha":638,"x_min":26,"x_max":611,"o":"m 26 358 l 319 731 l 361 696 l 97 358 l 363 21 l 319 -14 l 26 358 m 276 358 l 568 731 l 611 696 l 347 358 l 611 21 l 568 -14 l 276 358 z "},"»":{"ha":639,"x_min":26,"x_max":613,"o":"m 26 21 l 292 358 l 28 696 l 69 731 l 363 358 l 69 -14 l 26 21 m 276 21 l 542 358 l 278 696 l 319 731 l 613 358 l 319 -14 l 276 21 z "},"‹":{"ha":389,"x_min":26,"x_max":363,"o":"m 26 358 l 319 731 l 361 696 l 97 358 l 363 21 l 319 -14 l 26 358 z "},"›":{"ha":389,"x_min":26,"x_max":363,"o":"m 26 21 l 292 358 l 28 696 l 69 731 l 363 358 l 69 -14 l 26 21 z "},"*":{"ha":621,"x_min":39,"x_max":583,"o":"m 283 571 q 275 603 283 592 q 251 615 267 615 q 224 606 239 615 l 67 515 l 39 564 l 194 654 q 221 689 221 671 q 194 724 221 710 l 39 814 l 67 863 l 224 772 q 251 763 239 763 q 275 774 267 763 q 283 807 283 786 l 283 988 l 339 988 l 339 807 q 347 774 339 786 q 371 763 356 763 q 399 772 383 763 l 556 863 l 583 814 l 426 724 q 400 689 400 708 q 426 654 400 672 l 583 564 l 556 515 l 399 606 q 371 615 383 615 q 347 603 356 615 q 339 571 339 592 l 339 390 l 283 390 l 283 571 z "},"#":{"ha":1224,"x_min":26,"x_max":1197,"o":"m 267 0 l 358 339 l 26 339 l 26 394 l 374 394 l 444 658 l 96 658 l 96 714 l 460 714 l 543 1022 l 597 1008 l 518 714 l 785 714 l 867 1022 l 919 1007 l 842 714 l 1196 714 l 1197 658 l 826 658 l 757 394 l 1128 394 l 1126 339 l 742 339 l 649 -14 l 594 0 l 685 339 l 417 339 l 321 -14 l 267 0 m 700 394 l 769 658 l 503 658 l 431 394 l 700 394 z "},"+":{"ha":751,"x_min":49,"x_max":701,"o":"m 251 406 l 49 406 l 49 597 l 251 597 l 251 806 l 500 806 l 500 597 l 701 597 l 701 406 l 500 406 l 500 194 l 251 194 l 251 406 z "},"−":{"ha":668,"x_min":49,"x_max":618,"o":"m 49 608 l 618 608 l 618 394 l 49 394 l 49 608 z "},"±":{"ha":751,"x_min":49,"x_max":703,"o":"m 272 510 l 49 510 l 49 683 l 272 683 l 272 818 l 479 818 l 479 683 l 701 683 l 701 510 l 479 510 l 479 374 l 272 374 l 272 510 m 50 264 l 703 264 l 703 208 l 50 208 l 50 264 z "},"×":{"ha":658,"x_min":49,"x_max":608,"o":"m 50 371 l 178 501 l 49 633 l 201 785 l 329 654 l 457 785 l 608 633 l 481 501 l 608 371 l 457 219 l 329 349 l 201 219 l 50 371 z "},"÷":{"ha":724,"x_min":49,"x_max":675,"o":"m 361 642 q 267 678 304 642 q 231 772 231 715 q 268 866 231 829 q 361 903 306 903 q 455 866 418 903 q 492 772 492 829 q 455 678 492 715 q 361 642 418 642 m 49 517 l 675 517 l 675 461 l 49 461 l 49 517 m 361 76 q 267 113 304 76 q 231 207 231 150 q 268 301 231 264 q 361 338 306 338 q 455 301 418 338 q 492 207 492 264 q 455 113 492 150 q 361 76 418 76 z "},"<":{"ha":633,"x_min":49,"x_max":585,"o":"m 49 339 l 49 608 l 514 817 l 585 614 l 203 474 l 585 333 l 513 128 l 49 339 z "},">":{"ha":633,"x_min":49,"x_max":585,"o":"m 585 607 l 585 338 l 119 128 l 49 332 l 431 472 l 49 613 l 121 817 l 585 607 z "},"≤":{"ha":626,"x_min":49,"x_max":578,"o":"m 49 463 l 49 690 l 550 818 l 578 658 l 189 576 l 578 496 l 550 336 l 49 463 m 49 274 l 578 274 l 578 218 l 49 218 l 49 274 z "},"≥":{"ha":626,"x_min":49,"x_max":578,"o":"m 49 496 l 438 576 l 49 658 l 76 818 l 578 690 l 578 463 l 76 336 l 49 496 m 49 218 l 49 274 l 578 274 l 578 218 l 49 218 z "},"=":{"ha":751,"x_min":49,"x_max":701,"o":"m 49 724 l 701 724 l 701 551 l 49 551 l 49 724 m 49 419 l 701 419 l 701 247 l 49 247 l 49 419 z "},"≠":{"ha":751,"x_min":49,"x_max":701,"o":"m 438 551 l 392 419 l 701 419 l 701 247 l 332 247 l 236 -31 l 183 -15 l 274 247 l 49 247 l 49 419 l 333 419 l 379 551 l 49 551 l 49 724 l 438 724 l 526 981 l 581 963 l 497 724 l 701 724 l 701 551 l 438 551 z "},"¬":{"ha":876,"x_min":49,"x_max":828,"o":"m 615 457 l 49 457 l 49 658 l 828 658 l 828 215 l 615 215 l 615 457 z "},"°":{"ha":608,"x_min":26,"x_max":582,"o":"m 304 467 q 162 502 225 467 q 63 600 99 538 q 26 740 26 663 q 63 885 26 821 q 162 986 99 950 q 304 1022 225 1022 q 447 986 383 1022 q 546 887 510 950 q 582 743 582 824 q 546 601 582 664 q 447 502 510 538 q 304 467 383 467 m 306 522 q 419 551 368 522 q 498 630 469 579 q 526 743 526 681 q 498 858 526 807 q 419 938 469 908 q 306 967 368 967 q 190 938 242 967 q 110 858 139 908 q 82 743 82 807 q 111 630 82 681 q 191 551 140 579 q 306 522 242 522 z "},"%":{"ha":1317,"x_min":26,"x_max":1290,"o":"m 281 18 l 1004 1036 l 1050 1004 l 326 -14 l 281 18 m 304 467 q 162 502 225 467 q 63 600 99 538 q 26 740 26 663 q 63 885 26 821 q 162 986 99 950 q 304 1022 225 1022 q 447 986 383 1022 q 546 887 510 950 q 582 743 582 824 q 546 601 582 664 q 447 502 510 538 q 304 467 383 467 m 306 618 q 395 653 360 618 q 431 743 431 689 q 395 835 431 799 q 306 871 360 871 q 214 835 250 871 q 178 743 178 799 q 215 653 178 689 q 306 618 251 618 m 1013 -19 q 870 16 933 -19 q 771 115 807 51 q 735 257 735 178 q 771 401 735 338 q 870 500 807 464 q 1013 536 933 536 q 1155 500 1092 536 q 1254 401 1218 464 q 1290 257 1290 338 q 1254 115 1290 178 q 1155 16 1218 51 q 1013 -19 1092 -19 m 1014 132 q 1103 167 1068 132 q 1139 257 1139 203 q 1103 349 1139 313 q 1014 385 1068 385 q 922 349 958 385 q 886 257 886 313 q 922 167 886 203 q 1014 132 958 132 z "},"‰":{"ha":1999,"x_min":26,"x_max":1972,"o":"m 281 18 l 1004 1036 l 1050 1004 l 326 -14 l 281 18 m 304 467 q 162 502 225 467 q 63 600 99 538 q 26 740 26 663 q 63 885 26 821 q 162 986 99 950 q 304 1022 225 1022 q 447 986 383 1022 q 546 887 510 950 q 582 743 582 824 q 546 601 582 664 q 447 502 510 538 q 304 467 383 467 m 306 618 q 395 653 360 618 q 431 743 431 689 q 395 835 431 799 q 306 871 360 871 q 214 835 250 871 q 178 743 178 799 q 215 653 178 689 q 306 618 251 618 m 1013 -19 q 870 16 933 -19 q 771 115 807 51 q 735 257 735 178 q 771 401 735 338 q 870 500 807 464 q 1013 536 933 536 q 1155 500 1092 536 q 1254 401 1218 464 q 1290 257 1290 338 q 1254 115 1290 178 q 1155 16 1218 51 q 1013 -19 1092 -19 m 1694 -19 q 1552 16 1615 -19 q 1453 114 1489 51 q 1417 254 1417 176 q 1453 399 1417 335 q 1552 500 1489 464 q 1694 536 1615 536 q 1837 500 1774 536 q 1936 401 1900 464 q 1972 257 1972 338 q 1936 115 1972 178 q 1837 16 1900 51 q 1694 -19 1774 -19 m 1014 132 q 1103 167 1068 132 q 1139 257 1139 203 q 1103 349 1139 313 q 1014 385 1068 385 q 922 349 958 385 q 886 257 886 313 q 922 167 886 203 q 1014 132 958 132 m 1696 132 q 1785 167 1750 132 q 1821 257 1821 203 q 1785 349 1821 313 q 1696 385 1750 385 q 1604 349 1640 385 q 1568 257 1568 313 q 1604 167 1568 203 q 1696 132 1640 132 z "},"¤":{"ha":938,"x_min":26,"x_max":911,"o":"m 26 -32 l 181 122 q 108 347 108 218 q 181 572 108 476 l 28 725 l 67 764 l 217 614 q 330 684 265 660 q 469 708 394 708 q 609 684 544 708 q 722 614 674 660 l 872 764 l 911 725 l 760 571 q 812 468 793 525 q 831 347 831 411 q 812 226 831 283 q 760 124 793 169 l 911 -31 l 872 -69 l 722 81 q 609 10 674 35 q 469 -14 544 -14 q 330 10 394 -14 q 217 81 265 35 l 67 -69 l 26 -32 m 469 193 q 580 236 536 193 q 624 347 624 279 q 580 458 624 414 q 469 501 536 501 q 358 458 401 501 q 315 347 315 414 q 359 236 315 279 q 469 193 403 193 z "},"$":{"ha":979,"x_min":32,"x_max":961,"o":"m 961 310 q 904 127 961 204 q 747 9 847 50 q 514 -35 646 -32 l 514 -181 l 458 -181 l 458 -33 q 162 58 276 -26 q 32 293 47 142 l 303 344 q 353 240 311 282 q 458 186 394 197 l 458 386 l 400 396 q 138 499 219 426 q 56 699 56 571 q 108 869 56 796 q 251 983 160 942 q 458 1029 342 1025 l 458 1139 l 514 1139 l 514 1028 q 775 943 669 1021 q 897 740 881 865 l 631 682 q 593 767 625 733 q 514 810 561 800 l 514 629 l 611 614 q 877 514 793 588 q 961 310 961 440 m 350 722 q 376 670 350 690 q 458 638 401 650 l 458 813 q 379 785 408 810 q 350 722 350 760 m 514 181 q 628 210 585 182 q 671 281 671 238 q 637 338 671 317 q 526 374 603 360 l 514 376 l 514 181 z "},"¢":{"ha":824,"x_min":26,"x_max":801,"o":"m 801 296 q 747 133 794 204 q 620 19 699 61 q 442 -28 542 -24 l 442 -181 l 386 -181 l 386 -26 q 197 29 279 -21 q 71 164 115 79 q 26 358 26 249 q 71 555 26 469 q 197 690 115 640 q 386 744 279 740 l 386 889 l 442 889 l 442 743 q 662 659 572 733 q 769 468 751 585 l 539 404 q 508 490 533 457 q 442 529 483 522 l 442 185 q 527 228 494 190 q 565 328 560 265 l 801 296 m 283 363 q 310 249 283 294 q 386 190 338 204 l 386 529 q 311 474 339 518 q 283 363 283 431 z "},"€":{"ha":1246,"x_min":26,"x_max":1224,"o":"m 1224 410 q 1141 174 1211 275 q 956 19 1071 74 q 693 -35 840 -35 q 429 19 544 -35 q 243 171 314 72 q 154 406 172 269 l 26 406 l 26 461 l 150 461 q 149 497 149 474 q 150 536 149 524 l 26 536 l 26 592 l 154 592 q 240 825 172 726 q 417 976 307 924 q 669 1029 528 1029 q 900 983 797 1029 q 1067 853 1003 938 q 1146 654 1131 768 l 871 585 q 803 724 856 674 q 671 774 751 774 q 535 726 590 774 q 460 592 479 678 l 786 592 l 785 536 l 451 536 q 450 497 450 524 q 451 461 450 472 l 785 461 l 786 406 l 461 406 q 544 269 482 318 q 697 221 606 221 q 861 281 794 221 q 943 444 928 342 l 1224 410 z "},"£":{"ha":896,"x_min":26,"x_max":869,"o":"m 26 238 q 142 327 104 267 q 179 499 179 388 l 40 499 l 40 554 l 179 554 l 179 701 q 221 865 179 793 q 339 978 263 938 q 514 1019 415 1019 q 688 981 610 1019 q 813 874 765 942 q 869 718 861 806 l 633 681 q 601 765 628 732 q 538 797 575 797 q 480 768 501 797 q 458 692 458 739 l 458 554 l 821 554 l 821 499 l 457 499 q 410 318 456 385 q 272 214 365 251 l 272 213 l 868 213 l 868 0 l 26 0 l 26 238 z "},"¥":{"ha":1033,"x_min":4,"x_max":1029,"o":"m 369 194 l 108 194 l 108 250 l 369 250 l 369 310 l 108 310 l 108 365 l 347 365 l 4 994 l 329 994 l 521 575 l 699 994 l 1029 994 l 692 365 l 928 365 l 928 310 l 671 310 l 671 250 l 928 250 l 928 194 l 671 194 l 671 0 l 369 0 l 369 194 z "},"₤":{"ha":894,"x_min":26,"x_max":868,"o":"m 26 235 q 179 439 179 288 l 29 439 l 29 485 l 179 485 l 179 543 l 29 543 l 29 599 l 179 599 l 179 701 q 222 865 179 792 q 340 978 264 938 q 511 1019 415 1019 q 758 937 664 1019 q 868 719 851 854 l 632 682 q 601 766 624 735 q 540 797 578 797 q 478 765 500 797 q 458 681 457 733 l 458 599 l 821 599 l 821 543 l 458 543 l 458 485 l 821 485 l 821 429 l 457 429 q 407 284 457 344 q 272 193 357 224 l 272 192 l 868 192 l 868 0 l 26 0 l 26 235 z "},"©":{"ha":1146,"x_min":39,"x_max":1108,"o":"m 574 -35 q 299 34 421 -35 q 108 224 176 103 q 39 499 39 346 q 108 774 39 651 q 300 965 178 896 q 574 1035 422 1035 q 849 966 726 1035 q 1040 775 971 897 q 1108 499 1108 653 q 1040 224 1108 346 q 849 33 971 101 q 574 -35 726 -35 m 576 21 q 821 82 713 21 q 991 252 929 143 q 1053 497 1053 361 q 991 744 1053 635 q 821 917 929 854 q 576 979 713 979 q 328 917 438 979 q 156 745 218 856 q 94 497 94 635 q 157 252 94 361 q 329 82 219 143 q 576 21 439 21 m 581 115 q 376 164 464 115 q 239 300 288 213 q 190 501 190 388 q 238 703 190 615 q 372 839 286 790 q 572 888 458 888 q 742 853 665 888 q 869 756 819 819 q 933 611 919 693 l 693 547 q 656 642 688 610 q 579 675 624 675 q 492 628 526 675 q 457 506 457 581 q 494 377 457 426 q 590 328 532 328 q 677 367 642 328 q 719 471 713 407 l 965 439 q 906 269 957 343 q 771 156 856 196 q 581 115 686 115 z "},"®":{"ha":1146,"x_min":39,"x_max":1108,"o":"m 575 -35 q 300 34 422 -35 q 108 224 178 103 q 39 499 39 346 q 109 774 39 651 q 301 965 179 896 q 575 1035 424 1035 q 849 966 728 1035 q 1040 774 971 897 q 1108 499 1108 651 q 1040 224 1108 346 q 849 34 971 103 q 575 -35 728 -35 m 578 21 q 821 82 713 21 q 991 252 929 143 q 1053 497 1053 361 q 991 744 1053 635 q 821 917 929 854 q 578 979 713 979 q 328 917 439 979 q 156 745 218 856 q 94 497 94 635 q 157 252 94 361 q 330 82 219 143 q 578 21 440 21 m 321 869 l 594 869 q 789 806 718 869 q 860 635 860 742 q 828 518 860 567 q 738 442 797 469 l 858 139 l 657 139 l 567 410 l 507 410 l 507 139 l 321 139 l 321 869 m 583 549 q 653 572 626 549 q 679 635 679 596 q 653 697 679 674 q 583 719 626 719 l 507 719 l 507 549 l 583 549 z "},"@":{"ha":1194,"x_min":39,"x_max":1156,"o":"m 599 -233 q 306 -163 433 -233 q 109 34 179 -93 q 39 328 39 161 q 110 633 39 501 q 308 835 181 764 q 599 906 435 906 q 890 838 764 906 q 1086 642 1017 769 q 1156 339 1156 514 q 1091 71 1156 160 q 918 -18 1026 -18 q 786 12 833 -18 q 718 104 739 42 l 713 121 l 711 121 q 614 19 679 56 q 463 -18 549 -18 q 285 38 354 -18 q 215 183 215 93 q 298 341 215 279 q 531 418 381 403 l 651 431 q 692 448 676 433 q 707 483 707 463 q 681 536 707 515 q 618 557 656 557 q 540 526 571 557 q 503 446 510 496 l 242 478 q 294 617 247 557 q 421 711 340 678 q 607 744 501 744 q 872 664 775 744 q 969 443 969 583 l 969 172 q 980 128 969 143 q 1008 114 990 114 q 1071 164 1042 114 q 1100 338 1100 214 q 1038 613 1100 497 q 863 789 975 728 q 601 850 750 850 q 335 786 450 850 q 157 603 219 722 q 94 326 94 485 q 158 62 94 176 q 336 -115 221 -53 q 601 -178 451 -178 q 842 -118 735 -178 l 869 -167 q 599 -233 749 -233 m 575 167 q 667 203 631 167 q 703 293 703 239 l 703 313 l 606 303 q 485 229 485 292 q 510 185 485 203 q 575 167 536 167 z "},"™":{"ha":1628,"x_min":24,"x_max":1554,"o":"m 201 817 l 24 817 l 24 994 l 600 994 l 600 817 l 424 817 l 424 389 l 201 389 l 201 817 m 658 994 l 929 994 l 1106 597 l 1276 994 l 1554 994 l 1554 389 l 1363 389 l 1363 778 l 1197 389 l 1017 389 l 850 778 l 850 389 l 658 389 l 658 994 z "},"§":{"ha":842,"x_min":39,"x_max":803,"o":"m 422 -22 q 156 35 261 -22 q 39 200 50 92 l 267 242 q 315 169 272 193 q 429 144 358 144 q 513 160 479 144 q 547 204 547 176 q 521 246 547 231 q 438 269 494 261 l 296 292 q 122 352 188 307 q 56 488 56 397 q 80 579 56 538 q 147 649 104 621 q 103 772 103 696 q 142 898 103 843 q 253 983 182 953 q 413 1013 324 1013 q 625 960 540 1013 q 718 803 710 907 l 504 776 q 474 830 500 808 q 413 851 449 851 q 360 835 381 851 q 339 793 339 818 q 353 758 340 771 q 396 742 367 746 l 543 718 q 716 656 643 704 q 789 522 789 607 q 715 375 789 439 q 803 224 803 322 q 753 92 803 147 q 618 7 704 36 q 422 -22 532 -22 m 497 436 q 539 456 524 442 q 554 489 554 471 q 460 551 554 538 l 324 574 q 285 551 300 567 q 271 514 271 535 q 349 458 271 468 l 497 436 z "},"¶":{"ha":1089,"x_min":26,"x_max":1063,"o":"m 343 404 q 177 440 249 404 q 66 543 106 476 q 26 697 26 610 q 66 852 26 785 q 177 957 106 919 q 343 994 249 994 l 1063 994 l 1063 807 l 926 807 l 926 -286 l 693 -286 l 693 807 l 576 807 l 576 -286 l 343 -286 l 343 404 z "},"^":{"ha":744,"x_min":26,"x_max":718,"o":"m 26 631 l 221 994 l 525 994 l 718 631 l 508 556 l 372 842 l 239 556 l 26 631 z "},"~":{"ha":917,"x_min":26,"x_max":890,"o":"m 890 393 q 772 278 847 324 q 632 232 697 232 q 539 251 586 232 q 431 307 492 271 q 332 358 369 342 q 261 375 294 375 q 194 357 229 375 q 135 310 160 339 l 26 433 q 146 551 68 503 q 289 599 224 599 q 383 578 336 599 q 497 517 429 557 q 583 469 550 485 q 647 454 617 454 q 720 472 683 454 q 783 519 757 490 l 890 393 z "},"`":{"ha":279,"x_min":38,"x_max":242,"o":"m 38 1035 l 82 1069 l 242 868 l 199 833 l 38 1035 z "},"´":{"ha":279,"x_min":39,"x_max":242,"o":"m 39 868 l 199 1069 l 242 1035 l 82 833 l 39 868 z "},"¨":{"ha":708,"x_min":38,"x_max":671,"o":"m 168 814 q 74 849 111 814 q 38 939 38 885 q 74 1028 38 993 q 168 1064 111 1064 q 262 1028 225 1064 q 299 939 299 993 q 262 849 299 885 q 168 814 225 814 m 540 814 q 447 849 483 814 q 410 939 410 885 q 447 1028 410 993 q 540 1064 483 1064 q 634 1028 597 1064 q 671 939 671 993 q 634 849 671 885 q 540 814 597 814 z "},"¯":{"ha":529,"x_min":39,"x_max":490,"o":"m 39 879 l 490 879 l 490 824 l 39 824 l 39 879 z "},"¸":{"ha":332,"x_min":40,"x_max":297,"o":"m 171 -285 q 94 -264 131 -285 q 40 -211 58 -243 l 83 -176 q 119 -215 94 -200 q 171 -229 144 -229 q 222 -215 203 -229 q 242 -178 242 -201 q 217 -135 242 -151 q 151 -118 192 -118 l 103 -118 l 117 3 l 172 3 l 164 -67 q 261 -99 225 -71 q 297 -175 297 -126 q 263 -255 297 -225 q 171 -285 228 -285 z "},"ˆ":{"ha":565,"x_min":38,"x_max":526,"o":"m 38 861 l 244 1042 l 319 1042 l 526 861 l 490 819 l 282 1000 l 75 819 l 38 861 z "},"ˇ":{"ha":565,"x_min":38,"x_max":526,"o":"m 38 1014 l 75 1056 l 282 875 l 490 1056 l 526 1014 l 319 833 l 244 833 l 38 1014 z "},"˘":{"ha":549,"x_min":38,"x_max":510,"o":"m 274 819 q 152 848 206 819 q 68 927 99 876 q 38 1042 38 978 l 94 1042 q 144 922 94 969 q 272 875 194 875 q 403 922 351 875 q 456 1042 456 969 l 510 1042 q 479 927 510 978 q 395 848 449 876 q 274 819 342 819 z "},"˙":{"ha":358,"x_min":39,"x_max":319,"o":"m 179 814 q 78 851 118 814 q 39 949 39 889 q 78 1046 39 1008 q 179 1083 118 1083 q 280 1046 240 1083 q 319 949 319 1008 q 280 851 319 889 q 179 814 240 814 z "},"":{"ha":0,"x_min":-283,"x_max":-36,"o":"m -268 -344 q -217 -350 -237 -350 q -140 -331 -172 -350 q -96 -267 -107 -311 q -172 -286 -131 -286 q -251 -259 -218 -286 q -283 -187 -283 -232 q -251 -116 -283 -144 q -171 -87 -219 -87 q -74 -130 -111 -87 q -37 -239 -37 -172 q -85 -359 -36 -315 q -214 -403 -133 -403 q -279 -396 -240 -403 l -268 -344 z "},"˚":{"ha":340,"x_min":38,"x_max":301,"o":"m 169 819 q 75 857 113 819 q 38 951 38 894 q 75 1046 38 1008 q 169 1083 113 1083 q 264 1046 226 1083 q 301 951 301 1008 q 265 857 301 894 q 169 819 228 819 m 168 875 q 224 897 203 875 q 244 951 244 918 q 224 1006 244 985 q 168 1028 203 1028 q 114 1006 136 1028 q 92 951 92 985 q 114 897 92 918 q 168 875 136 875 z "},"˛":{"ha":347,"x_min":14,"x_max":300,"o":"m 136 -285 q 47 -253 81 -285 q 14 -169 14 -221 q 80 -47 14 -96 q 278 43 146 1 l 300 0 q 124 -77 178 -43 q 71 -165 71 -111 q 90 -212 71 -194 q 139 -229 108 -229 q 187 -215 161 -229 q 235 -179 213 -201 l 274 -215 q 209 -266 247 -247 q 136 -285 171 -285 z "},"˜":{"ha":563,"x_min":38,"x_max":524,"o":"m 388 819 q 324 839 351 819 q 265 893 296 858 q 215 946 235 929 q 171 963 196 963 q 115 926 136 963 q 93 833 93 890 l 38 833 q 75 966 38 914 q 172 1018 113 1018 q 237 999 210 1018 q 293 946 264 981 q 317 919 299 940 q 353 886 336 897 q 388 875 371 875 q 445 912 422 875 q 468 1006 468 949 l 524 1006 q 485 872 524 925 q 388 819 447 819 z "},"˝":{"ha":506,"x_min":39,"x_max":468,"o":"m 39 868 l 199 1069 l 242 1035 l 82 833 l 39 868 m 264 868 l 424 1069 l 468 1035 l 307 833 l 264 868 z "},"↑":{"ha":713,"x_min":39,"x_max":675,"o":"m 357 732 l 675 426 l 638 386 l 385 628 l 385 0 l 329 0 l 329 628 l 78 386 l 39 426 l 357 732 z "},"↗":{"ha":657,"x_min":39,"x_max":585,"o":"m 576 625 l 585 185 l 529 183 l 522 532 l 78 89 l 39 128 l 482 572 l 133 578 l 135 635 l 576 625 z "},"→":{"ha":808,"x_min":39,"x_max":771,"o":"m 425 83 l 667 335 l 39 335 l 39 390 l 667 390 l 425 643 l 465 681 l 771 363 l 465 44 l 425 83 z "},"↘":{"ha":657,"x_min":39,"x_max":585,"o":"m 575 113 l 135 104 l 133 158 l 482 167 l 39 611 l 78 650 l 522 206 l 528 554 l 585 554 l 575 113 z "},"↓":{"ha":713,"x_min":39,"x_max":675,"o":"m 78 331 l 329 89 l 329 717 l 385 717 l 385 89 l 638 331 l 675 290 l 357 -15 l 39 290 l 78 331 z "},"↙":{"ha":657,"x_min":74,"x_max":619,"o":"m 129 554 l 136 206 l 579 650 l 619 611 l 175 167 l 525 158 l 522 104 l 82 113 l 74 554 l 129 554 z "},"←":{"ha":808,"x_min":39,"x_max":771,"o":"m 39 363 l 344 681 l 385 643 l 143 390 l 771 390 l 771 335 l 143 335 l 385 83 l 344 44 l 39 363 z "},"↖":{"ha":657,"x_min":72,"x_max":619,"o":"m 524 578 l 175 572 l 619 128 l 579 89 l 136 532 l 128 183 l 72 185 l 82 625 l 522 635 l 524 578 z "},"↔":{"ha":1264,"x_min":39,"x_max":1226,"o":"m 1226 363 l 921 44 l 881 82 l 1122 335 l 143 335 l 385 83 l 344 44 l 39 363 l 344 681 l 385 643 l 143 390 l 1122 390 l 881 642 l 921 681 l 1226 363 z "},"↕":{"ha":713,"x_min":39,"x_max":675,"o":"m 638 150 l 675 110 l 357 -196 l 39 110 l 78 150 l 329 -92 l 329 808 l 76 567 l 39 607 l 357 913 l 675 607 l 636 567 l 385 808 l 385 -92 l 638 150 z "}}}
